<?xml version="1.0" encoding="utf-8"?>
<!-- Generator: Adobe Illustrator 18.1.0, SVG Export Plug-In . SVG Version: 6.00 Build 0)  -->
<!DOCTYPE svg PUBLIC "-//W3C//DTD SVG 1.1//EN" "http://www.w3.org/Graphics/SVG/1.1/DTD/svg11.dtd">
<svg version="1.1" id="Layer_1" xmlns="http://www.w3.org/2000/svg" xmlns:xlink="http://www.w3.org/1999/xlink" x="0px" y="0px"
	 viewBox="0 174 1280 486" enable-background="new 0 174 1280 486" xml:space="preserve">
<g>
	<rect x="-0.1" y="398.2" width="1278.8" height="9"/>
	<line fill="none" stroke="#000000" stroke-width="1.5335" stroke-miterlimit="10" x1="132.5" y1="404.3" x2="132.5" y2="375"/>
	<line fill="none" stroke="#000000" stroke-width="1.5335" stroke-miterlimit="10" x1="374.2" y1="404.3" x2="374.2" y2="375"/>
	<line fill="none" stroke="#000000" stroke-width="1.5335" stroke-miterlimit="10" x1="615.3" y1="404.3" x2="615.3" y2="375"/>
	<line fill="none" stroke="#000000" stroke-width="1.5335" stroke-miterlimit="10" x1="1018.2" y1="404.3" x2="1018.2" y2="375"/>
	<line fill="none" stroke="#000000" stroke-width="1.5335" stroke-miterlimit="10" x1="294.2" y1="432.2" x2="294.2" y2="402.9"/>
	<g>
		<path d="M130.1,297.1l1.3-2.2c0.7,0.7,1.5,1.3,2.8,1.3c1.7,0,2.8-1.2,2.8-2.9v-11h2.8v11.1c0,3.7-2.3,5.4-5.5,5.4
			C132.8,298.8,131.3,298.3,130.1,297.1z"/>
		<path d="M150.4,298.5v-1.3c-0.9,1-2.2,1.6-3.8,1.6c-1.9,0-4.1-1.3-4.1-3.9c0-2.7,2.2-3.8,4.1-3.8c1.6,0,2.9,0.5,3.8,1.5v-1.7
			c0-1.4-1.1-2.2-2.7-2.2c-1.3,0-2.5,0.5-3.5,1.5l-1-1.8c1.4-1.3,3.1-1.9,4.9-1.9c2.6,0,4.9,1.1,4.9,4.2v7.8L150.4,298.5
			L150.4,298.5z M150.4,295.8V294c-0.6-0.8-1.7-1.2-2.8-1.2c-1.4,0-2.5,0.8-2.5,2.1c0,1.3,1.1,2.1,2.5,2.1
			C148.8,297.1,149.8,296.6,150.4,295.8z"/>
		<path d="M164.2,298.5v-7.3c0-1.8-0.9-2.4-2.4-2.4c-1.3,0-2.4,0.8-3,1.6v8.2h-2.5v-11.7h2.5v1.6c0.8-0.9,2.3-1.9,4.1-1.9
			c2.5,0,3.8,1.4,3.8,3.8v8.2h-2.5V298.5z"/>
		<path d="M179.3,298.5V286l-2.6,2.7L175,287l4.7-4.7h2.5v16.2H179.3z"/>
		<path d="M185,298.5v-2.2c6.3-4.8,8.7-6.9,8.7-9.2c0-1.7-1.5-2.5-2.9-2.5c-1.9,0-3.3,0.8-4.4,1.9l-1.7-1.9c1.4-1.7,3.7-2.6,6-2.6
			c3.1,0,5.9,1.8,5.9,5c0,3-2.7,5.7-7.1,8.9h7.2v2.5H185V298.5z"/>
		<path d="M131.4,328.2c0-5,3.6-8.4,8.2-8.4c2.6,0,4.5,1.1,5.9,2.9l-1.2,0.7c-1-1.4-2.8-2.4-4.7-2.4c-3.8,0-6.7,2.9-6.7,7.1
			s2.9,7.1,6.7,7.1c1.9,0,3.7-0.9,4.7-2.4l1.2,0.7c-1.4,1.8-3.3,2.9-5.9,2.9C135,336.5,131.4,333.1,131.4,328.2z"/>
		<path d="M147.5,330.4c0-3.4,2.2-6.1,5.6-6.1c3.5,0,5.7,2.7,5.7,6.1s-2.2,6.2-5.7,6.2C149.7,336.5,147.5,333.8,147.5,330.4z
			 M157.5,330.4c0-2.6-1.5-5-4.3-5c-2.7,0-4.3,2.4-4.3,5s1.6,5,4.3,5S157.5,333,157.5,330.4z"/>
		<path d="M176,336.2V328c0-1.7-0.7-2.7-2.4-2.7c-1.3,0-2.7,0.9-3.3,2v8.9H169V328c0-1.7-0.7-2.7-2.4-2.7c-1.2,0-2.6,0.9-3.3,2v8.9
			H162v-11.7h1.3v1.8c0.5-0.8,2.1-2.1,3.8-2.1c1.8,0,2.8,1.1,3.1,2.2c0.7-1.1,2.2-2.2,3.9-2.2c2.2,0,3.2,1.2,3.2,3.6v8.4L176,336.2
			L176,336.2z"/>
		<path d="M182.5,334.3v6.4h-1.3v-16.2h1.3v1.8c0.8-1.2,2.3-2.1,4.1-2.1c3.1,0,5.2,2.4,5.2,6.1s-2.1,6.2-5.2,6.2
			C184.9,336.5,183.4,335.7,182.5,334.3z M190.4,330.4c0-2.8-1.5-5-4.1-5c-1.6,0-3.2,1-3.9,2.1v5.8c0.7,1.1,2.2,2.1,3.9,2.1
			C188.9,335.4,190.4,333.2,190.4,330.4z"/>
		<path d="M202.4,336.2v-1.4c-1,1.1-2.4,1.7-4,1.7c-2,0-4.1-1.4-4.1-3.9s2.1-3.9,4.1-3.9c1.6,0,3,0.5,4,1.7V328
			c0-1.7-1.4-2.7-3.2-2.7c-1.5,0-2.6,0.5-3.7,1.7l-0.7-0.9c1.2-1.3,2.6-2,4.5-2c2.4,0,4.3,1.1,4.3,3.8v8.2h-1.2V336.2z M202.4,333.9
			v-2.6c-0.8-1.1-2.1-1.6-3.5-1.6c-1.9,0-3.2,1.2-3.2,2.9c0,1.6,1.3,2.9,3.2,2.9C200.3,335.5,201.6,335,202.4,333.9z"/>
		<path d="M215.5,336.2v-7.9c0-2.3-1.1-2.9-2.8-2.9c-1.5,0-3.1,0.9-3.8,2v8.9h-1.3v-11.7h1.3v1.8c0.9-1,2.5-2.1,4.2-2.1
			c2.4,0,3.7,1.2,3.7,3.8v8.2L215.5,336.2L215.5,336.2z"/>
		<path d="M220.1,339.7c0.3,0.1,0.7,0.2,1,0.2c0.8,0,1.3-0.3,1.8-1.4l0.9-2.1l-4.9-11.8h1.4l4.3,10.2l4.2-10.2h1.4l-6.1,14.3
			c-0.6,1.5-1.6,2.2-3,2.2c-0.4,0-0.9-0.1-1.2-0.2L220.1,339.7z"/>
		<path d="M131.6,348.7c0-0.5,0.5-0.9,1-0.9s1,0.4,1,0.9s-0.4,1-1,1C132,349.6,131.6,349.2,131.6,348.7z M131.9,363.2v-11.7h1.3
			v11.7H131.9z"/>
		<path d="M136.1,361.6l0.8-0.9c0.8,0.9,2.1,1.7,3.8,1.7c2,0,3.1-1,3.1-2.4c0-3.2-7.4-1.4-7.4-5.6c0-1.8,1.5-3.3,4.2-3.3
			c2,0,3.3,0.8,4.2,1.7l-0.7,0.9c-0.7-0.9-1.9-1.6-3.5-1.6c-1.8,0-2.9,0.9-2.9,2.1c0,2.9,7.4,1.1,7.4,5.7c0,1.9-1.5,3.4-4.4,3.4
			C138.7,363.5,137.3,362.9,136.1,361.6z"/>
		<path d="M154.9,363.2v-10.6H153v-1.1h1.9v-1.1c0-2.3,1.2-3.6,3.2-3.6c0.8,0,1.5,0.2,2.2,0.8l-0.6,0.9c-0.4-0.4-0.9-0.6-1.5-0.6
			c-1.3,0-2,0.9-2,2.5v1.1h2.4v1.1h-2.4v10.6L154.9,363.2L154.9,363.2z"/>
		<path d="M160.3,357.3c0-3.4,2.2-6.1,5.6-6.1c3.5,0,5.7,2.7,5.7,6.1s-2.2,6.2-5.7,6.2C162.5,363.5,160.3,360.7,160.3,357.3z
			 M170.2,357.3c0-2.6-1.5-5-4.3-5c-2.7,0-4.3,2.4-4.3,5s1.6,5,4.3,5C168.7,362.3,170.2,359.9,170.2,357.3z"/>
		<path d="M182.7,363.2v-1.7c-1,1.1-2.5,2-4.2,2c-2.4,0-3.7-1.1-3.7-3.8v-8.3h1.3v8c0,2.3,1.1,2.9,2.8,2.9c1.5,0,3-0.9,3.8-1.9v-8.9
			h1.3v11.7L182.7,363.2L182.7,363.2z"/>
		<path d="M195.8,363.2v-7.9c0-2.3-1.1-2.9-2.8-2.9c-1.5,0-3.1,0.9-3.8,2v8.9h-1.3v-11.7h1.3v1.8c0.9-1,2.5-2.1,4.2-2.1
			c2.4,0,3.7,1.2,3.7,3.8v8.2L195.8,363.2L195.8,363.2z"/>
		<path d="M209.6,363.2v-1.9c-0.8,1.2-2.3,2.2-4.1,2.2c-3.1,0-5.2-2.4-5.2-6.1s2.1-6.2,5.2-6.2c1.7,0,3.1,0.8,4.1,2.2V347h1.3v16.2
			H209.6z M209.6,360.3v-5.8c-0.7-1.1-2.2-2.1-3.9-2.1c-2.6,0-4.1,2.2-4.1,5s1.5,5,4.1,5C207.4,362.3,208.9,361.4,209.6,360.3z"/>
		<path d="M214.2,357.3c0-3.4,2.4-6.1,5.7-6.1c3.6,0,5.5,2.8,5.5,6.2v0.3h-9.8c0.1,2.5,1.8,4.7,4.6,4.7c1.5,0,2.8-0.6,3.8-1.6
			l0.7,0.8c-1.2,1.2-2.6,1.9-4.6,1.9C216.6,363.5,214.2,360.9,214.2,357.3z M219.8,352.3c-2.8,0-4.1,2.4-4.2,4.5h8.5
			C224,354.7,222.7,352.3,219.8,352.3z"/>
		<path d="M237.2,363.2v-1.9c-0.8,1.2-2.3,2.2-4.1,2.2c-3.1,0-5.2-2.4-5.2-6.1s2.1-6.2,5.2-6.2c1.7,0,3.1,0.8,4.1,2.2V347h1.3v16.2
			H237.2z M237.2,360.3v-5.8c-0.7-1.1-2.2-2.1-3.9-2.1c-2.6,0-4.1,2.2-4.1,5s1.5,5,4.1,5C235,362.3,236.5,361.4,237.2,360.3z"/>
	</g>
	<g>
		<path fill="#3BC462" d="M323.8,618v4.7c0,0.2-0.1,0.3-0.2,0.5s-0.3,0.3-0.4,0.3l-4,0.6c-0.2,0.6-0.5,1.2-0.8,1.9
			c0.6,0.8,1.3,1.8,2.3,2.9c0.1,0.2,0.2,0.3,0.2,0.5s-0.1,0.4-0.2,0.5c-0.4,0.5-1.1,1.3-2.1,2.3s-1.7,1.5-2,1.5
			c-0.2,0-0.4-0.1-0.5-0.2l-2.9-2.3c-0.6,0.3-1.3,0.6-2,0.8c-0.2,1.8-0.4,3.2-0.6,4c-0.1,0.4-0.4,0.6-0.8,0.6H305
			c-0.2,0-0.4-0.1-0.5-0.2c-0.2-0.1-0.2-0.3-0.3-0.4l-0.6-3.9c-0.6-0.2-1.2-0.4-1.9-0.8l-3,2.3c-0.1,0.1-0.3,0.2-0.5,0.2
			s-0.4-0.1-0.5-0.2c-2.5-2.3-3.7-3.6-3.7-4.1c0-0.2,0.1-0.3,0.2-0.5c0.2-0.2,0.5-0.7,1-1.4s0.9-1.2,1.2-1.6
			c-0.4-0.8-0.7-1.4-0.9-2.1l-3.9-0.6c-0.2,0-0.3-0.1-0.4-0.2c-0.1-0.1-0.2-0.3-0.2-0.5v-4.7c0-0.2,0.1-0.3,0.2-0.5s0.3-0.2,0.4-0.3
			l4-0.6c0.2-0.6,0.5-1.2,0.8-1.9c-0.6-0.8-1.3-1.8-2.3-2.9c-0.1-0.2-0.2-0.4-0.2-0.5c0-0.2,0.1-0.4,0.2-0.5
			c0.4-0.5,1.1-1.3,2.1-2.3s1.7-1.5,2-1.5c0.2,0,0.4,0.1,0.5,0.2l2.9,2.3c0.6-0.3,1.2-0.6,2-0.8c0.2-1.8,0.4-3.2,0.6-3.9
			c0.1-0.4,0.4-0.6,0.8-0.6h4.8c0.2,0,0.4,0.1,0.5,0.2c0.2,0.1,0.2,0.3,0.3,0.4l0.6,3.9c0.6,0.2,1.2,0.4,1.9,0.8l3-2.3
			c0.1-0.1,0.3-0.2,0.5-0.2s0.4,0.1,0.5,0.2c2.5,2.3,3.7,3.6,3.7,4.1c0,0.2-0.1,0.3-0.2,0.5c-0.2,0.3-0.6,0.7-1.1,1.4
			s-0.9,1.2-1.2,1.5c0.4,0.8,0.7,1.5,0.9,2.1l3.9,0.6c0.2,0,0.3,0.1,0.4,0.3C323.7,617.6,323.8,617.8,323.8,618z M312,625
			c1.3-1.3,1.9-2.8,1.9-4.6s-0.6-3.4-1.9-4.6c-1.3-1.3-2.8-1.9-4.6-1.9c-1.8,0-3.4,0.6-4.6,1.9c-1.3,1.3-1.9,2.8-1.9,4.6
			s0.6,3.3,1.9,4.6s2.8,1.9,4.6,1.9S310.7,626.2,312,625z M340.1,605.4v3.6c0,0.3-1.3,0.5-3.8,0.8c-0.2,0.5-0.5,0.9-0.8,1.3
			c0.9,1.9,1.3,3.1,1.3,3.5c0,0.1,0,0.1-0.1,0.2c-2.1,1.2-3.1,1.8-3.2,1.8s-0.5-0.4-1.2-1.2c-0.6-0.8-1.1-1.4-1.3-1.7
			c-0.3,0-0.6,0.1-0.8,0.1s-0.4,0-0.8-0.1c-0.2,0.4-0.7,0.9-1.3,1.7c-0.6,0.8-1,1.2-1.2,1.2c0,0-1.1-0.6-3.2-1.8
			c-0.1-0.1-0.1-0.1-0.1-0.2c0-0.4,0.4-1.6,1.3-3.5c-0.3-0.4-0.6-0.9-0.8-1.3c-2.5-0.3-3.8-0.5-3.8-0.8v-3.6c0-0.3,1.3-0.5,3.8-0.8
			c0.2-0.5,0.5-0.9,0.8-1.3c-0.9-1.9-1.3-3.1-1.3-3.5c0-0.1,0-0.1,0.1-0.2c0.1,0,0.4-0.2,0.9-0.5s1-0.6,1.5-0.9
			c0.5-0.3,0.7-0.4,0.8-0.4c0.1,0,0.5,0.4,1.2,1.2s1.1,1.4,1.3,1.7c0.3,0,0.6,0,0.8,0s0.4,0,0.8,0c0.9-1.2,1.7-2.2,2.4-2.9h0.2
			c0.1,0,1.1,0.6,3.2,1.8c0.1,0,0.1,0.1,0.1,0.2c0,0.4-0.4,1.6-1.3,3.5c0.3,0.4,0.5,0.8,0.8,1.3
			C338.8,604.9,340.1,605.2,340.1,605.4z M340.1,631.6v3.6c0,0.3-1.3,0.5-3.8,0.8c-0.2,0.5-0.5,0.9-0.8,1.3c0.9,1.9,1.3,3.1,1.3,3.5
			c0,0.1,0,0.1-0.1,0.2c-2.1,1.2-3.1,1.8-3.2,1.8s-0.5-0.4-1.2-1.2c-0.6-0.8-1.1-1.4-1.3-1.7c-0.3,0-0.6,0-0.8,0s-0.4,0-0.8,0
			c-0.2,0.4-0.7,0.9-1.3,1.7c-0.6,0.8-1,1.2-1.2,1.2c0,0-1.1-0.6-3.2-1.8c-0.1-0.1-0.1-0.1-0.1-0.2c0-0.4,0.4-1.6,1.3-3.5
			c-0.3-0.4-0.6-0.9-0.8-1.3c-2.5-0.3-3.8-0.5-3.8-0.8v-3.6c0-0.3,1.3-0.5,3.8-0.8c0.2-0.5,0.5-0.9,0.8-1.3
			c-0.9-1.9-1.3-3.1-1.3-3.5c0-0.1,0-0.1,0.1-0.2c0.1,0,0.4-0.2,0.9-0.5s1-0.6,1.5-0.9c0.5-0.3,0.7-0.4,0.8-0.4
			c0.1,0,0.5,0.4,1.2,1.2s1.1,1.4,1.3,1.7c0.3,0,0.6-0.1,0.8-0.1s0.4,0,0.8,0.1c0.9-1.2,1.7-2.2,2.4-2.9l0.2-0.1
			c0.1,0,1.1,0.6,3.2,1.8c0.1,0.1,0.1,0.1,0.1,0.2c0,0.4-0.4,1.6-1.3,3.5c0.3,0.4,0.5,0.8,0.8,1.3
			C338.8,631.1,340.1,631.4,340.1,631.6z M333.6,607.2c0-0.9-0.3-1.7-1-2.3s-1.4-1-2.3-1s-1.7,0.3-2.3,1c-0.7,0.6-1,1.4-1,2.3
			c0,0.9,0.3,1.7,1,2.3c0.6,0.6,1.4,1,2.3,1s1.7-0.3,2.3-1C333.2,608.9,333.6,608.1,333.6,607.2z M333.6,633.4c0-0.9-0.3-1.7-1-2.3
			c-0.6-0.6-1.4-1-2.3-1s-1.7,0.3-2.3,1c-0.7,0.6-1,1.4-1,2.3c0,0.9,0.3,1.7,1,2.3c0.6,0.6,1.4,1,2.3,1s1.7-0.3,2.3-1
			C333.2,635.1,333.6,634.3,333.6,633.4z"/>
	</g>
	<g>
		<path fill="#3BC462" d="M899.6,624.2c0,4.5-1.2,8.6-3.6,12.3c-0.3,0.5-0.8,0.7-1.4,0.7h-35.8c-0.6,0-1.1-0.2-1.4-0.7
			c-2.4-3.8-3.6-7.9-3.6-12.3c0-3.1,0.6-6.1,1.8-8.9c1.2-2.8,2.8-5.3,4.9-7.3c2-2,4.5-3.7,7.3-4.9s5.8-1.8,8.9-1.8
			c3.1,0,6.1,0.6,8.9,1.8s5.3,2.8,7.3,4.9c2,2,3.7,4.5,4.9,7.3S899.6,621.1,899.6,624.2z M862.7,626.5c0.6-0.6,1-1.4,1-2.3
			c0-0.9-0.3-1.7-1-2.3c-0.6-0.6-1.4-1-2.3-1c-0.9,0-1.7,0.3-2.3,1c-0.6,0.6-1,1.4-1,2.3c0,0.9,0.3,1.7,1,2.3c0.6,0.6,1.4,1,2.3,1
			C861.3,627.4,862,627.1,862.7,626.5z M867.6,615c0.6-0.6,1-1.4,1-2.3c0-0.9-0.3-1.7-1-2.3c-0.6-0.6-1.4-1-2.3-1
			c-0.9,0-1.7,0.3-2.3,1c-0.6,0.6-1,1.4-1,2.3c0,0.9,0.3,1.7,1,2.3c0.6,0.6,1.4,1,2.3,1C866.2,616,866.9,615.7,867.6,615z
			 M879.5,625l2.6-9.8c0.1-0.4,0-0.9-0.2-1.2c-0.2-0.4-0.6-0.6-1-0.8c-0.4-0.1-0.8-0.1-1.2,0.2c-0.4,0.2-0.6,0.6-0.8,1l-2.6,9.8
			c-1,0.1-1.9,0.5-2.7,1.1c-0.8,0.7-1.3,1.5-1.6,2.5c-0.3,1.3-0.2,2.6,0.5,3.7c0.7,1.2,1.7,1.9,3,2.3c1.3,0.3,2.6,0.2,3.7-0.5
			c1.2-0.7,1.9-1.7,2.3-3c0.3-1,0.2-2-0.2-3C880.9,626.4,880.3,625.6,879.5,625z M879,610.1c0.6-0.6,1-1.4,1-2.3
			c0-0.9-0.3-1.7-1-2.3c-0.6-0.6-1.4-1-2.3-1c-0.9,0-1.7,0.3-2.3,1c-0.6,0.6-1,1.4-1,2.3c0,0.9,0.3,1.7,1,2.3c0.6,0.6,1.4,1,2.3,1
			S878.4,610.8,879,610.1z M890.5,615c0.6-0.6,1-1.4,1-2.3c0-0.9-0.3-1.7-1-2.3c-0.6-0.6-1.4-1-2.3-1c-0.9,0-1.7,0.3-2.3,1
			c-0.6,0.6-1,1.4-1,2.3c0,0.9,0.3,1.7,1,2.3c0.6,0.6,1.4,1,2.3,1S889.8,615.7,890.5,615z M895.4,626.5c0.6-0.6,1-1.4,1-2.3
			c0-0.9-0.3-1.7-1-2.3c-0.6-0.6-1.4-1-2.3-1c-0.9,0-1.7,0.3-2.3,1c-0.6,0.6-1,1.4-1,2.3c0,0.9,0.3,1.7,1,2.3c0.6,0.6,1.4,1,2.3,1
			C894,627.4,894.7,627.1,895.4,626.5z"/>
	</g>
	<g>
		<g>
			<path fill="#3BC462" d="M168.7,205.7c0,0.7-0.3,1.3-0.8,1.8l-19.6,19.6l-3.7,3.7c-0.5,0.5-1.1,0.8-1.8,0.8s-1.3-0.3-1.8-0.8
				l-3.7-3.7l-9.8-9.8c-0.5-0.5-0.8-1.1-0.8-1.8s0.3-1.3,0.8-1.8l3.7-3.7c0.5-0.5,1.1-0.8,1.8-0.8s1.3,0.3,1.8,0.8l8,8l17.8-17.8
				c0.5-0.5,1.1-0.8,1.8-0.8s1.3,0.3,1.8,0.8l3.7,3.7C168.5,204.4,168.7,205,168.7,205.7z"/>
		</g>
		<g>
			<path fill="#3BC462" d="M409.5,210.3v5.2c0,0.7-0.3,1.3-0.8,1.8s-1.1,0.8-1.8,0.8h-11.3v11.3c0,0.7-0.3,1.3-0.8,1.8
				s-1.1,0.8-1.8,0.8h-5.2c-0.7,0-1.3-0.3-1.8-0.8s-0.8-1.1-0.8-1.8v-11.3H374c-0.7,0-1.3-0.3-1.8-0.8s-0.8-1.1-0.8-1.8v-5.2
				c0-0.7,0.3-1.3,0.8-1.8s1.1-0.8,1.8-0.8h11.3v-11.3c0-0.7,0.3-1.3,0.8-1.8s1.1-0.8,1.8-0.8h5.2c0.7,0,1.3,0.3,1.8,0.8
				s0.8,1.1,0.8,1.8v11.3H407c0.7,0,1.3,0.3,1.8,0.8C409.2,209,409.5,209.6,409.5,210.3z"/>
		</g>
		<g>
			<path fill="#3BC462" d="M644.3,222.5c0,2.8-0.9,5.1-2.7,7.1s-4.1,3.2-7,3.7v4.7c0,0.3-0.1,0.5-0.2,0.6c-0.2,0.2-0.4,0.2-0.6,0.2
				H630c-0.2,0-0.4-0.1-0.6-0.3c-0.2-0.2-0.3-0.4-0.3-0.6v-4.7c-1.2-0.2-2.3-0.4-3.5-0.8c-1.1-0.4-2-0.8-2.7-1.2s-1.4-0.8-2-1.3
				s-1-0.8-1.3-1c-0.2-0.2-0.4-0.4-0.5-0.5c-0.3-0.4-0.3-0.7-0.1-1.1l2.8-3.7c0.1-0.2,0.3-0.3,0.6-0.3s0.5,0,0.6,0.2l0.1,0.1
				c2,1.8,4.2,2.9,6.6,3.4c0.7,0.1,1.3,0.2,2,0.2c1.5,0,2.7-0.4,3.9-1.2c1.1-0.8,1.7-1.9,1.7-3.3c0-0.5-0.1-1-0.4-1.4
				c-0.3-0.5-0.6-0.8-0.9-1.1c-0.3-0.3-0.9-0.6-1.6-1c-0.7-0.4-1.3-0.7-1.8-0.9s-1.2-0.5-2.2-0.9c-0.7-0.3-1.3-0.5-1.7-0.7
				s-1-0.4-1.7-0.7s-1.3-0.6-1.7-0.8s-0.9-0.6-1.5-1s-1.1-0.8-1.4-1.2c-0.4-0.4-0.8-0.8-1.2-1.3s-0.7-1-1-1.6
				c-0.2-0.5-0.4-1.1-0.6-1.8c-0.2-0.7-0.2-1.4-0.2-2.1c0-2.5,0.9-4.7,2.7-6.6c1.8-1.9,4.1-3.1,6.9-3.6v-4.9c0-0.2,0.1-0.4,0.3-0.6
				c0.2-0.2,0.4-0.3,0.6-0.3h3.7c0.3,0,0.5,0.1,0.6,0.2c0.2,0.2,0.2,0.4,0.2,0.6v4.8c1,0.1,2,0.3,3,0.6s1.8,0.6,2.4,0.9
				c0.6,0.3,1.2,0.6,1.7,1s0.9,0.6,1.1,0.8c0.2,0.1,0.3,0.3,0.4,0.4c0.3,0.3,0.4,0.7,0.1,1l-2.2,4c-0.1,0.3-0.4,0.4-0.6,0.4
				c-0.3,0.1-0.5,0-0.7-0.2c-0.1-0.1-0.2-0.2-0.4-0.3c-0.2-0.2-0.6-0.4-1.1-0.7s-1-0.6-1.6-0.9c-0.6-0.3-1.2-0.5-2-0.7
				s-1.6-0.3-2.3-0.3c-1.7,0-3.1,0.4-4.2,1.2c-1.1,0.8-1.6,1.8-1.6,3c0,0.5,0.1,0.9,0.2,1.3c0.2,0.4,0.4,0.8,0.8,1.1
				c0.4,0.4,0.7,0.7,1.1,0.9c0.3,0.2,0.8,0.5,1.5,0.8s1.2,0.6,1.6,0.7c0.4,0.2,1,0.4,1.9,0.7c1,0.4,1.7,0.6,2.2,0.9
				c0.5,0.2,1.2,0.5,2.1,0.9c0.9,0.4,1.5,0.8,2,1.2c0.5,0.3,1.1,0.8,1.7,1.4c0.6,0.6,1.1,1.1,1.4,1.7c0.3,0.6,0.6,1.3,0.9,2.1
				C644.1,220.7,644.3,221.6,644.3,222.5z"/>
		</g>
		<g>
			<path fill="#3BC462" d="M1054.1,194.7c0,4.5-0.7,8.4-2,11.7c-1.4,3.3-3.7,6.5-6.9,9.8c-1.5,1.4-3.2,3-5.3,4.8l-0.5,10.3
				c0,0.3-0.2,0.5-0.4,0.7l-10.4,6.1c-0.1,0.1-0.3,0.1-0.4,0.1c-0.2,0-0.4-0.1-0.6-0.2l-1.7-1.7c-0.2-0.3-0.3-0.5-0.2-0.9l2.3-7.5
				l-7.6-7.6l-7.5,2.3c-0.1,0-0.1,0-0.2,0c-0.3,0-0.5-0.1-0.6-0.2l-1.7-1.7c-0.3-0.3-0.4-0.7-0.1-1.1l6.1-10.4
				c0.2-0.3,0.4-0.4,0.7-0.4l10.3-0.5c1.7-2.1,3.3-3.8,4.8-5.3c3.4-3.4,6.6-5.7,9.7-7s7-1.9,11.7-1.9c0.3,0,0.5,0.1,0.7,0.3
				C1054,194.3,1054.1,194.5,1054.1,194.7z M1047.3,204.4c0.5-0.5,0.8-1.1,0.8-1.8s-0.3-1.3-0.8-1.8s-1.1-0.8-1.8-0.8
				c-0.7,0-1.3,0.3-1.8,0.8s-0.8,1.1-0.8,1.8s0.3,1.3,0.8,1.8s1.1,0.8,1.8,0.8C1046.1,205.1,1046.7,204.9,1047.3,204.4z"/>
		</g>
	</g>
	<g>
		<path d="M307.5,462v-12l-5,12h-1.2l-4.9-12v12h-2.8v-16.2h4l4.4,10.7l4.4-10.7h4V462H307.5z"/>
		<path d="M320.8,462v-1.3c-0.9,1-2.2,1.6-3.8,1.6c-1.9,0-4.1-1.3-4.1-3.9c0-2.7,2.2-3.8,4.1-3.8c1.6,0,2.9,0.5,3.8,1.5v-1.7
			c0-1.4-1.1-2.2-2.7-2.2c-1.3,0-2.4,0.5-3.5,1.5l-1-1.8c1.4-1.3,3.1-1.9,4.9-1.9c2.6,0,4.9,1.1,4.9,4.2v7.8L320.8,462L320.8,462z
			 M320.8,459.3v-1.8c-0.6-0.8-1.7-1.2-2.8-1.2c-1.4,0-2.5,0.8-2.5,2.1c0,1.3,1.1,2.1,2.5,2.1C319.1,460.5,320.2,460.1,320.8,459.3z
			"/>
		<path d="M326.7,462v-11.7h2.5v1.7c0.9-1.1,2.3-2,3.8-2v2.5c-0.2-0.1-0.5-0.1-0.8-0.1c-1.1,0-2.5,0.7-3,1.6v8H326.7z"/>
		<path d="M344.3,462v-12.5l-2.6,2.7l-1.6-1.7l4.7-4.7h2.5V462H344.3z"/>
		<path d="M350.1,462v-2.2c6.3-4.8,8.7-6.9,8.7-9.2c0-1.7-1.5-2.5-2.9-2.5c-1.9,0-3.3,0.8-4.4,1.9l-1.6-1.9c1.4-1.7,3.7-2.6,6-2.6
			c3.1,0,5.9,1.8,5.9,5c0,3-2.7,5.7-7.1,8.9h7.2v2.5h-11.8V462z"/>
		<path fill="#079B3C" d="M292.6,493.8c0-5.2,4.6-9.6,9.6-9.6c4.6,0,7.6,3.4,7.6,7.5c0,4-2.5,5.9-4.5,5.9c-1.4,0-2.2-0.9-2.3-1.9
			v-0.1c-0.8,1.2-2.2,2-3.6,2c-2.3,0-3.7-1.7-3.7-4c0-3.3,2.7-6,5.6-6c1.5,0,2.6,0.8,3.1,1.7l0.3-1.4h2.3l-1.3,6.2
			c0,0.1,0,0.4,0,0.6c0,0.8,0.4,1.2,1,1.2c0.9,0,2.4-1.1,2.4-4.1c0-3.9-2.7-6.6-6.8-6.6c-4.6,0-8.6,4.1-8.6,8.6
			c0,3.9,2.9,6.8,6.9,6.8c1.7,0,3.2-0.5,4.5-1.3l0.5,0.7c-1.5,1-3.2,1.5-5,1.5C295.9,501.4,292.6,498.1,292.6,493.8z M303.3,494
			l0.7-3.1c-0.3-0.6-1-1.5-2.2-1.5c-2.1,0-3.7,2-3.7,4c0,1.4,0.8,2.4,2.2,2.4S302.7,494.9,303.3,494z"/>
		<path fill="#079B3C" d="M312.4,499.7V488h2.5v1.7c0.9-1.1,2.3-2,3.8-2v2.5c-0.2-0.1-0.5-0.1-0.8-0.1c-1.1,0-2.5,0.7-3,1.6v8H312.4
			z"/>
		<path fill="#079B3C" d="M320.5,485c0-0.9,0.7-1.6,1.6-1.6s1.6,0.7,1.6,1.6s-0.7,1.6-1.6,1.6S320.5,485.9,320.5,485z M320.8,499.7
			V488h2.5v11.7H320.8z"/>
		<path fill="#079B3C" d="M327.2,497v-6.8h-1.9V488h1.9v-3.2h2.5v3.2h2.4v2.2h-2.4v6.1c0,0.8,0.4,1.4,1.1,1.4c0.5,0,0.9-0.2,1.1-0.4
			l0.6,1.9c-0.5,0.4-1.2,0.8-2.4,0.8C328.2,500,327.2,499,327.2,497z"/>
		<path fill="#079B3C" d="M341.5,499.7v-1.3c-0.9,1-2.2,1.6-3.8,1.6c-1.9,0-4.1-1.3-4.1-3.9c0-2.7,2.2-3.8,4.1-3.8
			c1.6,0,2.9,0.5,3.8,1.5v-1.7c0-1.4-1.1-2.2-2.7-2.2c-1.3,0-2.4,0.5-3.5,1.5l-1-1.8c1.4-1.3,3.1-1.9,4.9-1.9c2.6,0,4.9,1.1,4.9,4.2
			v7.8L341.5,499.7L341.5,499.7z M341.5,497.1v-1.8c-0.6-0.8-1.7-1.2-2.8-1.2c-1.4,0-2.5,0.8-2.5,2.1c0,1.3,1.1,2.1,2.5,2.1
			C339.9,498.3,341,497.9,341.5,497.1z"/>
		<path fill="#079B3C" d="M346.5,487.2c0-2.8,2-4.7,4.6-4.7c1.4,0,2.5,0.6,3.3,1.6l-0.6,0.4c-0.6-0.8-1.6-1.3-2.6-1.3
			c-2.1,0-3.7,1.6-3.7,4c0,2.3,1.6,4,3.7,4c1.1,0,2.1-0.5,2.6-1.3l0.6,0.4c-0.8,1-1.8,1.6-3.3,1.6
			C348.5,491.8,346.5,489.9,346.5,487.2z"/>
		<path fill="#079B3C" d="M355.9,491.6v-9h5.7v0.7h-4.9v3.3h4.8v0.7h-4.8v3.6h4.9v0.7L355.9,491.6L355.9,491.6z"/>
		<path fill="#079B3C" d="M363.2,487.2c0-2.6,1.7-4.7,4.4-4.7c2.6,0,4.4,2,4.4,4.7c0,2.6-1.7,4.7-4.4,4.7
			C364.9,491.8,363.2,489.8,363.2,487.2z M371.1,487.2c0-2.3-1.4-4-3.6-4s-3.6,1.7-3.6,4s1.4,4,3.6,4
			C369.7,491.1,371.1,489.4,371.1,487.2z"/>
		<path d="M388.4,499.7v-1.4c-1,1.1-2.4,1.7-4,1.7c-2,0-4.1-1.4-4.1-3.9s2.1-3.9,4.1-3.9c1.6,0,3,0.5,4,1.7v-2.4
			c0-1.7-1.4-2.7-3.2-2.7c-1.5,0-2.6,0.5-3.7,1.7l-0.7-0.9c1.2-1.3,2.6-2,4.5-2c2.4,0,4.3,1.1,4.3,3.8v8.2L388.4,499.7L388.4,499.7z
			 M388.4,497.4v-2.6c-0.8-1.1-2.1-1.6-3.5-1.6c-1.9,0-3.2,1.2-3.2,2.9c0,1.6,1.3,2.9,3.2,2.9C386.2,499,387.6,498.5,388.4,497.4z"
			/>
		<path d="M401.5,499.7v-7.9c0-2.3-1.1-2.9-2.8-2.9c-1.5,0-3.1,0.9-3.8,2v8.9h-1.3V488h1.3v1.8c0.8-1,2.5-2.1,4.2-2.1
			c2.4,0,3.7,1.2,3.7,3.8v8.2L401.5,499.7L401.5,499.7z"/>
		<path d="M415.3,499.7v-1.9c-0.8,1.2-2.3,2.2-4.1,2.2c-3.1,0-5.2-2.4-5.2-6.1s2.1-6.2,5.2-6.2c1.7,0,3.1,0.8,4.1,2.2v-6.4h1.3v16.2
			L415.3,499.7L415.3,499.7z M415.3,496.8V491c-0.7-1.1-2.2-2.1-3.9-2.1c-2.6,0-4.1,2.2-4.1,5s1.5,5,4.1,5
			C413.1,498.9,414.6,497.9,415.3,496.8z"/>
		<path fill="#079B3C" d="M425.7,493.8c0-5.2,4.6-9.6,9.6-9.6c4.6,0,7.6,3.4,7.6,7.5c0,4-2.5,5.9-4.5,5.9c-1.4,0-2.2-0.9-2.3-1.9
			v-0.1c-0.8,1.2-2.2,2-3.6,2c-2.3,0-3.7-1.7-3.7-4c0-3.3,2.7-6,5.6-6c1.5,0,2.6,0.8,3.1,1.7l0.3-1.4h2.3l-1.3,6.2
			c0,0.1,0,0.4,0,0.6c0,0.8,0.4,1.2,1,1.2c0.9,0,2.4-1.1,2.4-4.1c0-3.9-2.7-6.6-6.8-6.6c-4.6,0-8.6,4.1-8.6,8.6
			c0,3.9,2.9,6.8,6.9,6.8c1.7,0,3.2-0.5,4.5-1.3l0.5,0.7c-1.5,1-3.2,1.5-5,1.5C429,501.4,425.7,498.1,425.7,493.8z M436.4,494
			l0.7-3.1c-0.3-0.6-1-1.5-2.2-1.5c-2.1,0-3.7,2-3.7,4c0,1.4,0.8,2.4,2.2,2.4C434.7,495.8,435.7,494.9,436.4,494z"/>
		<path fill="#079B3C" d="M445.2,485c0-0.9,0.7-1.6,1.6-1.6s1.6,0.7,1.6,1.6s-0.7,1.6-1.6,1.6C445.9,486.6,445.2,485.9,445.2,485z
			 M445.5,499.7V488h2.5v11.7H445.5z"/>
		<path fill="#079B3C" d="M454.4,499.7l-4.8-11.7h2.7l3.4,8.8l3.4-8.8h2.7l-4.8,11.7H454.4z"/>
		<path fill="#079B3C" d="M470.7,499.7v-1.3c-0.9,1-2.2,1.6-3.8,1.6c-1.9,0-4.1-1.3-4.1-3.9c0-2.7,2.2-3.8,4.1-3.8
			c1.6,0,2.9,0.5,3.8,1.5v-1.7c0-1.4-1.1-2.2-2.7-2.2c-1.3,0-2.4,0.5-3.5,1.5l-1-1.8c1.4-1.3,3.1-1.9,4.9-1.9c2.6,0,4.9,1.1,4.9,4.2
			v7.8L470.7,499.7L470.7,499.7z M470.7,497.1v-1.8c-0.6-0.8-1.7-1.2-2.8-1.2c-1.4,0-2.5,0.8-2.5,2.1c0,1.3,1.1,2.1,2.5,2.1
			C469,498.3,470.1,497.9,470.7,497.1z"/>
		<path fill="#079B3C" d="M484.4,499.7v-7.3c0-1.8-0.9-2.4-2.4-2.4c-1.3,0-2.4,0.8-3,1.6v8.2h-2.5V488h2.5v1.6
			c0.8-0.9,2.3-1.9,4.1-1.9c2.5,0,3.8,1.4,3.8,3.8v8.2H484.4z"/>
		<path fill="#079B3C" d="M489.7,491.6v-9h2.9c2.8,0,4.5,2,4.5,4.5s-1.8,4.5-4.5,4.5H489.7z M496.3,487.2c0-2.1-1.4-3.8-3.7-3.8
			h-2.1v7.6h2.1C495,490.9,496.3,489.3,496.3,487.2z"/>
		<path fill="#079B3C" d="M499.1,491.6v-9h5.7v0.7h-4.9v3.3h4.8v0.7h-4.8v3.6h4.9v0.7L499.1,491.6L499.1,491.6z"/>
		<path fill="#079B3C" d="M506.2,490.4l0.5-0.6c0.6,0.7,1.5,1.3,2.8,1.3c1.8,0,2.4-1,2.4-1.8c0-2.6-5.4-1.3-5.4-4.4
			c0-1.5,1.3-2.4,3-2.4c1.3,0,2.3,0.5,3,1.3l-0.5,0.6c-0.6-0.8-1.6-1.1-2.6-1.1c-1.2,0-2.1,0.7-2.1,1.7c0,2.3,5.4,1,5.4,4.4
			c0,1.2-0.8,2.6-3.2,2.6C508,491.8,506.8,491.2,506.2,490.4z"/>
		<path fill="#079B3C" d="M514.5,491.6v-9h0.8v9H514.5z"/>
		<path fill="#079B3C" d="M517.2,487.2c0-2.8,2-4.7,4.6-4.7c1.5,0,2.6,0.6,3.4,1.5l-0.6,0.4c-0.6-0.8-1.7-1.3-2.8-1.3
			c-2.1,0-3.7,1.6-3.7,4c0,2.3,1.6,4,3.7,4c1.2,0,2.1-0.6,2.6-1.1v-2.2H521v-0.7h4.2v3.1c-0.8,0.9-2,1.5-3.4,1.5
			C519.2,491.8,517.2,489.9,517.2,487.2z"/>
		<path fill="#079B3C" d="M533.5,491.6l-5.7-7.7v7.7H527v-9h0.8l5.6,7.6v-7.6h0.8v9H533.5z"/>
		<path d="M301.2,526.7v-1.4c-1,1.1-2.4,1.7-4,1.7c-2,0-4.1-1.4-4.1-3.9s2.1-3.9,4.1-3.9c1.6,0,3,0.5,4,1.7v-2.4
			c0-1.7-1.4-2.7-3.2-2.7c-1.5,0-2.6,0.5-3.7,1.7l-0.7-0.9c1.2-1.3,2.6-2,4.5-2c2.4,0,4.3,1.1,4.3,3.8v8.2h-1.2V526.7z M301.2,524.4
			v-2.6c-0.8-1.1-2.1-1.6-3.5-1.6c-1.9,0-3.2,1.2-3.2,2.9c0,1.6,1.3,2.9,3.2,2.9C299,526,300.3,525.4,301.2,524.4z"/>
		<path d="M306.4,526.7V515h1.3v2c1-1.3,2.3-2.3,4-2.3v1.4c-0.2,0-0.4,0-0.6,0c-1.2,0-2.8,1.1-3.3,2.1v8.5H306.4z"/>
		<path d="M313.4,520.8c0-3.4,2.4-6.1,5.7-6.1c3.6,0,5.5,2.8,5.5,6.2v0.3h-9.8c0.1,2.5,1.8,4.7,4.6,4.7c1.5,0,2.8-0.6,3.8-1.6
			l0.7,0.8c-1.2,1.2-2.6,1.9-4.6,1.9C315.8,527,313.4,524.4,313.4,520.8z M319,515.8c-2.8,0-4.1,2.4-4.2,4.5h8.5
			C323.2,518.2,321.9,515.8,319,515.8z"/>
		<path d="M334.1,526.7v-16.2h1.3v6.4c0.9-1.3,2.4-2.2,4.1-2.2c3.1,0,5.2,2.5,5.2,6.2c0,3.8-2.1,6.1-5.2,6.1c-1.7,0-3.2-0.9-4.1-2.2
			v1.9H334.1z M339.2,525.8c2.6,0,4.1-2.2,4.1-5s-1.5-5-4.1-5c-1.6,0-3.2,1-3.9,2.1v5.8C336,524.9,337.6,525.8,339.2,525.8z"/>
		<path d="M355.8,526.7V525c-1,1.1-2.5,2-4.2,2c-2.4,0-3.7-1.1-3.7-3.8V515h1.3v8c0,2.3,1.1,2.9,2.8,2.9c1.5,0,3-0.9,3.8-1.9v-9h1.3
			v11.7H355.8z"/>
		<path d="M360.7,512.1c0-0.5,0.5-0.9,1-0.9s1,0.4,1,0.9s-0.4,1-1,1S360.7,512.7,360.7,512.1z M361,526.7V515h1.3v11.7H361z"/>
		<path d="M366.2,526.7v-16.2h1.3v16.2H366.2z"/>
		<path d="M380,526.7v-1.9c-0.8,1.2-2.3,2.2-4.1,2.2c-3.1,0-5.2-2.4-5.2-6.1c0-3.7,2.1-6.2,5.2-6.2c1.7,0,3.1,0.8,4.1,2.2v-6.4h1.3
			v16.2H380z M380,523.7v-5.8c-0.7-1.1-2.2-2.1-3.9-2.1c-2.6,0-4.1,2.2-4.1,5s1.5,5,4.1,5C377.8,525.8,379.4,524.9,380,523.7z"/>
		<path d="M384.9,512.1c0-0.5,0.5-0.9,1-0.9s1,0.4,1,0.9s-0.4,1-1,1C385.4,513.1,384.9,512.7,384.9,512.1z M385.2,526.7V515h1.3
			v11.7H385.2z"/>
		<path d="M398.4,526.7v-7.9c0-2.3-1.1-2.9-2.8-2.9c-1.5,0-3.1,0.9-3.8,2v8.9h-1.3V515h1.3v1.8c0.8-1,2.5-2.1,4.2-2.1
			c2.4,0,3.7,1.2,3.7,3.8v8.2H398.4z"/>
		<path d="M403.6,529.7l0.7-1c1,1.2,2.1,1.7,3.9,1.7c2.1,0,4-1.1,4-3.8v-1.8c-0.8,1.2-2.3,2.2-4.1,2.2c-3.1,0-5.2-2.4-5.2-6.1
			c0-3.7,2.1-6.1,5.2-6.1c1.7,0,3.1,0.8,4.1,2.2v-2h1.3v11.6c0,3.6-2.4,4.9-5.3,4.9C406.2,531.4,404.9,531.1,403.6,529.7z
			 M412.2,523.6v-5.7c-0.7-1.1-2.2-2.1-3.9-2.1c-2.6,0-4.1,2.2-4.1,5s1.5,5,4.1,5C409.9,525.8,411.5,524.8,412.2,523.6z"/>
		<path d="M423.9,524.4v-8.3H422V515h1.9v-3.2h1.3v3.2h2.4v1.1h-2.4v8.2c0,0.9,0.4,1.6,1.2,1.6c0.6,0,1-0.3,1.3-0.6l0.5,1
			c-0.5,0.4-1,0.7-2,0.7C424.6,527,423.9,526,423.9,524.4z"/>
		<path d="M438.2,526.7v-8c0-2.3-1.1-2.9-2.8-2.9c-1.5,0-3.1,0.9-3.8,2v8.9h-1.3v-16.2h1.3v6.2c0.8-1,2.5-2.1,4.2-2.1
			c2.4,0,3.7,1.1,3.7,3.8v8.2L438.2,526.7L438.2,526.7z"/>
		<path d="M442.7,520.8c0-3.4,2.4-6.1,5.7-6.1c3.6,0,5.5,2.8,5.5,6.2v0.3h-9.8c0.1,2.5,1.8,4.7,4.6,4.7c1.5,0,2.8-0.6,3.8-1.6
			l0.7,0.8c-1.2,1.2-2.6,1.9-4.6,1.9C445.2,527,442.7,524.4,442.7,520.8z M448.4,515.8c-2.8,0-4.1,2.4-4.2,4.5h8.5
			C452.6,518.2,451.3,515.8,448.4,515.8z"/>
		<path d="M463.9,526.7v-10.6H462V515h1.9v-1.1c0-2.3,1.2-3.6,3.2-3.6c0.6,0,1.1,0.1,1.6,0.4l-0.4,1c-0.3-0.2-0.6-0.3-1.1-0.3
			c-1.3,0-2,0.9-2,2.5v1.1h2.4v1.1h-2.4v10.6L463.9,526.7L463.9,526.7z M469.5,512.1c0-0.5,0.5-0.9,1-0.9s1,0.4,1,0.9s-0.4,1-1,1
			C470,513.1,469.5,512.7,469.5,512.1z M469.9,526.7V515h1.3v11.7H469.9z"/>
		<path d="M475,526.7V515h1.3v2c1-1.3,2.3-2.3,4-2.3v1.4c-0.2,0-0.4,0-0.6,0c-1.2,0-2.8,1.1-3.3,2.1v8.5H475z"/>
		<path d="M481.7,525.1l0.7-0.9c0.8,0.9,2.1,1.7,3.8,1.7c2,0,3.1-1,3.1-2.4c0-3.2-7.4-1.4-7.4-5.6c0-1.8,1.5-3.3,4.2-3.3
			c2,0,3.3,0.8,4.2,1.7l-0.7,0.9c-0.7-0.9-1.9-1.6-3.5-1.6c-1.8,0-2.9,0.9-2.9,2.1c0,2.9,7.4,1.1,7.4,5.7c0,1.9-1.5,3.4-4.4,3.4
			C484.3,527,482.9,526.4,481.7,525.1z"/>
		<path d="M494.1,524.4v-8.3h-1.9V515h1.9v-3.2h1.3v3.2h2.4v1.1h-2.4v8.2c0,0.9,0.4,1.6,1.2,1.6c0.6,0,1-0.3,1.3-0.6l0.5,1
			c-0.5,0.4-1,0.7-2,0.7C494.8,527,494.1,526,494.1,524.4z"/>
		<path d="M295,551.7v6.4h-1.3v-16.2h1.3v1.8c0.8-1.2,2.3-2.1,4.1-2.1c3.1,0,5.2,2.4,5.2,6.1c0,3.7-2.1,6.2-5.2,6.2
			C297.4,553.9,295.9,553.1,295,551.7z M302.9,547.8c0-2.8-1.5-5-4.1-5c-1.6,0-3.2,1-3.9,2.1v5.8c0.7,1.1,2.2,2.1,3.9,2.1
			C301.5,552.8,302.9,550.6,302.9,547.8z"/>
		<path d="M307.5,553.6v-11.7h1.3v2c1-1.3,2.3-2.3,4-2.3v1.4c-0.2,0-0.4,0-0.6,0c-1.2,0-2.8,1.1-3.3,2.1v8.5H307.5z"/>
		<path d="M314.5,547.8c0-3.4,2.2-6.1,5.6-6.1c3.5,0,5.7,2.7,5.7,6.1c0,3.4-2.2,6.2-5.7,6.2C316.7,553.9,314.5,551.2,314.5,547.8z
			 M324.4,547.8c0-2.6-1.5-5-4.3-5c-2.7,0-4.3,2.4-4.3,5s1.6,5,4.3,5C322.9,552.8,324.4,550.4,324.4,547.8z"/>
		<path d="M329.2,551.4V543h-1.9v-1.1h1.9v-3.2h1.3v3.2h2.4v1.1h-2.4v8.2c0,0.9,0.4,1.6,1.2,1.6c0.6,0,1-0.3,1.3-0.6l0.5,1
			c-0.5,0.4-1,0.7-2,0.7C330,553.9,329.2,553,329.2,551.4z"/>
		<path d="M335,547.8c0-3.4,2.2-6.1,5.6-6.1c3.5,0,5.7,2.7,5.7,6.1c0,3.4-2.2,6.2-5.7,6.2C337.2,553.9,335,551.2,335,547.8z
			 M344.9,547.8c0-2.6-1.5-5-4.3-5c-2.7,0-4.3,2.4-4.3,5s1.6,5,4.3,5C343.4,552.8,344.9,550.4,344.9,547.8z"/>
		<path d="M349.8,551.4V543h-1.9v-1.1h1.9v-3.2h1.3v3.2h2.4v1.1h-2.4v8.2c0,0.9,0.4,1.6,1.2,1.6c0.6,0,1-0.3,1.3-0.6l0.5,1
			c-0.5,0.4-1,0.7-2,0.7C350.5,553.9,349.8,553,349.8,551.4z"/>
		<path d="M355.6,557c0.3,0.1,0.7,0.2,1,0.2c0.8,0,1.3-0.3,1.8-1.4l0.9-2.1l-4.9-11.8h1.4l4.3,10.2l4.2-10.2h1.4l-6.1,14.3
			c-0.6,1.5-1.6,2.2-3,2.2c-0.4,0-0.9-0.1-1.2-0.2L355.6,557z"/>
		<path d="M369.1,551.7v6.4h-1.3v-16.2h1.3v1.8c0.8-1.2,2.3-2.1,4.1-2.1c3.1,0,5.2,2.4,5.2,6.1c0,3.7-2.1,6.2-5.2,6.2
			C371.5,553.9,370.1,553.1,369.1,551.7z M377.1,547.8c0-2.8-1.5-5-4.1-5c-1.6,0-3.2,1-3.9,2.1v5.8c0.7,1.1,2.2,2.1,3.9,2.1
			C375.6,552.8,377.1,550.6,377.1,547.8z"/>
		<path d="M380.9,547.8c0-3.4,2.4-6.1,5.7-6.1c3.6,0,5.5,2.8,5.5,6.2v0.3h-9.8c0.1,2.5,1.8,4.7,4.6,4.7c1.5,0,2.8-0.6,3.8-1.6
			l0.7,0.8c-1.2,1.2-2.6,1.9-4.6,1.9C383.4,553.9,380.9,551.4,380.9,547.8z M386.6,542.7c-2.8,0-4.1,2.4-4.2,4.5h8.5
			C390.8,545.2,389.5,542.7,386.6,542.7z"/>
	</g>
	<g>
		<path d="M854.9,453.9c0-4.8,3.4-8.4,8.3-8.4c4.9,0,8.3,3.5,8.3,8.4c0,4.8-3.4,8.4-8.3,8.4C858.4,462.3,854.9,458.8,854.9,453.9z
			 M868.6,453.9c0-3.3-2.1-5.8-5.4-5.8c-3.3,0-5.4,2.5-5.4,5.8s2.1,5.8,5.4,5.8C866.5,459.8,868.6,457.2,868.6,453.9z"/>
		<path d="M873.4,456.1c0-3.5,2.5-6.1,6.1-6.1c2.3,0,3.7,1,4.5,2.1l-1.7,1.6c-0.7-0.9-1.6-1.4-2.7-1.4c-2.1,0-3.5,1.6-3.5,3.9
			s1.4,3.9,3.5,3.9c1.1,0,2-0.5,2.7-1.4l1.7,1.6c-0.8,1.1-2.2,2.1-4.5,2.1C875.9,462.3,873.4,459.7,873.4,456.1z"/>
		<path d="M886.7,459.3v-6.8h-1.9v-2.2h1.9v-3.2h2.5v3.2h2.4v2.2h-2.4v6.1c0,0.8,0.4,1.4,1.1,1.4c0.5,0,0.9-0.2,1.1-0.4l0.6,1.9
			c-0.5,0.4-1.2,0.8-2.4,0.8C887.7,462.3,886.7,461.2,886.7,459.3z"/>
		<path d="M903.2,462v-12.5l-2.6,2.7l-1.6-1.7l4.7-4.7h2.5V462H903.2z"/>
		<path d="M908.9,462v-2.2c6.3-4.8,8.7-6.9,8.7-9.2c0-1.7-1.5-2.5-2.9-2.5c-1.9,0-3.3,0.8-4.4,1.9l-1.6-1.9c1.4-1.7,3.7-2.6,6-2.6
			c3.1,0,5.9,1.8,5.9,5c0,3-2.7,5.7-7.1,8.9h7.2v2.5h-11.8V462z"/>
		<path d="M856,499.7v-16.2h1.4v16.2H856z"/>
		<path d="M869.2,499.7v-7.9c0-2.3-1.1-2.9-2.8-2.9c-1.5,0-3.1,0.9-3.8,2v8.9h-1.3V488h1.3v1.8c0.8-1,2.5-2.1,4.2-2.1
			c2.4,0,3.7,1.2,3.7,3.8v8.2L869.2,499.7L869.2,499.7z"/>
		<path d="M874.1,485.2c0-0.5,0.5-0.9,1-0.9s1,0.4,1,0.9s-0.4,1-1,1S874.1,485.7,874.1,485.2z M874.4,499.7V488h1.3v11.7H874.4z"/>
		<path d="M879.8,497.5v-8.3h-1.9V488h1.9v-3.2h1.3v3.2h2.4v1.1h-2.4v8.2c0,0.9,0.4,1.6,1.2,1.6c0.6,0,1-0.3,1.3-0.6l0.5,1
			c-0.5,0.4-1,0.7-2,0.7C880.6,500,879.8,499.1,879.8,497.5z"/>
		<path d="M885.9,485.2c0-0.5,0.5-0.9,1-0.9s1,0.4,1,0.9s-0.4,1-1,1C886.4,486.2,885.9,485.7,885.9,485.2z M886.3,499.7V488h1.3
			v11.7H886.3z"/>
		<path d="M898.9,499.7v-1.4c-1,1.1-2.4,1.7-4,1.7c-2,0-4.1-1.4-4.1-3.9s2.1-3.9,4.1-3.9c1.6,0,3,0.5,4,1.7v-2.4
			c0-1.7-1.4-2.7-3.2-2.7c-1.5,0-2.6,0.5-3.7,1.7l-0.7-0.9c1.2-1.3,2.6-2,4.5-2c2.4,0,4.3,1.1,4.3,3.8v8.2L898.9,499.7L898.9,499.7z
			 M898.9,497.4v-2.6c-0.8-1.1-2.1-1.6-3.5-1.6c-1.9,0-3.2,1.2-3.2,2.9c0,1.6,1.3,2.9,3.2,2.9C896.8,499,898.1,498.5,898.9,497.4z"
			/>
		<path d="M904.1,499.7v-16.2h1.3v16.2H904.1z"/>
		<path fill="#079B3C" d="M919.5,499.7l1.4-4.2h-2.5l-1.4,4.2h-1.9l1.4-4.2h-2.4l0.5-1.7h2.5l1.4-4.4H916l0.5-1.6h2.5l1.4-4.3h1.9
			l-1.4,4.3h2.5l1.4-4.3h1.9l-1.4,4.3h2.4l-0.5,1.6h-2.5l-1.5,4.4h2.5l-0.5,1.7h-2.6l-1.4,4.2H919.5z M922.9,489.5h-2.4l-1.4,4.4
			h2.4L922.9,489.5z"/>
		<path fill="#079B3C" d="M930.5,497v-6.8h-1.9V488h1.9v-3.2h2.5v3.2h2.4v2.2H933v6.1c0,0.8,0.4,1.4,1.1,1.4c0.5,0,0.9-0.2,1.1-0.4
			l0.6,1.9c-0.5,0.4-1.2,0.8-2.4,0.8C931.5,500,930.5,499,930.5,497z"/>
		<path fill="#079B3C" d="M937.7,499.7V488h2.5v1.7c0.9-1.1,2.3-2,3.8-2v2.5c-0.2-0.1-0.5-0.1-0.8-0.1c-1.1,0-2.5,0.7-3,1.6v8H937.7
			z"/>
		<path fill="#079B3C" d="M953.3,499.7v-1.3c-0.9,1-2.2,1.6-3.8,1.6c-1.9,0-4.1-1.3-4.1-3.9c0-2.7,2.2-3.8,4.1-3.8
			c1.6,0,2.9,0.5,3.8,1.5v-1.7c0-1.4-1.1-2.2-2.7-2.2c-1.3,0-2.4,0.5-3.5,1.5l-1-1.8c1.4-1.3,3.1-1.9,4.9-1.9c2.6,0,4.9,1.1,4.9,4.2
			v7.8L953.3,499.7L953.3,499.7z M953.3,497.1v-1.8c-0.6-0.8-1.7-1.2-2.8-1.2c-1.4,0-2.5,0.8-2.5,2.1c0,1.3,1.1,2.1,2.5,2.1
			C951.6,498.3,952.7,497.9,953.3,497.1z"/>
		<path fill="#079B3C" d="M958.4,493.9c0-3.5,2.5-6.1,6.1-6.1c2.3,0,3.7,1,4.5,2.1l-1.7,1.6c-0.7-0.9-1.6-1.4-2.7-1.4
			c-2.1,0-3.5,1.6-3.5,3.9s1.4,3.9,3.5,3.9c1.1,0,2-0.5,2.7-1.4l1.7,1.6c-0.8,1.1-2.2,2.1-4.5,2.1
			C960.9,500,958.4,497.4,958.4,493.9z"/>
		<path fill="#079B3C" d="M971.7,497v-6.8h-1.9V488h1.9v-3.2h2.5v3.2h2.4v2.2h-2.4v6.1c0,0.8,0.4,1.4,1.1,1.4c0.5,0,0.9-0.2,1.1-0.4
			l0.6,1.9c-0.5,0.4-1.2,0.8-2.4,0.8C972.7,500,971.7,499,971.7,497z"/>
		<path fill="#079B3C" d="M978.6,485c0-0.9,0.7-1.6,1.6-1.6c0.9,0,1.6,0.7,1.6,1.6s-0.7,1.6-1.6,1.6S978.6,485.9,978.6,485z
			 M978.9,499.7V488h2.5v11.7H978.9z"/>
		<path fill="#079B3C" d="M984,493.9c0-3.3,2.3-6.1,6-6.1c3.8,0,6,2.8,6,6.1c0,3.4-2.3,6.2-6,6.2C986.3,500,984,497.2,984,493.9z
			 M993.4,493.9c0-2.1-1.2-3.9-3.4-3.9s-3.4,1.8-3.4,3.9s1.2,3.9,3.4,3.9S993.4,495.9,993.4,493.9z"/>
		<path fill="#079B3C" d="M1006.5,499.7v-7.3c0-1.8-0.9-2.4-2.4-2.4c-1.3,0-2.4,0.8-3,1.6v8.2h-2.5V488h2.5v1.6
			c0.8-0.9,2.3-1.9,4.1-1.9c2.5,0,3.8,1.4,3.8,3.8v8.2H1006.5z"/>
		<path d="M855.9,526.7V515h1.3v2c1-1.3,2.3-2.3,4-2.3v1.4c-0.2,0-0.4,0-0.6,0c-1.2,0-2.8,1.1-3.3,2.1v8.5H855.9z"/>
		<path d="M862.9,520.8c0-3.4,2.4-6.1,5.7-6.1c3.6,0,5.5,2.8,5.5,6.2v0.3h-9.8c0.1,2.5,1.8,4.7,4.6,4.7c1.5,0,2.8-0.6,3.8-1.6
			l0.7,0.8c-1.2,1.2-2.6,1.9-4.6,1.9C865.4,527,862.9,524.4,862.9,520.8z M868.5,515.8c-2.8,0-4.1,2.4-4.2,4.5h8.5
			C872.8,518.2,871.5,515.8,868.5,515.8z"/>
		<path d="M884.8,526.7v-1.4c-1,1.1-2.4,1.7-4,1.7c-2,0-4.1-1.4-4.1-3.9s2.1-3.9,4.1-3.9c1.6,0,3,0.5,4,1.7v-2.4
			c0-1.7-1.4-2.7-3.2-2.7c-1.5,0-2.6,0.5-3.7,1.7l-0.7-0.9c1.2-1.3,2.6-2,4.5-2c2.4,0,4.3,1.1,4.3,3.8v8.2h-1.2V526.7z M884.8,524.4
			v-2.6c-0.8-1.1-2.1-1.6-3.5-1.6c-1.9,0-3.2,1.2-3.2,2.9c0,1.6,1.3,2.9,3.2,2.9C882.7,526,884,525.4,884.8,524.4z"/>
		<path d="M889.3,520.8c0-3.4,2.3-6.1,5.7-6.1c2,0,3.2,0.8,4.1,2l-0.9,0.8c-0.8-1.2-1.9-1.6-3.2-1.6c-2.7,0-4.4,2.2-4.4,5
			s1.7,5,4.4,5c1.3,0,2.4-0.5,3.2-1.7l0.9,0.8c-0.9,1.2-2.1,2-4.1,2C891.6,527,889.3,524.2,889.3,520.8z"/>
		<path d="M909.9,526.7v-8c0-2.3-1.1-2.9-2.8-2.9c-1.5,0-3.1,0.9-3.8,2v8.9H902v-16.2h1.3v6.2c0.8-1,2.5-2.1,4.2-2.1
			c2.4,0,3.7,1.1,3.7,3.8v8.2L909.9,526.7L909.9,526.7z"/>
		<path d="M914.4,520.8c0-3.4,2.4-6.1,5.7-6.1c3.6,0,5.5,2.8,5.5,6.2v0.3h-9.8c0.1,2.5,1.8,4.7,4.6,4.7c1.5,0,2.8-0.6,3.8-1.6
			l0.7,0.8c-1.2,1.2-2.6,1.9-4.6,1.9C916.8,527,914.4,524.4,914.4,520.8z M920,515.8c-2.8,0-4.1,2.4-4.2,4.5h8.5
			C924.2,518.2,922.9,515.8,920,515.8z"/>
		<path d="M927.8,525.1l0.7-0.9c0.8,0.9,2.1,1.7,3.8,1.7c2,0,3.1-1,3.1-2.4c0-3.2-7.4-1.4-7.4-5.6c0-1.8,1.5-3.3,4.2-3.3
			c2,0,3.3,0.8,4.2,1.7l-0.7,0.9c-0.7-0.9-1.9-1.6-3.5-1.6c-1.8,0-2.9,0.9-2.9,2.1c0,2.9,7.4,1.1,7.4,5.7c0,1.9-1.5,3.4-4.4,3.4
			C930.4,527,929,526.4,927.8,525.1z"/>
		<path d="M948.3,526.7v-14.3l-2.6,2.8l-0.8-0.9l3.6-3.8h1.3v16.2H948.3z"/>
		<path d="M953.1,518.6c0-3.9,1.6-8.3,6-8.3c4.3,0,6,4.5,6,8.3s-1.6,8.4-6,8.4C954.8,527,953.1,522.4,953.1,518.6z M963.6,518.6
			c0-3.3-1.1-7.1-4.5-7.1s-4.5,3.7-4.5,7.1c0,3.3,1.1,7.1,4.5,7.1C962.5,525.7,963.6,521.9,963.6,518.6z"/>
		<path d="M967.9,518.6c0-3.9,1.6-8.3,6-8.3c4.3,0,6,4.5,6,8.3s-1.7,8.4-6,8.4C969.5,527,967.9,522.4,967.9,518.6z M978.4,518.6
			c0-3.3-1.1-7.1-4.5-7.1s-4.5,3.7-4.5,7.1c0,3.3,1.1,7.1,4.5,7.1C977.2,525.7,978.4,521.9,978.4,518.6z"/>
		<path d="M990.7,524.8v6.4h-1.3V515h1.3v1.8c0.8-1.2,2.3-2.1,4.1-2.1c3.1,0,5.2,2.4,5.2,6.1c0,3.7-2.1,6.2-5.2,6.2
			C993.2,527,991.7,526.1,990.7,524.8z M998.7,520.8c0-2.8-1.5-5-4.1-5c-1.6,0-3.2,1-3.9,2.1v5.8c0.7,1.1,2.2,2.1,3.9,2.1
			C997.2,525.8,998.7,523.6,998.7,520.8z"/>
		<path d="M1010.7,526.7v-1.4c-1,1.1-2.4,1.7-4,1.7c-2,0-4.1-1.4-4.1-3.9s2.1-3.9,4.1-3.9c1.6,0,3,0.5,4,1.7v-2.4
			c0-1.7-1.4-2.7-3.2-2.7c-1.5,0-2.6,0.5-3.7,1.7l-0.7-0.9c1.2-1.3,2.6-2,4.5-2c2.4,0,4.3,1.1,4.3,3.8v8.2h-1.2V526.7z
			 M1010.7,524.4v-2.6c-0.8-1.1-2.1-1.6-3.5-1.6c-1.9,0-3.2,1.2-3.2,2.9c0,1.6,1.3,2.9,3.2,2.9
			C1008.5,526,1009.8,525.4,1010.7,524.4z"/>
		<path d="M1015.5,512.1c0-0.5,0.5-0.9,1-0.9s1,0.4,1,0.9s-0.4,1-1,1C1016,513.1,1015.5,512.7,1015.5,512.1z M1015.9,526.7V515h1.3
			v11.7H1015.9z"/>
		<path d="M1029.7,526.7v-1.9c-0.8,1.2-2.3,2.2-4.1,2.2c-3.1,0-5.2-2.4-5.2-6.1c0-3.7,2.1-6.2,5.2-6.2c1.7,0,3.1,0.8,4.1,2.2v-6.4
			h1.3v16.2H1029.7z M1029.7,523.7v-5.8c-0.7-1.1-2.2-2.1-3.9-2.1c-2.6,0-4.1,2.2-4.1,5s1.5,5,4.1,5
			C1027.5,525.8,1029,524.9,1029.7,523.7z"/>
		<path d="M855.2,547.8c0-3.4,2.3-6.1,5.7-6.1c2,0,3.2,0.8,4.1,2l-0.9,0.8c-0.8-1.2-1.9-1.6-3.2-1.6c-2.7,0-4.4,2.2-4.4,5
			s1.7,5,4.4,5c1.3,0,2.4-0.5,3.2-1.7l0.9,0.8c-0.9,1.2-2.1,2-4.1,2C857.5,553.9,855.2,551.2,855.2,547.8z"/>
		<path d="M875.8,553.6v-1.7c-1,1.1-2.5,2-4.2,2c-2.4,0-3.7-1.1-3.7-3.8v-8.3h1.3v8c0,2.3,1.1,2.9,2.8,2.9c1.5,0,3-0.9,3.8-1.9v-8.9
			h1.3v11.7H875.8z"/>
		<path d="M880,552.1l0.7-0.9c0.8,0.9,2.1,1.7,3.8,1.7c2,0,3.1-1,3.1-2.4c0-3.2-7.4-1.4-7.4-5.6c0-1.8,1.5-3.3,4.2-3.3
			c2,0,3.3,0.8,4.2,1.7l-0.7,0.9c-0.7-0.9-1.9-1.6-3.5-1.6c-1.8,0-2.9,0.9-2.9,2.1c0,2.9,7.4,1.1,7.4,5.7c0,1.9-1.5,3.4-4.4,3.4
			C882.6,553.9,881.1,553.4,880,552.1z"/>
		<path d="M892.4,551.4V543h-1.9v-1.1h1.9v-3.2h1.3v3.2h2.4v1.1h-2.4v8.2c0,0.9,0.4,1.6,1.2,1.6c0.6,0,1-0.3,1.3-0.6l0.5,1
			c-0.5,0.4-1,0.7-2,0.7C893.1,553.9,892.4,553,892.4,551.4z"/>
		<path d="M898.1,547.8c0-3.4,2.2-6.1,5.6-6.1c3.5,0,5.7,2.7,5.7,6.1c0,3.4-2.2,6.2-5.7,6.2C900.3,553.9,898.1,551.2,898.1,547.8z
			 M908,547.8c0-2.6-1.5-5-4.3-5c-2.7,0-4.3,2.4-4.3,5s1.6,5,4.3,5C906.5,552.8,908,550.4,908,547.8z"/>
		<path d="M926.6,553.6v-8.2c0-1.7-0.7-2.7-2.4-2.7c-1.3,0-2.7,0.9-3.3,2v8.9h-1.3v-8.2c0-1.7-0.7-2.7-2.4-2.7c-1.2,0-2.6,0.9-3.3,2
			v8.9h-1.3v-11.7h1.3v1.8c0.5-0.8,2.1-2.1,3.8-2.1c1.8,0,2.8,1.1,3.1,2.2c0.7-1.1,2.2-2.2,3.9-2.2c2.2,0,3.2,1.2,3.2,3.6v8.4H926.6
			z"/>
		<path d="M931.1,547.8c0-3.4,2.4-6.1,5.7-6.1c3.6,0,5.5,2.8,5.5,6.2v0.3h-9.8c0.1,2.5,1.8,4.7,4.6,4.7c1.5,0,2.8-0.6,3.8-1.6
			l0.7,0.8c-1.2,1.2-2.6,1.9-4.6,1.9C933.5,553.9,931.1,551.4,931.1,547.8z M936.7,542.7c-2.8,0-4.1,2.4-4.2,4.5h8.5
			C941,545.2,939.6,542.7,936.7,542.7z"/>
		<path d="M945.5,553.6v-11.7h1.3v2c1-1.3,2.3-2.3,4-2.3v1.4c-0.2,0-0.4,0-0.6,0c-1.2,0-2.8,1.1-3.3,2.1v8.5H945.5z"/>
		<path d="M952.2,552.1l0.8-0.9c0.8,0.9,2.1,1.7,3.8,1.7c2,0,3.1-1,3.1-2.4c0-3.2-7.4-1.4-7.4-5.6c0-1.8,1.5-3.3,4.2-3.3
			c2,0,3.3,0.8,4.2,1.7l-0.7,0.9c-0.7-0.9-1.9-1.6-3.5-1.6c-1.8,0-2.9,0.9-2.9,2.1c0,2.9,7.4,1.1,7.4,5.7c0,1.9-1.5,3.4-4.4,3.4
			C954.8,553.9,953.4,553.4,952.2,552.1z"/>
	</g>
	<g>
		<path d="M384.8,298.5l-1.2-3.1h-7.4l-1.2,3.1h-3.2l6.4-16.2h3.5l6.4,16.2H384.8z M379.9,285.2l-2.9,7.7h5.8L379.9,285.2z"/>
		<path d="M392.2,296.9v6.1h-2.5v-16.2h2.5v1.6c0.9-1.2,2.2-1.9,3.8-1.9c3,0,5.2,2.3,5.2,6.1c0,3.9-2.2,6.2-5.2,6.2
			C394.5,298.8,393.2,298.2,392.2,296.9z M398.6,292.6c0-2.3-1.3-3.9-3.3-3.9c-1.2,0-2.4,0.7-3,1.6v4.6c0.6,0.8,1.8,1.6,3,1.6
			C397.3,296.5,398.6,294.9,398.6,292.6z"/>
		<path d="M403.7,298.5v-11.7h2.5v1.7c0.9-1.1,2.3-2,3.8-2v2.5c-0.2,0-0.5-0.1-0.8-0.1c-1.1,0-2.5,0.7-3,1.6v8H403.7z"/>
		<path d="M421.4,298.5V286l-2.6,2.7l-1.6-1.7l4.7-4.7h2.5v16.2H421.4z"/>
		<path d="M427.1,298.5v-2.2c6.3-4.8,8.7-6.9,8.7-9.2c0-1.7-1.5-2.5-2.9-2.5c-1.9,0-3.3,0.8-4.4,1.9l-1.6-1.9c1.4-1.7,3.7-2.6,6-2.6
			c3.1,0,5.9,1.8,5.9,5c0,3-2.7,5.7-7.1,8.9h7.2v2.5h-11.8V298.5z"/>
		<path fill="#079B3C" d="M372.6,330.3c0-5.2,4.6-9.6,9.6-9.6c4.6,0,7.6,3.4,7.6,7.5c0,4-2.5,5.9-4.5,5.9c-1.4,0-2.2-0.9-2.3-1.9
			v-0.1c-0.8,1.2-2.2,2-3.6,2c-2.3,0-3.7-1.7-3.7-4c0-3.3,2.7-6,5.6-6c1.5,0,2.6,0.8,3.1,1.7l0.3-1.4h2.3l-1.3,6.2
			c0,0.1,0,0.4,0,0.6c0,0.8,0.4,1.2,1,1.2c0.9,0,2.4-1.1,2.4-4.1c0-3.9-2.7-6.6-6.8-6.6c-4.6,0-8.6,4.1-8.6,8.6
			c0,3.9,2.9,6.8,6.9,6.8c1.7,0,3.2-0.5,4.5-1.3l0.5,0.7c-1.5,1-3.2,1.5-5,1.5C375.9,337.9,372.6,334.6,372.6,330.3z M383.3,330.5
			l0.7-3.1c-0.3-0.6-1-1.5-2.2-1.5c-2.1,0-3.7,2-3.7,4c0,1.4,0.8,2.4,2.2,2.4C381.6,332.4,382.6,331.4,383.3,330.5z"/>
		<path fill="#079B3C" d="M400.6,336.2v-1.6c-0.9,1.2-2.3,1.9-3.8,1.9c-3,0-5.2-2.3-5.2-6.1c0-3.8,2.2-6.2,5.2-6.2
			c1.5,0,2.8,0.7,3.8,1.9V320h2.5v16.2L400.6,336.2L400.6,336.2z M400.6,332.7V328c-0.6-0.9-1.8-1.6-3-1.6c-2,0-3.3,1.6-3.3,3.9
			s1.3,3.9,3.3,3.9C398.8,334.3,400,333.6,400.6,332.7z"/>
		<path fill="#079B3C" d="M413.6,336.2V335c-0.9,1-2.2,1.6-3.8,1.6c-1.9,0-4.1-1.3-4.1-3.9c0-2.7,2.2-3.8,4.1-3.8
			c1.6,0,2.9,0.5,3.8,1.5v-1.7c0-1.4-1.1-2.2-2.7-2.2c-1.3,0-2.5,0.5-3.5,1.5l-1-1.8c1.4-1.3,3.1-1.9,4.9-1.9c2.6,0,4.9,1.1,4.9,4.2
			v7.8h-2.6V336.2z M413.6,333.6v-1.8c-0.6-0.8-1.7-1.2-2.8-1.2c-1.4,0-2.5,0.8-2.5,2.1c0,1.3,1.1,2.1,2.5,2.1
			C411.9,334.8,413,334.4,413.6,333.6z"/>
		<path fill="#079B3C" d="M422.5,336.2l-4.8-11.7h2.7l3.4,8.8l3.4-8.8h2.7l-4.8,11.7H422.5z"/>
		<path fill="#079B3C" d="M431.3,321.5c0-0.9,0.7-1.6,1.6-1.6s1.6,0.7,1.6,1.6s-0.7,1.6-1.6,1.6
			C432.1,323.1,431.3,322.4,431.3,321.5z M431.7,336.2v-11.7h2.5v11.7H431.7z"/>
		<path fill="#079B3C" d="M445.8,336.2v-1.6c-0.9,1.2-2.3,1.9-3.8,1.9c-3,0-5.2-2.3-5.2-6.1c0-3.8,2.2-6.2,5.2-6.2
			c1.5,0,2.8,0.7,3.8,1.9V320h2.5v16.2L445.8,336.2L445.8,336.2z M445.8,332.7V328c-0.6-0.9-1.8-1.6-3-1.6c-2,0-3.3,1.6-3.3,3.9
			s1.3,3.9,3.3,3.9C443.9,334.3,445.2,333.6,445.8,332.7z"/>
		<path d="M453.9,340.1l0.6-1c0.4,0.4,1,0.8,1.7,0.8c1.1,0,2-0.6,2-2.2v-13.2h1.3v13.2c0,2.2-1.2,3.2-3.2,3.2
			C455.2,341,454.6,340.7,453.9,340.1z M457.9,321.7c0-0.5,0.5-0.9,1-0.9s1,0.4,1,0.9s-0.4,1-1,1S457.9,322.2,457.9,321.7z"/>
		<path d="M462.7,330.4c0-3.4,2.2-6.1,5.6-6.1c3.5,0,5.7,2.7,5.7,6.1s-2.2,6.2-5.7,6.2C464.9,336.5,462.7,333.8,462.7,330.4z
			 M472.6,330.4c0-2.6-1.5-5-4.3-5c-2.7,0-4.3,2.4-4.3,5s1.6,5,4.3,5C471.1,335.4,472.6,333,472.6,330.4z"/>
		<path d="M476.9,321.7c0-0.5,0.5-0.9,1-0.9s1,0.4,1,0.9s-0.4,1-1,1C477.4,322.7,476.9,322.2,476.9,321.7z M477.2,336.2v-11.7h1.3
			v11.7H477.2z"/>
		<path d="M490.3,336.2v-7.9c0-2.3-1.1-2.9-2.8-2.9c-1.5,0-3.1,0.9-3.8,2v8.9h-1.3v-11.7h1.3v1.8c0.8-1,2.5-2.1,4.2-2.1
			c2.4,0,3.7,1.2,3.7,3.8v8.2L490.3,336.2L490.3,336.2z"/>
		<path d="M494.5,334.7l0.7-0.9c0.8,0.9,2.1,1.7,3.8,1.7c2,0,3.1-1,3.1-2.4c0-3.2-7.4-1.4-7.4-5.6c0-1.8,1.5-3.3,4.2-3.3
			c2,0,3.3,0.8,4.2,1.7l-0.7,0.9c-0.7-0.9-1.9-1.6-3.5-1.6c-1.8,0-2.9,0.9-2.9,2.1c0,2.9,7.4,1.1,7.4,5.7c0,1.9-1.5,3.4-4.4,3.4
			C497.1,336.5,495.7,336,494.5,334.7z"/>
		<path d="M381.1,363.2v-1.4c-1,1.1-2.4,1.7-4,1.7c-2,0-4.1-1.4-4.1-3.9s2.1-3.9,4.1-3.9c1.6,0,3,0.5,4,1.7V355
			c0-1.7-1.4-2.7-3.2-2.7c-1.5,0-2.6,0.5-3.7,1.7l-0.7-0.9c1.2-1.3,2.6-2,4.5-2c2.4,0,4.3,1.1,4.3,3.8v8.2h-1.2V363.2z M381.1,360.9
			v-2.6c-0.8-1.1-2.1-1.6-3.5-1.6c-1.9,0-3.2,1.2-3.2,2.9c0,1.6,1.3,2.9,3.2,2.9C379,362.5,380.3,362,381.1,360.9z"/>
		<path d="M385.3,361.6l0.8-0.9c0.8,0.9,2.1,1.7,3.8,1.7c2,0,3.1-1,3.1-2.4c0-3.2-7.4-1.4-7.4-5.6c0-1.8,1.5-3.3,4.2-3.3
			c2,0,3.3,0.8,4.2,1.7l-0.7,0.9c-0.7-0.9-1.9-1.6-3.5-1.6c-1.8,0-2.9,0.9-2.9,2.1c0,2.9,7.4,1.1,7.4,5.7c0,1.9-1.5,3.4-4.4,3.4
			C387.9,363.5,386.5,362.9,385.3,361.6z"/>
		<path d="M403.2,355.1c0-5,3.6-8.4,8.2-8.4c2.6,0,4.5,1.1,5.9,2.9l-1.2,0.7c-1-1.4-2.8-2.4-4.7-2.4c-3.8,0-6.7,2.9-6.7,7.1
			s2.9,7.1,6.7,7.1c1.9,0,3.7-0.9,4.7-2.4l1.2,0.7c-1.4,1.8-3.3,2.9-5.9,2.9C406.8,363.5,403.2,360.1,403.2,355.1z"/>
		<path d="M424.2,363.2v-14.9h-5.3V347h12v1.3h-5.3v14.9L424.2,363.2L424.2,363.2z"/>
		<path d="M432.5,355.1c0-4.7,3.1-8.4,7.9-8.4c4.7,0,7.9,3.6,7.9,8.4c0,4.7-3.1,8.4-7.9,8.4S432.5,359.8,432.5,355.1z M446.7,355.1
			c0-4.1-2.5-7.1-6.4-7.1s-6.4,3-6.4,7.1s2.5,7.1,6.4,7.1S446.7,359.2,446.7,355.1z"/>
	</g>
	<g>
		<path d="M613.7,297.1l1.3-2.2c0.7,0.7,1.5,1.3,2.8,1.3c1.7,0,2.8-1.2,2.8-2.9v-11h2.8v11.1c0,3.7-2.3,5.4-5.5,5.4
			C616.3,298.8,614.8,298.3,613.7,297.1z"/>
		<path d="M634.7,298.5V297c-0.8,0.9-2.3,1.8-4.1,1.8c-2.5,0-3.8-1.3-3.8-3.7v-8.3h2.5v7.4c0,1.8,0.9,2.4,2.4,2.4
			c1.3,0,2.4-0.7,3-1.5v-8.2h2.5v11.7L634.7,298.5L634.7,298.5z"/>
		<path d="M640.6,298.5v-16.2h2.5v16.2H640.6z"/>
		<path d="M655.7,298.5V286l-2.6,2.7l-1.7-1.7l4.7-4.7h2.5v16.2H655.7z"/>
		<path d="M661.4,298.5v-2.2c6.3-4.8,8.7-6.9,8.7-9.2c0-1.7-1.5-2.5-2.9-2.5c-1.9,0-3.3,0.8-4.4,1.9l-1.7-1.9c1.4-1.7,3.7-2.6,6-2.6
			c3.1,0,5.9,1.8,5.9,5c0,3-2.7,5.7-7.1,8.9h7.2v2.5h-11.7V298.5z"/>
		<path fill="#079B3C" d="M619.4,336.2l1.4-4.2h-2.5l-1.4,4.2H615l1.4-4.2H614l0.5-1.7h2.5l1.4-4.4h-2.5l0.5-1.6h2.5l1.4-4.3h1.9
			l-1.4,4.3h2.4l1.4-4.3h1.9l-1.4,4.3h2.5l-0.5,1.6h-2.5l-1.5,4.4h2.5l-0.5,1.7h-2.6l-1.4,4.2H619.4z M622.8,326h-2.5l-1.4,4.4h2.4
			L622.8,326z"/>
		<path fill="#079B3C" d="M628.8,334.7l1.2-1.8c0.8,0.8,2.4,1.6,4,1.6c1.5,0,2.3-0.7,2.3-1.6c0-2.3-7.1-0.7-7.1-5.1
			c0-1.9,1.6-3.6,4.6-3.6c2,0,3.5,0.7,4.6,1.7l-1.1,1.8c-0.7-0.8-2-1.4-3.5-1.4c-1.3,0-2.2,0.6-2.2,1.4c0,2.1,7.1,0.5,7.1,5.2
			c0,2.1-1.7,3.6-4.9,3.6C631.9,336.5,630,335.9,628.8,334.7z"/>
		<path fill="#079B3C" d="M640.6,330.4c0-3.4,2.5-6.1,5.9-6.1c3.5,0,5.8,2.7,5.8,6.4v0.6h-9c0.2,1.8,1.5,3.2,3.7,3.2
			c1.1,0,2.5-0.5,3.3-1.3l1.2,1.7c-1.2,1.1-2.9,1.7-4.8,1.7C643.2,336.5,640.6,334.1,640.6,330.4z M646.5,326.3
			c-2.2,0-3.2,1.7-3.3,3.1h6.6C649.8,328,648.8,326.3,646.5,326.3z"/>
		<path fill="#079B3C" d="M654.1,330.4c0-3.4,2.5-6.1,5.9-6.1c3.5,0,5.8,2.7,5.8,6.4v0.6h-9.1c0.2,1.8,1.5,3.2,3.7,3.2
			c1.1,0,2.5-0.5,3.3-1.3l1.2,1.7c-1.2,1.1-2.9,1.7-4.8,1.7C656.7,336.5,654.1,334.1,654.1,330.4z M660,326.3
			c-2.2,0-3.2,1.7-3.3,3.1h6.6C663.3,328,662.3,326.3,660,326.3z"/>
		<path fill="#079B3C" d="M676.6,336.2v-1.6c-0.9,1.2-2.3,1.9-3.8,1.9c-3,0-5.2-2.3-5.2-6.1c0-3.8,2.2-6.2,5.2-6.2
			c1.5,0,2.8,0.7,3.8,1.9V320h2.5v16.2L676.6,336.2L676.6,336.2z M676.6,332.7V328c-0.6-0.9-1.8-1.6-3-1.6c-2,0-3.3,1.6-3.3,3.9
			s1.3,3.9,3.3,3.9C674.8,334.3,676,333.6,676.6,332.7z"/>
		<path d="M693.7,336.5c-2.5-0.1-4.3-1.1-5.5-2.5l0.9-1c1,1.1,2.5,2.2,4.6,2.3v-6.8c-2.5-0.7-5-1.5-5-4.3c0-2.5,2.2-4.2,5-4.3v-2.2
			h1.1v2.2c2,0.2,3.6,1,4.7,2.3l-0.9,1c-1-1.2-2.3-1.8-3.8-2v6.1c2.5,0.7,5.1,1.6,5.1,4.7c0,2-1.3,4.3-5.1,4.6v2.2h-1.1V336.5z
			 M693.7,326.9v-5.8c-2,0.1-3.5,1.3-3.5,3C690.2,325.7,691.8,326.4,693.7,326.9z M694.8,328.8v6.5c2.8-0.2,3.6-1.9,3.6-3.2
			C698.4,330.1,696.7,329.4,694.8,328.8z"/>
		<path d="M703,333.9l0.9-0.9c1,1.5,2.5,2.3,4.5,2.3c2.3,0,4.1-1.7,4.1-3.9c0-2.4-1.7-4-4-4c-1.5,0-2.7,0.5-3.9,1.6l-1-0.4v-8.5h9.3
			v1.3h-8v6.3c0.8-0.8,2.2-1.5,3.9-1.5c2.7,0,5.2,1.8,5.2,5.2c0,3.2-2.5,5.2-5.5,5.2C705.8,336.5,704.1,335.5,703,333.9z"/>
		<path d="M717.1,333.9l0.9-0.9c1,1.5,2.5,2.3,4.5,2.3c2.3,0,4.1-1.7,4.1-3.9c0-2.4-1.7-4-4-4c-1.5,0-2.7,0.5-3.9,1.6l-1-0.4v-8.5
			h9.3v1.3h-8v6.3c0.8-0.8,2.2-1.5,3.9-1.5c2.7,0,5.2,1.8,5.2,5.2c0,3.2-2.5,5.2-5.5,5.2C719.9,336.5,718.2,335.5,717.1,333.9z"/>
		<path d="M741.3,336.2l-6.7-7.6l-1.8,2v5.7h-1.4v-16.2h1.4v8.9l7.8-8.9h1.8l-6.9,7.7l7.5,8.5h-1.7V336.2z"/>
		<path d="M751.9,336.2v-11.7h1.3v2c1-1.3,2.3-2.3,4-2.3v1.4c-0.2,0-0.4,0-0.6,0c-1.2,0-2.8,1.1-3.3,2.1v8.5H751.9z"/>
		<path d="M767,336.2v-1.4c-1,1.1-2.4,1.7-4,1.7c-2,0-4.1-1.4-4.1-3.9s2.1-3.9,4.1-3.9c1.6,0,3,0.5,4,1.7V328c0-1.7-1.4-2.7-3.2-2.7
			c-1.5,0-2.6,0.5-3.7,1.7l-0.7-0.9c1.2-1.3,2.6-2,4.5-2c2.4,0,4.3,1.1,4.3,3.8v8.2H767V336.2z M767,333.9v-2.6
			c-0.8-1.1-2.1-1.6-3.5-1.6c-1.9,0-3.2,1.2-3.2,2.9c0,1.6,1.3,2.9,3.2,2.9C764.9,335.5,766.2,335,767,333.9z"/>
		<path d="M771.9,321.7c0-0.5,0.5-0.9,1-0.9s1,0.4,1,0.9s-0.4,1-1,1C772.3,322.7,771.9,322.2,771.9,321.7z M772.2,336.2v-11.7h1.3
			v11.7H772.2z"/>
		<path d="M776.4,334.7l0.8-0.9c0.8,0.9,2.1,1.7,3.8,1.7c2,0,3.1-1,3.1-2.4c0-3.2-7.4-1.4-7.4-5.6c0-1.8,1.5-3.3,4.2-3.3
			c2,0,3.3,0.8,4.2,1.7l-0.7,0.9c-0.7-0.9-1.9-1.6-3.5-1.6c-1.8,0-2.9,0.9-2.9,2.1c0,2.9,7.4,1.1,7.4,5.7c0,1.9-1.5,3.4-4.4,3.4
			C779,336.5,777.6,336,776.4,334.7z"/>
		<path d="M787.9,330.4c0-3.4,2.4-6.1,5.7-6.1c3.6,0,5.5,2.8,5.5,6.2v0.3h-9.8c0.1,2.5,1.8,4.7,4.6,4.7c1.5,0,2.8-0.6,3.8-1.6
			l0.7,0.8c-1.2,1.2-2.6,1.9-4.6,1.9C790.3,336.5,787.9,334,787.9,330.4z M793.5,325.3c-2.8,0-4.1,2.4-4.2,4.5h8.5
			C797.7,327.8,796.4,325.3,793.5,325.3z"/>
		<path d="M810.9,336.2v-1.9c-0.8,1.2-2.3,2.2-4.1,2.2c-3.1,0-5.2-2.4-5.2-6.1s2.1-6.2,5.2-6.2c1.7,0,3.1,0.8,4.1,2.2V320h1.3v16.2
			L810.9,336.2L810.9,336.2z M810.9,333.3v-5.8c-0.7-1.1-2.2-2.1-3.9-2.1c-2.6,0-4.1,2.2-4.1,5s1.5,5,4.1,5
			C808.7,335.4,810.3,334.4,810.9,333.3z"/>
		<path d="M622.9,363.2v-1.4c-1,1.1-2.4,1.7-4,1.7c-2,0-4.1-1.4-4.1-3.9s2.1-3.9,4.1-3.9c1.6,0,3,0.5,4,1.7V355
			c0-1.7-1.4-2.7-3.2-2.7c-1.5,0-2.6,0.5-3.7,1.7l-0.7-0.9c1.2-1.3,2.6-2,4.5-2c2.4,0,4.3,1.1,4.3,3.8v8.2h-1.2V363.2z M622.9,360.9
			v-2.6c-0.8-1.1-2.1-1.6-3.5-1.6c-1.9,0-3.2,1.2-3.2,2.9c0,1.6,1.3,2.9,3.2,2.9C620.8,362.5,622.1,362,622.9,360.9z"/>
		<path d="M628.4,360.9v-8.3h-1.9v-1.1h1.9v-3.2h1.3v3.2h2.4v1.1h-2.4v8.2c0,0.9,0.4,1.6,1.2,1.6c0.6,0,1-0.3,1.3-0.6l0.5,1
			c-0.5,0.4-1,0.7-2,0.7C629.1,363.5,628.4,362.5,628.4,360.9z"/>
		<path d="M645.7,363.5c-2.4-0.1-4.3-1.1-5.5-2.5l0.9-1c1,1.1,2.5,2.2,4.6,2.3v-6.8c-2.5-0.7-4.9-1.5-4.9-4.3c0-2.5,2.2-4.2,4.9-4.3
			v-2.2h1.1v2.2c2,0.2,3.6,1,4.7,2.3l-0.9,1c-1-1.2-2.3-1.8-3.8-2v6.1c2.5,0.7,5.1,1.6,5.1,4.7c0,2-1.3,4.3-5.1,4.6v2.2h-1.1V363.5z
			 M645.7,353.8V348c-2,0.1-3.5,1.3-3.5,3S643.8,353.3,645.7,353.8z M646.8,355.7v6.5c2.8-0.2,3.6-1.9,3.6-3.2
			C650.5,357,648.8,356.3,646.8,355.7z"/>
		<path d="M654.6,363.2V362c5.5-4.4,9.2-7.6,9.2-10.7c0-2.3-1.9-3.3-3.7-3.3c-2,0-3.6,0.9-4.4,2.1l-0.9-0.9c1.1-1.6,3.1-2.5,5.4-2.5
			c2.4,0,5.1,1.4,5.1,4.6c0,3.6-3.8,6.8-8.4,10.6h8.5v1.3H654.6z"/>
		<path d="M669.2,360.8l0.9-0.9c1,1.5,2.5,2.3,4.5,2.3c2.3,0,4.1-1.7,4.1-3.9c0-2.4-1.7-4-4-4c-1.5,0-2.7,0.5-3.9,1.6l-1-0.4V347
			h9.3v1.3h-8v6.3c0.8-0.8,2.2-1.5,3.9-1.5c2.7,0,5.2,1.8,5.2,5.2c0,3.2-2.5,5.2-5.5,5.2C671.9,363.5,670.3,362.4,669.2,360.8z"/>
		<path d="M682.9,355.1c0-3.9,1.6-8.3,6-8.3c4.3,0,6,4.5,6,8.3s-1.6,8.4-6,8.4S682.9,358.9,682.9,355.1z M693.4,355.1
			c0-3.3-1.1-7.1-4.5-7.1s-4.5,3.7-4.5,7.1c0,3.3,1.1,7.1,4.5,7.1C692.3,362.2,693.4,358.4,693.4,355.1z"/>
		<path d="M708.1,363.2l-6.7-7.6l-1.8,2v5.7h-1.4V347h1.4v8.9l7.8-8.9h1.8l-6.9,7.7l7.5,8.5H708.1z"/>
		<path d="M721.8,363.2l-4.9-11.7h1.4l4.3,10.2l4.2-10.2h1.4l-5,11.7H721.8z"/>
		<path d="M737.8,363.2v-1.4c-1,1.1-2.4,1.7-4,1.7c-2,0-4.1-1.4-4.1-3.9s2.1-3.9,4.1-3.9c1.6,0,3,0.5,4,1.7V355
			c0-1.7-1.4-2.7-3.2-2.7c-1.5,0-2.6,0.5-3.7,1.7l-0.7-0.9c1.2-1.3,2.6-2,4.5-2c2.4,0,4.3,1.1,4.3,3.8v8.2h-1.2V363.2z M737.8,360.9
			v-2.6c-0.8-1.1-2.1-1.6-3.5-1.6c-1.9,0-3.2,1.2-3.2,2.9c0,1.6,1.3,2.9,3.2,2.9C735.7,362.5,737,362,737.8,360.9z"/>
		<path d="M743,363.2V347h1.3v16.2H743z"/>
	</g>
	<g>
		<path d="M1018.2,298.5v-16.2h6c5,0,8.5,3.3,8.5,8.1c0,4.8-3.4,8.1-8.5,8.1H1018.2z M1029.8,290.4c0-3.1-1.9-5.6-5.6-5.6h-3.2V296
			h3.2C1027.7,296,1029.8,293.5,1029.8,290.4z"/>
		<path d="M1034.6,292.6c0-3.4,2.5-6.1,5.9-6.1c3.5,0,5.8,2.7,5.8,6.4v0.6h-9c0.2,1.8,1.5,3.2,3.7,3.2c1.1,0,2.5-0.5,3.3-1.3
			l1.2,1.7c-1.2,1.1-2.9,1.7-4.8,1.7C1037.2,298.8,1034.6,296.4,1034.6,292.6z M1040.6,288.6c-2.2,0-3.2,1.7-3.3,3.1h6.6
			C1043.8,290.3,1042.9,288.6,1040.6,288.6z"/>
		<path d="M1048.1,292.6c0-3.5,2.5-6.1,6.1-6.1c2.3,0,3.7,1,4.5,2.1l-1.7,1.6c-0.7-0.9-1.6-1.4-2.7-1.4c-2.1,0-3.5,1.6-3.5,3.9
			s1.4,3.9,3.5,3.9c1.1,0,2-0.5,2.7-1.4l1.7,1.6c-0.8,1.1-2.2,2.1-4.5,2.1C1050.6,298.8,1048.1,296.2,1048.1,292.6z"/>
		<path d="M1070.1,298.5V286l-2.6,2.7l-1.6-1.7l4.7-4.7h2.5v16.2H1070.1z"/>
		<path d="M1075.9,298.5v-2.2c6.3-4.8,8.7-6.9,8.7-9.2c0-1.7-1.5-2.5-2.9-2.5c-1.9,0-3.3,0.8-4.4,1.9l-1.6-1.9
			c1.4-1.7,3.7-2.6,6-2.6c3.1,0,5.9,1.8,5.9,5c0,3-2.7,5.7-7.1,8.9h7.2v2.5h-11.8V298.5z"/>
		<path d="M1017.9,328.2c0-5,3.6-8.4,8.2-8.4c2.6,0,4.5,1.1,5.9,2.9l-1.2,0.7c-1-1.4-2.8-2.4-4.7-2.4c-3.8,0-6.7,2.9-6.7,7.1
			s2.9,7.1,6.7,7.1c1.9,0,3.7-0.9,4.7-2.4l1.2,0.7c-1.4,1.8-3.3,2.9-5.9,2.9C1021.5,336.5,1017.9,333.1,1017.9,328.2z"/>
		<path d="M1034.1,330.4c0-3.4,2.2-6.1,5.6-6.1c3.5,0,5.7,2.7,5.7,6.1s-2.2,6.2-5.7,6.2C1036.3,336.5,1034.1,333.8,1034.1,330.4z
			 M1044,330.4c0-2.6-1.5-5-4.3-5c-2.7,0-4.3,2.4-4.3,5s1.6,5,4.3,5S1044,333,1044,330.4z"/>
		<path d="M1062.5,336.2V328c0-1.7-0.7-2.7-2.4-2.7c-1.3,0-2.7,0.9-3.3,2v8.9h-1.3V328c0-1.7-0.7-2.7-2.4-2.7c-1.2,0-2.6,0.9-3.3,2
			v8.9h-1.3v-11.7h1.3v1.8c0.5-0.8,2.1-2.1,3.8-2.1c1.8,0,2.8,1.1,3.1,2.2c0.7-1.1,2.2-2.2,3.9-2.2c2.2,0,3.2,1.2,3.2,3.6v8.4
			L1062.5,336.2L1062.5,336.2z"/>
		<path d="M1069,334.3v6.4h-1.3v-16.2h1.3v1.8c0.8-1.2,2.3-2.1,4.1-2.1c3.1,0,5.2,2.4,5.2,6.1s-2.1,6.2-5.2,6.2
			C1071.4,336.5,1069.9,335.7,1069,334.3z M1076.9,330.4c0-2.8-1.5-5-4.1-5c-1.6,0-3.2,1-3.9,2.1v5.8c0.7,1.1,2.2,2.1,3.9,2.1
			C1075.5,335.4,1076.9,333.2,1076.9,330.4z"/>
		<path d="M1088.9,336.2v-1.4c-1,1.1-2.4,1.7-4,1.7c-2,0-4.1-1.4-4.1-3.9s2.1-3.9,4.1-3.9c1.6,0,3,0.5,4,1.7V328
			c0-1.7-1.4-2.7-3.2-2.7c-1.5,0-2.6,0.5-3.7,1.7l-0.7-0.9c1.2-1.3,2.6-2,4.5-2c2.4,0,4.3,1.1,4.3,3.8v8.2h-1.2V336.2z
			 M1088.9,333.9v-2.6c-0.8-1.1-2.1-1.6-3.5-1.6c-1.9,0-3.2,1.2-3.2,2.9c0,1.6,1.3,2.9,3.2,2.9
			C1086.8,335.5,1088.1,335,1088.9,333.9z"/>
		<path d="M1102,336.2v-7.9c0-2.3-1.1-2.9-2.8-2.9c-1.5,0-3.1,0.9-3.8,2v8.9h-1.3v-11.7h1.3v1.8c0.9-1,2.5-2.1,4.2-2.1
			c2.4,0,3.7,1.2,3.7,3.8v8.2L1102,336.2L1102,336.2z"/>
		<path d="M1106.6,339.7c0.3,0.1,0.7,0.2,1,0.2c0.8,0,1.3-0.3,1.8-1.4l0.9-2.1l-4.9-11.8h1.4l4.3,10.2l4.2-10.2h1.4l-6.1,14.3
			c-0.6,1.5-1.6,2.2-3,2.2c-0.4,0-0.9-0.1-1.2-0.2L1106.6,339.7z"/>
		<path fill="#079B3C" d="M1129.1,336.2l1.4-4.2h-2.5l-1.4,4.2h-1.9l1.4-4.2h-2.4l0.5-1.7h2.5l1.4-4.4h-2.5l0.5-1.6h2.5l1.4-4.3h1.9
			l-1.4,4.3h2.4l1.4-4.3h1.9l-1.4,4.3h2.5l-0.5,1.6h-2.5l-1.5,4.4h2.5l-0.5,1.7h-2.6l-1.4,4.2H1129.1z M1132.5,326h-2.5l-1.4,4.4
			h2.4L1132.5,326z"/>
		<path fill="#079B3C" d="M1142.1,334.6v6.1h-2.5v-16.2h2.5v1.6c0.9-1.2,2.2-1.9,3.8-1.9c3,0,5.2,2.3,5.2,6.1c0,3.9-2.2,6.2-5.2,6.2
			C1144.4,336.5,1143,335.9,1142.1,334.6z M1148.4,330.4c0-2.3-1.3-3.9-3.3-3.9c-1.2,0-2.5,0.7-3,1.6v4.6c0.6,0.8,1.8,1.6,3,1.6
			C1147.1,334.3,1148.4,332.7,1148.4,330.4z"/>
		<path fill="#079B3C" d="M1153.2,321.5c0-0.9,0.7-1.6,1.6-1.6s1.6,0.7,1.6,1.6s-0.7,1.6-1.6,1.6
			C1154,323.1,1153.2,322.4,1153.2,321.5z M1153.5,336.2v-11.7h2.5v11.7H1153.5z"/>
		<path fill="#079B3C" d="M1162.5,336.2l-4.8-11.7h2.7l3.4,8.8l3.4-8.8h2.7l-4.8,11.7H1162.5z"/>
		<path fill="#079B3C" d="M1170.9,330.4c0-3.3,2.3-6.1,6-6.1c3.8,0,6,2.8,6,6.1c0,3.4-2.3,6.2-6,6.2
			C1173.2,336.5,1170.9,333.7,1170.9,330.4z M1180.3,330.4c0-2.1-1.2-3.9-3.4-3.9c-2.2,0-3.4,1.8-3.4,3.9s1.2,3.9,3.4,3.9
			C1179.1,334.3,1180.3,332.5,1180.3,330.4z"/>
		<path fill="#079B3C" d="M1186,333.5v-6.8h-1.9v-2.2h1.9v-3.2h2.5v3.2h2.4v2.2h-2.4v6.1c0,0.8,0.4,1.4,1.1,1.4
			c0.5,0,0.9-0.2,1.1-0.4l0.6,1.9c-0.5,0.4-1.2,0.8-2.4,0.8C1187,336.5,1186,335.5,1186,333.5z"/>
		<path fill="#079B3C" d="M1192.2,334.7l1.2-1.8c0.8,0.8,2.5,1.6,4,1.6s2.3-0.7,2.3-1.6c0-2.3-7.1-0.7-7.1-5.1
			c0-1.9,1.7-3.6,4.6-3.6c2,0,3.5,0.7,4.6,1.7l-1.1,1.8c-0.7-0.8-2-1.4-3.5-1.4c-1.3,0-2.2,0.6-2.2,1.4c0,2.1,7.1,0.5,7.1,5.2
			c0,2.1-1.7,3.6-4.9,3.6C1195.2,336.5,1193.4,335.9,1192.2,334.7z"/>
		<path d="M1025.9,363.2v-1.4c-1,1.1-2.4,1.7-4,1.7c-2,0-4.1-1.4-4.1-3.9s2.1-3.9,4.1-3.9c1.6,0,3,0.5,4,1.7V355
			c0-1.7-1.4-2.7-3.2-2.7c-1.5,0-2.6,0.5-3.7,1.7l-0.7-0.9c1.2-1.3,2.6-2,4.5-2c2.4,0,4.3,1.1,4.3,3.8v8.2h-1.2V363.2z
			 M1025.9,360.9v-2.6c-0.8-1.1-2.1-1.6-3.5-1.6c-1.9,0-3.2,1.2-3.2,2.9c0,1.6,1.3,2.9,3.2,2.9
			C1023.7,362.5,1025.1,362,1025.9,360.9z"/>
		<path d="M1030.1,361.6l0.8-0.9c0.8,0.9,2.1,1.7,3.8,1.7c2,0,3.1-1,3.1-2.4c0-3.2-7.4-1.4-7.4-5.6c0-1.8,1.5-3.3,4.2-3.3
			c2,0,3.3,0.8,4.2,1.7l-0.7,0.9c-0.7-0.9-1.9-1.6-3.5-1.6c-1.8,0-2.9,0.9-2.9,2.1c0,2.9,7.4,1.1,7.4,5.7c0,1.9-1.5,3.4-4.4,3.4
			C1032.7,363.5,1031.2,362.9,1030.1,361.6z"/>
		<path d="M1055.9,363.2v-1.4c-1,1.1-2.4,1.7-4,1.7c-2,0-4.1-1.4-4.1-3.9s2.1-3.9,4.1-3.9c1.6,0,3,0.5,4,1.7V355
			c0-1.7-1.4-2.7-3.2-2.7c-1.5,0-2.6,0.5-3.7,1.7l-0.7-0.9c1.2-1.3,2.6-2,4.5-2c2.4,0,4.3,1.1,4.3,3.8v8.2h-1.2V363.2z
			 M1055.9,360.9v-2.6c-0.8-1.1-2.1-1.6-3.5-1.6c-1.9,0-3.2,1.2-3.2,2.9c0,1.6,1.3,2.9,3.2,2.9
			C1053.8,362.5,1055.1,362,1055.9,360.9z"/>
		<path d="M1067.4,363.2V347h6.6c2.7,0,4.5,1.6,4.5,4.1c0,2-1.4,3.4-2.8,3.7c1.7,0.3,3.2,2.1,3.2,4c0,2.7-1.7,4.4-4.6,4.4H1067.4z
			 M1077.1,351.3c0-1.7-1.1-3-3.2-3h-5.1v6h5.1C1076,354.3,1077.1,353,1077.1,351.3z M1077.4,358.7c0-1.7-1.1-3.2-3.4-3.2h-5.2v6.4
			h5.2C1076.2,361.9,1077.4,360.7,1077.4,358.7z"/>
		<path d="M1081.7,363.2V362c5.5-4.4,9.2-7.6,9.2-10.7c0-2.3-1.9-3.3-3.7-3.3c-2,0-3.6,0.9-4.4,2.1l-0.9-0.9
			c1.1-1.6,3.1-2.5,5.4-2.5c2.4,0,5.1,1.4,5.1,4.6c0,3.6-3.8,6.8-8.4,10.6h8.5v1.3H1081.7z"/>
		<path d="M1096.5,363.2V347h6.6c2.7,0,4.5,1.6,4.5,4.1c0,2-1.4,3.4-2.8,3.7c1.7,0.3,3.2,2.1,3.2,4c0,2.7-1.7,4.4-4.6,4.4H1096.5z
			 M1106.1,351.3c0-1.7-1.1-3-3.2-3h-5.1v6h5.1C1105,354.3,1106.1,353,1106.1,351.3z M1106.4,358.7c0-1.7-1.1-3.2-3.4-3.2h-5.2v6.4
			h5.2C1105.2,361.9,1106.4,360.7,1106.4,358.7z"/>
		<path d="M1118.8,361.3v6.4h-1.3v-16.2h1.3v1.8c0.8-1.2,2.3-2.1,4.1-2.1c3.1,0,5.2,2.4,5.2,6.1s-2.1,6.2-5.2,6.2
			C1121.3,363.5,1119.8,362.6,1118.8,361.3z M1126.8,357.3c0-2.8-1.5-5-4.1-5c-1.6,0-3.2,1-3.9,2.1v5.8c0.7,1.1,2.2,2.1,3.9,2.1
			C1125.3,362.3,1126.8,360.2,1126.8,357.3z"/>
		<path d="M1131.3,363.2V347h1.3v16.2H1131.3z"/>
		<path d="M1144,363.2v-1.4c-1,1.1-2.4,1.7-4,1.7c-2,0-4.1-1.4-4.1-3.9s2.1-3.9,4.1-3.9c1.6,0,3,0.5,4,1.7V355
			c0-1.7-1.4-2.7-3.2-2.7c-1.5,0-2.6,0.5-3.7,1.7l-0.7-0.9c1.2-1.3,2.6-2,4.5-2c2.4,0,4.3,1.1,4.3,3.8v8.2h-1.2V363.2z M1144,360.9
			v-2.6c-0.8-1.1-2.1-1.6-3.5-1.6c-1.9,0-3.2,1.2-3.2,2.9c0,1.6,1.3,2.9,3.2,2.9C1141.8,362.5,1143.1,362,1144,360.9z"/>
		<path d="M1149.4,360.9v-8.3h-1.9v-1.1h1.9v-3.2h1.3v3.2h2.4v1.1h-2.4v8.2c0,0.9,0.4,1.6,1.2,1.6c0.6,0,1-0.3,1.3-0.6l0.5,1
			c-0.5,0.4-1,0.7-2,0.7C1150.2,363.5,1149.4,362.5,1149.4,360.9z"/>
		<path d="M1156.2,363.2v-10.6h-1.9v-1.1h1.9v-1.1c0-2.3,1.2-3.6,3.2-3.6c0.8,0,1.5,0.2,2.2,0.8l-0.6,0.9c-0.4-0.4-0.9-0.6-1.5-0.6
			c-1.3,0-2,0.9-2,2.5v1.1h2.4v1.1h-2.4v10.6L1156.2,363.2L1156.2,363.2z"/>
		<path d="M1161.6,357.3c0-3.4,2.2-6.1,5.6-6.1c3.5,0,5.7,2.7,5.7,6.1s-2.2,6.2-5.7,6.2C1163.8,363.5,1161.6,360.7,1161.6,357.3z
			 M1171.5,357.3c0-2.6-1.5-5-4.3-5c-2.7,0-4.3,2.4-4.3,5s1.6,5,4.3,5C1170,362.3,1171.5,359.9,1171.5,357.3z"/>
		<path d="M1176.1,363.2v-11.7h1.3v2c1-1.3,2.3-2.3,4-2.3v1.4c-0.2,0-0.4,0-0.6,0c-1.2,0-2.8,1.1-3.3,2.1v8.5H1176.1z"/>
		<path d="M1197.7,363.2V355c0-1.7-0.7-2.7-2.4-2.7c-1.3,0-2.7,0.9-3.3,2v8.9h-1.3V355c0-1.7-0.7-2.7-2.4-2.7c-1.2,0-2.6,0.9-3.3,2
			v8.9h-1.3v-11.7h1.3v1.8c0.5-0.8,2.1-2.1,3.8-2.1c1.8,0,2.8,1.1,3.1,2.2c0.7-1.1,2.2-2.2,3.9-2.2c2.2,0,3.2,1.2,3.2,3.6v8.4
			L1197.7,363.2L1197.7,363.2z"/>
	</g>
</g>
</svg>
