<?xml version="1.0" encoding="utf-8"?>
<svg version="1.1" xmlns="http://www.w3.org/2000/svg" viewBox="0 0 55.841 37.347">
  <g>
  	<g>
  		<path fill="#3BC462" d="M41.695,11.117c-0.729,0-1.443,0.064-2.137,0.181C37.824,5.631,32.454,1.5,26.094,1.5c-7.762,0-14.054,6.151-14.054,13.74c0,0.677,0.053,1.342,0.15,1.994c-0.373-0.043-0.749-0.072-1.134-0.072c-5.277,0-9.557,4.184-9.557,9.343s4.279,9.342,9.557,9.342h30.638c6.985,0,12.646-5.536,12.646-12.365 C54.341,16.654,48.68,11.117,41.695,11.117z" />
  		<path fill="#FFFFFF" d="M41.695,37.347H11.057C4.96,37.347,0,32.483,0,26.505c0-5.812,4.686-10.57,10.546-10.832c-0.004-0.145-0.006-0.289-0.006-0.433C10.54,6.837,17.518,0,26.094,0c6.381,0,12.159,3.915,14.475,9.662c0.376-0.03,0.752-0.045,1.126-0.045c7.8,0,14.146,6.219,14.146,13.864C55.841,31.127,49.495,37.347,41.695,37.347zM11.057,18.662C6.614,18.662,3,22.18,3,26.505c0,4.324,3.614,7.842,8.057,7.842h30.638c6.146,0,11.146-4.874,11.146-10.865c0-5.991-5-10.864-11.146-10.864c-0.625,0-1.26,0.054-1.887,0.16l-1.299,0.22l-0.386-1.26C36.549,6.593,31.602,3,26.094,3C19.172,3,13.54,8.491,13.54,15.24c0,0.583,0.045,1.179,0.134,1.772l0.29,1.937l-1.945-0.224C11.702,18.688,11.384,18.662,11.057,18.662z" />
  	</g>
  	<g>
  		<polygon fill="#FFFFFF" points="32.826,29.033 27.751,26.365 22.678,29.033 23.647,23.384 19.542,19.382 25.216,18.557 27.751,13.417 30.288,18.557 35.962,19.382 31.858,23.384" />
  	</g>
  </g>
</svg>
