<?xml version="1.0" encoding="UTF-8" standalone="no"?>
<svg width="55px" height="36px" version="1.1" xmlns="http://www.w3.org/2000/svg" xmlns:xlink="http://www.w3.org/1999/xlink" xmlns:sketch="http://www.bohemiancoding.com/sketch/ns">
    <!-- Generator: Sketch 3.3 (11970) - http://www.bohemiancoding.com/sketch -->
    <title>Tour Header</title>
    <desc>Created with Sketch.</desc>
    <defs></defs>
    <g id="Page-1" stroke="none" stroke-width="1" fill="none" fill-rule="evenodd" sketch:type="MSPage">
        <g id="Tour-1" sketch:type="MSArtboardGroup">
            <g id="Header-Copy" sketch:type="MSLayerGroup">
                <g id="cclogo" sketch:type="MSShapeGroup">
                    <g id="Group" fill="#3BC462">
                        <path d="M41.8,11.3 C41.1,11.3 40.4,11.4 39.7,11.5 C38,5.8 32.6,1.7 26.2,1.7 C18.4,1.7 12.1,7.9 12.1,15.4 C12.1,16.1 12.2,16.7 12.3,17.4 C11.9,17.4 11.6,17.3 11.2,17.3 C5.9,17.3 1.6,21.5 1.6,26.6 C1.6,31.7 5.9,36 11.1,36 L41.7,36 C48.7,36 54.3,30.5 54.3,23.6 C54.4,16.8 48.8,11.3 41.8,11.3 L41.8,11.3 Z" id="Shape"></path>
                    </g>
                    <path d="M32.9,29.2 L27.8,26.5 L22.8,29.2 L23.7,23.5 L19.6,19.5 L25.3,18.7 L27.8,13.6 L30.4,18.7 L36.1,19.5 L32,23.5 L32.9,29.2 Z" id="Shape" fill="#FFFFFF"></path>
                </g>
            </g>
        </g>
    </g>
</svg>