<?xml version="1.0" encoding="utf-8"?>
<!-- Generator: Adobe Illustrator 19.0.0, SVG Export Plug-In . SVG Version: 6.00 Build 0)  -->
<!DOCTYPE svg PUBLIC "-//W3C//DTD SVG 1.1//EN" "http://www.w3.org/Graphics/SVG/1.1/DTD/svg11.dtd">
<svg version="1.1" id="Layer_1" xmlns:sketch="http://www.bohemiancoding.com/sketch/ns"
	 xmlns="http://www.w3.org/2000/svg" xmlns:xlink="http://www.w3.org/1999/xlink" x="0px" y="0px" viewBox="-338 186 282 189"
	 style="enable-background:new -338 186 282 189;" xml:space="preserve">
<style type="text/css">
	.st0{fill:#EF5B66;}
	.st1{fill:#E0383C;}
	.st2{fill:#FFFFFF;}
	.st3{enable-background:new    ;}
</style>
<title>CCerror</title>
<desc>Created with Sketch.</desc>
<g id="Page-1" sketch:type="MSPage">
	<g id="Error-Full" transform="translate(-371.000000, -290.000000)" sketch:type="MSArtboardGroup">
		<g id="orgpad-e" transform="translate(411.190516, 291.326900)" sketch:type="MSLayerGroup">
			<g id="Group" transform="translate(0.964160, 0.000000)" sketch:type="MSShapeGroup">
				<g transform="translate(0.000000, 13.478325)">
					<rect id="Rectangle-path" x="-330.7" y="193.3" class="st0" width="188.1" height="158.6"/>
					<path id="Shape" class="st1" d="M-135.4,359.1h-202.5V186h202.5V359.1L-135.4,359.1z M-323.4,344.7h173.6V200.5h-173.6V344.7
						L-323.4,344.7z"/>
				</g>
				<rect id="Rectangle-path_1_" x="-330.7" y="206.7" class="st1" width="188.1" height="21.7"/>
				<rect id="Rectangle-path_2_" x="-294" y="186" class="st2" width="11.1" height="26.5"/>
				<rect id="Rectangle-path_3_" x="-190.3" y="186" class="st2" width="11.1" height="26.5"/>
				<rect id="Rectangle-path_4_" x="-294" y="186" class="st1" width="11.1" height="13.5"/>
				<rect id="Rectangle-path_5_" x="-190.3" y="186" class="st1" width="11.1" height="13.5"/>
			</g>
			<g class="st3">
				<path class="st2" d="M-201.1,290.9c0.6,0.6,0.9,1.3,0.9,2.1c0,0.8-0.3,1.5-0.9,2.1s-1.3,0.9-2.1,0.9h-10.3c0,5.3-1,9.7-3.1,13.4
					l9.6,9.6c0.6,0.6,0.9,1.3,0.9,2.1c0,0.8-0.3,1.5-0.9,2.1c-0.6,0.6-1.2,0.9-2.1,0.9s-1.5-0.3-2.1-0.9l-9.1-9.1
					c-0.2,0.2-0.4,0.4-0.7,0.6c-0.3,0.2-1,0.7-1.9,1.3c-1,0.6-2,1.2-3,1.7s-2.3,0.9-3.8,1.3c-1.5,0.4-3,0.6-4.5,0.6v-41.3h-5.9v41.3
					c-1.6,0-3.1-0.2-4.7-0.6c-1.6-0.4-2.9-0.9-4-1.5c-1.1-0.6-2.1-1.2-3-1.8c-0.9-0.6-1.6-1.1-2-1.5l-0.7-0.6l-8.4,9.5
					c-0.6,0.6-1.4,1-2.2,1c-0.7,0-1.4-0.2-2-0.7c-0.6-0.6-0.9-1.2-0.9-2.1s0.2-1.5,0.7-2.1l9.3-10.5c-1.8-3.5-2.7-7.7-2.7-12.6
					h-10.3c-0.8,0-1.5-0.3-2.1-0.9c-0.6-0.6-0.9-1.3-0.9-2.1c0-0.8,0.3-1.5,0.9-2.1c0.6-0.6,1.3-0.9,2.1-0.9h10.3v-13.6l-8-8
					c-0.6-0.6-0.9-1.3-0.9-2.1s0.3-1.5,0.9-2.1c0.6-0.6,1.3-0.9,2.1-0.9c0.8,0,1.5,0.3,2.1,0.9l8,8h38.9l8-8
					c0.6-0.6,1.3-0.9,2.1-0.9c0.8,0,1.5,0.3,2.1,0.9c0.6,0.6,0.9,1.3,0.9,2.1s-0.3,1.5-0.9,2.1l-8,8v13.6h10.3
					C-202.4,290.1-201.7,290.3-201.1,290.9z M-222.4,266.4h-29.5c0-4.1,1.4-7.6,4.3-10.4c2.9-2.9,6.4-4.3,10.4-4.3
					c4.1,0,7.6,1.4,10.4,4.3C-223.8,258.9-222.4,262.4-222.4,266.4z"/>
			</g>
		</g>
	</g>
</g>
</svg>
