<?xml version="1.0" encoding="utf-8"?>
<!-- Generator: Adobe Illustrator 18.1.1, SVG Export Plug-In . SVG Version: 6.00 Build 0)  -->
<!DOCTYPE svg PUBLIC "-//W3C//DTD SVG 1.1//EN" "http://www.w3.org/Graphics/SVG/1.1/DTD/svg11.dtd">
<svg version="1.1" id="Layer_1" xmlns:sketch="http://www.bohemiancoding.com/sketch/ns"
	 xmlns="http://www.w3.org/2000/svg" xmlns:xlink="http://www.w3.org/1999/xlink" x="0px" y="0px" viewBox="-882 446 282 189"
	 enable-background="new -882 446 282 189" xml:space="preserve">
<title>CCerror</title>
<desc>Created with Sketch.</desc>
<g id="Page-1" sketch:type="MSPage">
	<g id="Error-Full" transform="translate(-371.000000, -290.000000)" sketch:type="MSArtboardGroup">
		<g id="CCerror" transform="translate(376.000000, 295.000000)" sketch:type="MSLayerGroup">
			<path id="Fill-1-Copy" sketch:type="MSShapeGroup" fill="#FFFFFF" d="M-673.7,500.9c-3.7,0-7.2,0.3-10.7,0.9
				c-8.7-28.4-35.6-49.1-67.5-49.1c-38.9,0-70.5,30.9-70.5,68.9c0,3.4,0.3,6.7,0.8,10c-1.9-0.2-3.8-0.4-5.7-0.4
				c-26.5,0-47.9,21-47.9,46.9c0,25.9,21.5,46.9,47.9,46.9h153.7c35,0,63.4-27.8,63.4-62C-610.3,528.6-638.7,500.9-673.7,500.9
				L-673.7,500.9z"/>
			<path id="Stroke-2-Copy" sketch:type="MSShapeGroup" fill="none" stroke="#FFFFFF" stroke-width="10" d="M-673.7,500.9
				c-3.7,0-7.2,0.3-10.7,0.9c-8.7-28.4-35.6-49.1-67.5-49.1c-38.9,0-70.5,30.9-70.5,68.9c0,3.4,0.3,6.7,0.8,10
				c-1.9-0.2-3.8-0.4-5.7-0.4c-26.5,0-47.9,21-47.9,46.9c0,25.9,21.5,46.9,47.9,46.9h153.7c35,0,63.4-27.8,63.4-62
				C-610.3,528.6-638.7,500.9-673.7,500.9L-673.7,500.9z"/>
			<path id="Fill-1" sketch:type="MSShapeGroup" fill="#EF5B66" d="M-679.7,494.9c-3.7,0-7.2,0.3-10.7,0.9
				c-8.7-28.4-35.6-49.1-67.5-49.1c-38.9,0-70.5,30.9-70.5,68.9c0,3.4,0.3,6.7,0.8,10c-1.9-0.2-3.8-0.4-5.7-0.4
				c-26.5,0-47.9,21-47.9,46.9c0,25.9,21.5,46.9,47.9,46.9h153.7c35,0,63.4-27.8,63.4-62C-616.3,522.6-644.7,494.9-679.7,494.9
				L-679.7,494.9z"/>
			<path id="Stroke-2" sketch:type="MSShapeGroup" fill="none" stroke="#E0383C" stroke-width="10" d="M-679.7,494.9
				c-3.7,0-7.2,0.3-10.7,0.9c-8.7-28.4-35.6-49.1-67.5-49.1c-38.9,0-70.5,30.9-70.5,68.9c0,3.4,0.3,6.7,0.8,10
				c-1.9-0.2-3.8-0.4-5.7-0.4c-26.5,0-47.9,21-47.9,46.9c0,25.9,21.5,46.9,47.9,46.9h153.7c35,0,63.4-27.8,63.4-62
				C-616.3,522.6-644.7,494.9-679.7,494.9L-679.7,494.9z"/>
			<g enable-background="new    ">
				<path fill="#FFFFFF" d="M-719,552.1h-10c0,5.6-1.2,9.8-3,12.9l9.3,9.3c1.1,1.1,1.1,2.9,0,4c-0.5,0.6-1.3,0.8-2,0.8
					c-0.7,0-1.5-0.3-2-0.8l-8.8-8.8c0,0-5.8,5.4-13.4,5.4v-40h-5.7v40c-8.1,0-14-5.9-14-5.9l-8.2,9.2c-0.6,0.6-1.3,0.9-2.1,0.9
					c-0.7,0-1.3-0.2-1.9-0.7c-1.2-1.1-1.2-2.9-0.2-4.1l9-10.1c-1.6-3.1-2.6-7.1-2.6-12.2h-10c-1.6,0-2.9-1.3-2.9-2.9
					s1.3-2.9,2.9-2.9h10c0-5.7,0-10.2,0-13.1l-7.7-7.7c-1.1-1.1-1.1-2.9,0-4s2.9-1.1,4,0l7.7,7.7h37.7l7.7-7.7c1.1-1.1,2.9-1.1,4,0
					s1.1,2.9,0,4l-7.7,7.7c0,2.9,0,7.4,0,13.1h10c1.6,0,2.9,1.3,2.9,2.9S-717.5,552.1-719,552.1z M-766.2,523.6
					c0-7.9,6.4-14.3,14.3-14.3s14.3,6.4,14.3,14.3H-766.2z"/>
			</g>
		</g>
	</g>
</g>
</svg>
