<?xml version="1.0" encoding="utf-8"?>
<!-- Generator: Adobe Illustrator 18.1.0, SVG Export Plug-In . SVG Version: 6.00 Build 0)  -->
<!DOCTYPE svg PUBLIC "-//W3C//DTD SVG 1.1//EN" "http://www.w3.org/Graphics/SVG/1.1/DTD/svg11.dtd">
<svg version="1.1" id="Layer_1" xmlns="http://www.w3.org/2000/svg" xmlns:xlink="http://www.w3.org/1999/xlink" x="0px" y="0px"
	 viewBox="0 0 1280 800" enable-background="new 0 0 1280 800" xml:space="preserve">
<g>
	<g>
		<path fill="#DBDADA" d="M1128.3,749.5H151.7c-17.7,0-32.2-14.5-32.2-32.2V60.4c0-17.7,14.5-32.2,32.2-32.2h976.5
			c17.7,0,32.2,14.5,32.2,32.2v656.8C1160.5,734.9,1145.9,749.5,1128.3,749.5z"/>
		<path fill="#C7C6C6" d="M1128.7,707.4H151.5c-14.1,0-25.5-11.6-25.5-25.5V60.4c0-14.1,11.6-25.5,25.5-25.5h977.2
			c14.1,0,25.5,11.6,25.5,25.5v621.5C1154.1,696,1142.6,707.4,1128.7,707.4z"/>
		<polygon fill="#C7C6C6" points="1035.7,708.4 641.3,708.4 246.7,708.4 243.7,725.5 641.3,725.5 1038.8,725.5 		"/>
		<path fill="#DBDADA" d="M1277.1,725.5H742.3c0,9.3-7.6,16.6-16.6,16.6H554.3c-9.3,0-16.6-7.6-16.6-16.6H2.9
			c-1.7,0-2.9,1.3-2.9,2.9v21c0,1.7,1.3,2.9,2.9,2.9h1274.3c1.7,0,2.9-1.3,2.9-2.9v-21C1280,726.7,1278.7,725.5,1277.1,725.5z"/>
		<path fill="#EDEDED" d="M554.3,742.1h171.3c9.3,0,16.6-7.6,16.6-16.6H537.7C537.7,734.7,545.3,742.1,554.3,742.1z"/>
		<path fill="#DBDADA" d="M641.3,752.4H2.9c0,0,9.9,7.2,35.4,13.9c12.2,3.4,29.5,5.1,47.1,5.5h555.6h555.6
			c17.9-0.4,34.9-2.1,47.1-5.5c25.5-6.9,35.4-13.9,35.4-13.9H641.3z"/>
		<circle fill="#EDEDED" cx="641.3" cy="56.2" r="7.6"/>
	</g>
</g>
<g>
	<rect x="157.4" y="78.3" fill="#F6F6F6" width="965.2" height="601.5"/>
	<rect x="157.4" y="363.9" fill="#1D1D1B" width="965.2" height="7"/>
	<line fill="none" stroke="#000000" stroke-width="1.4031" stroke-miterlimit="10" x1="219.1" y1="367.4" x2="238" y2="348.5"/>
	<line fill="none" stroke="#000000" stroke-width="1.4031" stroke-miterlimit="10" x1="407.9" y1="367.4" x2="426.8" y2="348.5"/>
	<line fill="none" stroke="#000000" stroke-width="1.4031" stroke-miterlimit="10" x1="596.7" y1="367.4" x2="615.7" y2="348.5"/>
	<line fill="none" stroke="#000000" stroke-width="1.4031" stroke-miterlimit="10" x1="911.4" y1="367.4" x2="930.4" y2="348.5"/>
	<line fill="none" stroke="#000000" stroke-width="1.4031" stroke-miterlimit="10" x1="784.5" y1="369.6" x2="803.4" y2="388.5"/>
	<line fill="none" stroke="#000000" stroke-width="1.4031" stroke-miterlimit="10" x1="345.4" y1="369.6" x2="364.4" y2="388.5"/>
	<g>
		<path d="M244.5,285l1-1.7c0.5,0.5,1.2,1,2.2,1c1.4,0,2.2-0.9,2.2-2.3v-8.6h2.2v8.6c0,2.9-1.8,4.2-4.3,4.2
			C246.5,286.3,245.4,285.9,244.5,285z"/>
		<path d="M260.3,286.1v-1c-0.7,0.8-1.7,1.2-3,1.2c-1.5,0-3.2-1-3.2-3c0-2.1,1.7-3,3.2-3c1.2,0,2.3,0.4,3,1.2v-1.4
			c0-1.1-0.9-1.7-2.1-1.7c-1,0-1.9,0.4-2.7,1.2l-0.8-1.4c1.1-1,2.4-1.5,3.8-1.5c2,0,3.8,0.9,3.8,3.3v6.1H260.3z M260.3,284v-1.4
			c-0.5-0.6-1.3-0.9-2.2-0.9c-1.1,0-2,0.6-2,1.6c0,1,0.8,1.6,2,1.6C259,284.9,259.9,284.6,260.3,284z"/>
		<path d="M271.1,286.1v-5.7c0-1.4-0.7-1.9-1.8-1.9c-1,0-1.9,0.6-2.3,1.2v6.4h-2v-9.2h2v1.3c0.6-0.7,1.8-1.5,3.2-1.5
			c2,0,3,1.1,3,2.9v6.4H271.1z"/>
		<path d="M282.8,286.1v-9.8l-2.1,2.1l-1.3-1.3l3.6-3.7h1.9v12.6H282.8z"/>
		<path d="M287.4,286.1v-1.7c4.9-3.7,6.8-5.4,6.8-7.2c0-1.3-1.1-1.9-2.3-1.9c-1.5,0-2.6,0.6-3.4,1.5l-1.3-1.5c1.1-1.3,2.9-2,4.7-2
			c2.4,0,4.6,1.4,4.6,3.9c0,2.3-2.1,4.4-5.5,7h5.6v2H287.4z"/>
		<path d="M245.4,309.2c0-3.9,2.8-6.5,6.4-6.5c2,0,3.5,0.9,4.6,2.2l-0.9,0.6c-0.8-1.1-2.2-1.8-3.7-1.8c-3,0-5.3,2.3-5.3,5.6
			c0,3.3,2.3,5.6,5.3,5.6c1.5,0,2.9-0.7,3.7-1.8l0.9,0.6c-1.1,1.4-2.6,2.3-4.6,2.3C248.3,315.8,245.4,313.1,245.4,309.2z"/>
		<path d="M258.1,310.9c0-2.7,1.7-4.8,4.4-4.8c2.7,0,4.4,2.1,4.4,4.8c0,2.7-1.7,4.8-4.4,4.8C259.8,315.8,258.1,313.6,258.1,310.9z
			 M265.8,310.9c0-2-1.2-3.9-3.4-3.9c-2.1,0-3.3,1.9-3.3,3.9c0,2,1.2,3.9,3.3,3.9C264.6,314.9,265.8,313,265.8,310.9z"/>
		<path d="M280.3,315.5v-6.4c0-1.3-0.5-2.1-1.8-2.1c-1,0-2.1,0.7-2.6,1.6v6.9h-1v-6.4c0-1.3-0.5-2.1-1.8-2.1c-1,0-2.1,0.7-2.6,1.6
			v6.9h-1v-9.2h1v1.4c0.4-0.6,1.6-1.6,3-1.6c1.4,0,2.2,0.8,2.4,1.7c0.5-0.9,1.7-1.7,3-1.7c1.7,0,2.5,0.9,2.5,2.8v6.6H280.3z"/>
		<path d="M285.3,314v5h-1v-12.6h1v1.4c0.6-0.9,1.8-1.7,3.2-1.7c2.4,0,4.1,1.9,4.1,4.8c0,2.9-1.6,4.8-4.1,4.8
			C287.2,315.8,286.1,315.1,285.3,314z M291.6,310.9c0-2.2-1.2-3.9-3.2-3.9c-1.3,0-2.5,0.8-3,1.6v4.5c0.5,0.9,1.7,1.7,3,1.7
			C290.4,314.9,291.6,313.2,291.6,310.9z"/>
		<path d="M300.9,315.5v-1.1c-0.8,0.9-1.8,1.3-3.1,1.3c-1.6,0-3.2-1.1-3.2-3.1c0-2,1.6-3,3.2-3c1.3,0,2.3,0.4,3.1,1.3v-1.9
			c0-1.4-1.1-2.1-2.5-2.1c-1.1,0-2,0.4-2.9,1.3l-0.5-0.7c0.9-1,2-1.5,3.5-1.5c1.9,0,3.3,0.9,3.3,2.9v6.4H300.9z M300.9,313.7v-2
			c-0.6-0.8-1.7-1.3-2.8-1.3c-1.5,0-2.5,1-2.5,2.3c0,1.3,1,2.3,2.5,2.3C299.2,315,300.3,314.6,300.9,313.7z"/>
		<path d="M311.1,315.5v-6.2c0-1.8-0.9-2.3-2.2-2.3c-1.2,0-2.4,0.7-3,1.6v6.9h-1v-9.2h1v1.4c0.7-0.8,2-1.6,3.3-1.6
			c1.9,0,2.9,0.9,2.9,3v6.4H311.1z"/>
		<path d="M314.8,318.2c0.2,0.1,0.6,0.2,0.8,0.2c0.6,0,1-0.2,1.4-1.1l0.7-1.6l-3.9-9.2h1.1l3.3,8l3.3-8h1.1l-4.7,11.2
			c-0.5,1.2-1.3,1.7-2.3,1.7c-0.3,0-0.7-0.1-1-0.1L314.8,318.2z"/>
		<path d="M245.6,325.2c0-0.4,0.4-0.7,0.8-0.7c0.4,0,0.8,0.3,0.8,0.7c0,0.4-0.3,0.8-0.8,0.8C246,326,245.6,325.6,245.6,325.2z
			 M245.9,336.6v-9.2h1v9.2H245.9z"/>
		<path d="M249.1,335.4l0.6-0.7c0.6,0.7,1.7,1.3,3,1.3c1.5,0,2.4-0.8,2.4-1.9c0-2.5-5.8-1.1-5.8-4.4c0-1.4,1.2-2.5,3.3-2.5
			c1.6,0,2.6,0.6,3.3,1.3l-0.5,0.7c-0.5-0.7-1.5-1.2-2.7-1.2c-1.4,0-2.3,0.7-2.3,1.7c0,2.3,5.8,0.9,5.8,4.4c0,1.5-1.1,2.7-3.4,2.7
			C251.2,336.8,250,336.4,249.1,335.4z"/>
		<path d="M263.8,336.6v-8.3h-1.5v-0.9h1.5v-0.8c0-1.8,0.9-2.8,2.5-2.8c0.6,0,1.2,0.1,1.7,0.6l-0.5,0.7c-0.3-0.3-0.7-0.5-1.2-0.5
			c-1,0-1.6,0.7-1.6,2v0.8h1.9v0.9h-1.9v8.3H263.8z"/>
		<path d="M268,332c0-2.7,1.7-4.8,4.4-4.8c2.7,0,4.4,2.1,4.4,4.8s-1.7,4.8-4.4,4.8C269.7,336.8,268,334.7,268,332z M275.8,332
			c0-2-1.2-3.9-3.4-3.9c-2.1,0-3.3,1.9-3.3,3.9c0,2,1.2,3.9,3.3,3.9C274.6,335.9,275.8,334,275.8,332z"/>
		<path d="M285.5,336.6v-1.3c-0.8,0.8-2,1.6-3.3,1.6c-1.9,0-2.9-0.9-2.9-2.9v-6.4h1v6.2c0,1.8,0.9,2.3,2.2,2.3c1.2,0,2.4-0.7,3-1.5
			v-7h1v9.2H285.5z"/>
		<path d="M295.8,336.6v-6.2c0-1.8-0.9-2.3-2.2-2.3c-1.2,0-2.4,0.7-3,1.6v6.9h-1v-9.2h1v1.4c0.7-0.8,2-1.6,3.3-1.6
			c1.9,0,2.9,0.9,2.9,3v6.4H295.8z"/>
		<path d="M306.6,336.6v-1.5c-0.6,0.9-1.8,1.7-3.2,1.7c-2.4,0-4.1-1.9-4.1-4.8c0-2.9,1.7-4.8,4.1-4.8c1.3,0,2.4,0.7,3.2,1.7v-5h1
			v12.6H306.6z M306.6,334.3v-4.5c-0.5-0.9-1.7-1.7-3-1.7c-2,0-3.2,1.7-3.2,3.9c0,2.2,1.2,3.9,3.2,3.9
			C304.8,335.9,306,335.2,306.6,334.3z"/>
		<path d="M310.1,332c0-2.7,1.9-4.8,4.4-4.8c2.8,0,4.3,2.2,4.3,4.9v0.3h-7.7c0.1,2,1.4,3.6,3.6,3.6c1.2,0,2.2-0.4,3-1.3l0.5,0.6
			c-0.9,0.9-2.1,1.5-3.6,1.5C312,336.8,310.1,334.8,310.1,332z M314.5,328c-2.2,0-3.2,1.9-3.3,3.5h6.7
			C317.8,330,316.8,328,314.5,328z"/>
		<path d="M328.1,336.6v-1.5c-0.6,0.9-1.8,1.7-3.2,1.7c-2.4,0-4.1-1.9-4.1-4.8c0-2.9,1.7-4.8,4.1-4.8c1.3,0,2.4,0.7,3.2,1.7v-5h1
			v12.6H328.1z M328.1,334.3v-4.5c-0.5-0.9-1.7-1.7-3-1.7c-2,0-3.2,1.7-3.2,3.9c0,2.2,1.2,3.9,3.2,3.9
			C326.4,335.9,327.6,335.2,328.1,334.3z"/>
	</g>
	<g>
		<path fill="#3BC462" d="M310.8,178.1c0,1.1-0.4,2.1-1.2,2.9L279,211.6l-5.8,5.8c-0.8,0.8-1.7,1.2-2.9,1.2c-1.1,0-2.1-0.4-2.9-1.2
			l-5.8-5.8l-15.3-15.3c-0.8-0.8-1.2-1.7-1.2-2.9c0-1.1,0.4-2.1,1.2-2.9l5.8-5.8c0.8-0.8,1.7-1.2,2.9-1.2c1.1,0,2.1,0.4,2.9,1.2
			l12.4,12.5l27.7-27.8c0.8-0.8,1.7-1.2,2.9-1.2c1.1,0,2.1,0.4,2.9,1.2l5.8,5.8C310.4,176,310.8,177,310.8,178.1z"/>
	</g>
	<g>
		<path fill="#3BC462" d="M417,551.3v7.4c0,0.3-0.1,0.5-0.3,0.8c-0.2,0.3-0.4,0.4-0.6,0.4l-6.2,1c-0.3,0.9-0.7,1.9-1.3,3
			c0.9,1.3,2.1,2.8,3.6,4.6c0.2,0.3,0.3,0.5,0.3,0.8c0,0.3-0.1,0.6-0.3,0.8c-0.6,0.8-1.7,2-3.3,3.6c-1.6,1.6-2.6,2.4-3.1,2.4
			c-0.3,0-0.6-0.1-0.8-0.3l-4.6-3.6c-1,0.5-2,0.9-3.1,1.2c-0.3,2.9-0.6,4.9-0.9,6.2c-0.2,0.6-0.6,1-1.2,1h-7.4
			c-0.3,0-0.6-0.1-0.8-0.3c-0.2-0.2-0.4-0.4-0.4-0.7l-0.9-6.1c-0.9-0.3-1.9-0.7-3-1.2l-4.7,3.6c-0.2,0.2-0.5,0.3-0.8,0.3
			c-0.3,0-0.6-0.1-0.8-0.3c-3.8-3.5-5.7-5.7-5.7-6.4c0-0.2,0.1-0.5,0.3-0.8c0.3-0.4,0.8-1.1,1.6-2.1c0.8-1,1.5-1.8,1.9-2.4
			c-0.6-1.2-1.1-2.3-1.4-3.3l-6.1-1c-0.3,0-0.5-0.2-0.7-0.4c-0.2-0.2-0.3-0.5-0.3-0.8v-7.4c0-0.3,0.1-0.5,0.3-0.8
			c0.2-0.3,0.4-0.4,0.6-0.4l6.2-1c0.3-0.9,0.7-1.9,1.3-3c-0.9-1.3-2.1-2.8-3.6-4.6c-0.2-0.3-0.3-0.6-0.3-0.8c0-0.3,0.1-0.6,0.3-0.8
			c0.6-0.8,1.7-2,3.3-3.6c1.6-1.6,2.6-2.4,3.2-2.4c0.3,0,0.6,0.1,0.8,0.3l4.6,3.6c0.9-0.5,1.9-0.9,3.1-1.3c0.3-2.9,0.6-4.9,0.9-6.1
			c0.2-0.6,0.6-1,1.2-1h7.4c0.3,0,0.6,0.1,0.8,0.3c0.2,0.2,0.4,0.4,0.4,0.7l0.9,6.1c0.9,0.3,1.9,0.7,3,1.2l4.7-3.6
			c0.2-0.2,0.5-0.3,0.8-0.3c0.3,0,0.6,0.1,0.8,0.3c3.8,3.5,5.8,5.7,5.8,6.4c0,0.2-0.1,0.5-0.3,0.8c-0.3,0.4-0.9,1.1-1.7,2.2
			c-0.8,1-1.4,1.8-1.8,2.4c0.6,1.3,1.1,2.4,1.4,3.3l6.1,0.9c0.3,0.1,0.5,0.2,0.7,0.4C416.9,550.8,417,551,417,551.3z M398.6,562.2
			c2-2,3-4.4,3-7.2c0-2.8-1-5.2-3-7.2c-2-2-4.4-3-7.2-3s-5.2,1-7.2,3c-2,2-3,4.4-3,7.2c0,2.8,1,5.2,3,7.2c2,2,4.4,3,7.2,3
			S396.6,564.2,398.6,562.2z M442.5,531.7v5.6c0,0.4-2,0.8-6,1.2c-0.3,0.7-0.7,1.4-1.2,2.1c1.4,3,2,4.8,2,5.5c0,0.1-0.1,0.2-0.2,0.3
			c-3.2,1.9-4.9,2.8-5,2.8c-0.2,0-0.8-0.6-1.8-1.9c-1-1.2-1.7-2.2-2.1-2.7c-0.5,0.1-0.9,0.1-1.2,0.1c-0.3,0-0.7,0-1.2-0.1
			c-0.4,0.6-1.1,1.5-2.1,2.7c-1,1.3-1.6,1.9-1.8,1.9c-0.1,0-1.7-0.9-5-2.8c-0.1-0.1-0.2-0.2-0.2-0.3c0-0.7,0.7-2.5,2-5.5
			c-0.5-0.7-0.9-1.4-1.2-2.1c-4-0.4-6-0.8-6-1.2v-5.6c0-0.4,2-0.8,6-1.2c0.3-0.8,0.7-1.5,1.2-2.1c-1.4-3-2-4.8-2-5.5
			c0-0.1,0.1-0.2,0.2-0.3c0.1-0.1,0.6-0.3,1.4-0.8c0.8-0.5,1.6-0.9,2.4-1.4c0.7-0.4,1.1-0.6,1.2-0.6c0.2,0,0.8,0.6,1.8,1.9
			c1,1.2,1.7,2.1,2.1,2.7c0.5-0.1,0.9-0.1,1.2-0.1c0.3,0,0.7,0,1.2,0.1c1.4-1.9,2.6-3.4,3.7-4.5l0.2-0.1c0.1,0,1.8,0.9,5,2.8
			c0.1,0.1,0.2,0.2,0.2,0.3c0,0.7-0.7,2.5-2,5.5c0.5,0.6,0.9,1.3,1.2,2.1C440.5,530.9,442.5,531.3,442.5,531.7z M442.5,572.6v5.6
			c0,0.4-2,0.8-6,1.2c-0.3,0.7-0.7,1.4-1.2,2.1c1.4,3,2,4.8,2,5.5c0,0.1-0.1,0.2-0.2,0.3c-3.2,1.9-4.9,2.8-5,2.8
			c-0.2,0-0.8-0.6-1.8-1.9c-1-1.3-1.7-2.2-2.1-2.7c-0.5,0.1-0.9,0.1-1.2,0.1c-0.3,0-0.7,0-1.2-0.1c-0.4,0.6-1.1,1.5-2.1,2.7
			c-1,1.3-1.6,1.9-1.8,1.9c-0.1,0-1.7-0.9-5-2.8c-0.1-0.1-0.2-0.2-0.2-0.3c0-0.7,0.7-2.5,2-5.5c-0.5-0.7-0.9-1.4-1.2-2.1
			c-4-0.4-6-0.8-6-1.2v-5.6c0-0.4,2-0.8,6-1.2c0.3-0.8,0.7-1.5,1.2-2.1c-1.4-3-2-4.8-2-5.5c0-0.1,0.1-0.2,0.2-0.3
			c0.1-0.1,0.6-0.3,1.4-0.8c0.8-0.5,1.6-0.9,2.4-1.4c0.7-0.4,1.1-0.6,1.2-0.6c0.2,0,0.8,0.6,1.8,1.9c1,1.2,1.7,2.1,2.1,2.7
			c0.5-0.1,0.9-0.1,1.2-0.1c0.3,0,0.7,0,1.2,0.1c1.4-1.9,2.6-3.4,3.7-4.5l0.2-0.1c0.1,0,1.8,0.9,5,2.8c0.1,0.1,0.2,0.2,0.2,0.3
			c0,0.7-0.7,2.5-2,5.5c0.5,0.6,0.9,1.3,1.2,2.1C440.5,571.8,442.5,572.2,442.5,572.6z M432.3,534.5c0-1.4-0.5-2.6-1.5-3.6
			c-1-1-2.2-1.5-3.6-1.5c-1.4,0-2.6,0.5-3.6,1.5c-1,1-1.5,2.2-1.5,3.6c0,1.4,0.5,2.6,1.5,3.6c1,1,2.2,1.5,3.6,1.5
			c1.4,0,2.6-0.5,3.6-1.5C431.8,537.1,432.3,535.9,432.3,534.5z M432.3,575.4c0-1.4-0.5-2.6-1.5-3.6c-1-1-2.2-1.5-3.6-1.5
			c-1.4,0-2.6,0.5-3.6,1.5c-1,1-1.5,2.2-1.5,3.6c0,1.4,0.5,2.6,1.5,3.6c1,1,2.2,1.5,3.6,1.5c1.4,0,2.6-0.5,3.6-1.5
			C431.8,578,432.3,576.8,432.3,575.4z"/>
	</g>
	<g>
		<path fill="#3BC462" d="M878.7,561c0,6.9-1.9,13.4-5.6,19.3c-0.5,0.8-1.2,1.2-2.2,1.2h-56c-0.9,0-1.7-0.4-2.2-1.2
			c-3.8-5.9-5.6-12.3-5.6-19.3c0-4.8,0.9-9.5,2.8-13.9c1.9-4.4,4.4-8.2,7.6-11.4c3.2-3.2,7-5.7,11.4-7.6c4.4-1.9,9.1-2.8,13.9-2.8
			c4.8,0,9.5,0.9,13.9,2.8s8.2,4.4,11.4,7.6c3.2,3.2,5.7,7,7.6,11.4S878.7,556.1,878.7,561z M821,564.6c1-1,1.5-2.2,1.5-3.6
			c0-1.4-0.5-2.6-1.5-3.6c-1-1-2.2-1.5-3.6-1.5c-1.4,0-2.6,0.5-3.6,1.5c-1,1-1.5,2.2-1.5,3.6c0,1.4,0.5,2.6,1.5,3.6
			c1,1,2.2,1.5,3.6,1.5C818.8,566.1,820,565.6,821,564.6z M828.7,546.7c1-1,1.5-2.2,1.5-3.6c0-1.4-0.5-2.6-1.5-3.6
			c-1-1-2.2-1.5-3.6-1.5c-1.4,0-2.6,0.5-3.6,1.5c-1,1-1.5,2.2-1.5,3.6c0,1.4,0.5,2.6,1.5,3.6c1,1,2.2,1.5,3.6,1.5
			C826.5,548.2,827.7,547.7,828.7,546.7z M847.3,562.3l4-15.3c0.2-0.7,0.1-1.3-0.3-1.9c-0.4-0.6-0.9-1-1.5-1.2
			c-0.7-0.2-1.3-0.1-1.9,0.3s-1,0.9-1.2,1.6l-4,15.3c-1.6,0.1-3,0.7-4.3,1.7c-1.3,1-2.1,2.3-2.5,3.9c-0.5,2-0.3,4,0.8,5.8
			c1.1,1.8,2.6,3,4.7,3.6c2,0.5,4,0.3,5.8-0.8c1.8-1.1,3-2.6,3.6-4.7c0.4-1.6,0.3-3.2-0.2-4.7C849.6,564.4,848.6,563.2,847.3,562.3z
			 M846.6,539c1-1,1.5-2.2,1.5-3.6c0-1.4-0.5-2.6-1.5-3.6c-1-1-2.2-1.5-3.6-1.5c-1.4,0-2.6,0.5-3.6,1.5c-1,1-1.5,2.2-1.5,3.6
			c0,1.4,0.5,2.6,1.5,3.6c1,1,2.2,1.5,3.6,1.5C844.4,540.5,845.6,540,846.6,539z M864.5,546.7c1-1,1.5-2.2,1.5-3.6
			c0-1.4-0.5-2.6-1.5-3.6c-1-1-2.2-1.5-3.6-1.5c-1.4,0-2.6,0.5-3.6,1.5c-1,1-1.5,2.2-1.5,3.6c0,1.4,0.5,2.6,1.5,3.6
			c1,1,2.2,1.5,3.6,1.5C862.3,548.2,863.5,547.7,864.5,546.7z M872.1,564.6c1-1,1.5-2.2,1.5-3.6c0-1.4-0.5-2.6-1.5-3.6
			c-1-1-2.2-1.5-3.6-1.5c-1.4,0-2.6,0.5-3.6,1.5c-1,1-1.5,2.2-1.5,3.6c0,1.4,0.5,2.6,1.5,3.6c1,1,2.2,1.5,3.6,1.5
			C869.9,566.1,871.1,565.6,872.1,564.6z"/>
	</g>
	<g>
		<path fill="#3BC462" d="M497.8,185.3v8.1c0,1.1-0.4,2.1-1.2,2.9c-0.8,0.8-1.7,1.2-2.9,1.2h-17.6v17.6c0,1.1-0.4,2.1-1.2,2.9
			c-0.8,0.8-1.7,1.2-2.9,1.2H464c-1.1,0-2.1-0.4-2.9-1.2c-0.8-0.8-1.2-1.7-1.2-2.9v-17.6h-17.6c-1.1,0-2.1-0.4-2.9-1.2
			c-0.8-0.8-1.2-1.7-1.2-2.9v-8.1c0-1.1,0.4-2.1,1.2-2.9c0.8-0.8,1.7-1.2,2.9-1.2h17.6v-17.6c0-1.1,0.4-2.1,1.2-2.9
			c0.8-0.8,1.7-1.2,2.9-1.2h8.1c1.1,0,2.1,0.4,2.9,1.2c0.8,0.8,1.2,1.7,1.2,2.9v17.6h17.6c1.1,0,2.1,0.4,2.9,1.2
			C497.4,183.2,497.8,184.2,497.8,185.3z"/>
	</g>
	<g>
		<path fill="#3BC462" d="M669.6,204.3c0,4.3-1.4,8-4.2,11.1c-2.8,3.1-6.4,5-10.9,5.8v7.4c0,0.4-0.1,0.7-0.4,1
			c-0.3,0.3-0.6,0.4-1,0.4h-5.7c-0.4,0-0.7-0.1-1-0.4c-0.3-0.3-0.4-0.6-0.4-1v-7.4c-1.9-0.3-3.7-0.7-5.4-1.3
			c-1.7-0.6-3.2-1.2-4.3-1.9c-1.1-0.6-2.2-1.3-3.1-2c-1-0.7-1.6-1.2-2-1.6c-0.4-0.3-0.6-0.6-0.7-0.8c-0.5-0.6-0.5-1.2-0.1-1.7
			l4.4-5.7c0.2-0.3,0.5-0.5,1-0.5c0.4-0.1,0.8,0.1,1,0.4l0.1,0.1c3.2,2.8,6.6,4.6,10.3,5.3c1,0.2,2.1,0.3,3.1,0.3
			c2.3,0,4.3-0.6,6-1.8c1.7-1.2,2.6-2.9,2.6-5.2c0-0.8-0.2-1.5-0.6-2.2s-0.9-1.3-1.4-1.8c-0.5-0.5-1.3-1-2.5-1.6
			c-1.1-0.6-2.1-1-2.8-1.4c-0.7-0.3-1.9-0.8-3.4-1.4c-1.1-0.5-2-0.8-2.6-1.1c-0.6-0.3-1.5-0.6-2.6-1.1c-1.1-0.5-2-0.9-2.6-1.3
			c-0.7-0.4-1.5-0.9-2.4-1.5c-0.9-0.6-1.7-1.2-2.3-1.8c-0.6-0.6-1.2-1.3-1.8-2.1c-0.6-0.8-1.1-1.6-1.5-2.5c-0.4-0.8-0.6-1.8-0.9-2.8
			c-0.2-1-0.4-2.1-0.4-3.3c0-3.9,1.4-7.3,4.1-10.2c2.8-2.9,6.4-4.8,10.8-5.7v-7.6c0-0.4,0.1-0.7,0.4-1c0.3-0.3,0.6-0.4,1-0.4h5.7
			c0.4,0,0.7,0.1,1,0.4c0.3,0.3,0.4,0.6,0.4,1v7.4c1.6,0.2,3.2,0.5,4.7,1c1.5,0.5,2.7,1,3.7,1.4c0.9,0.5,1.8,1,2.7,1.6
			c0.8,0.6,1.4,1,1.6,1.2c0.3,0.2,0.5,0.4,0.6,0.6c0.5,0.5,0.6,1,0.2,1.6l-3.4,6.2c-0.2,0.4-0.6,0.6-1,0.7c-0.4,0.1-0.8,0-1.1-0.3
			c-0.1-0.1-0.3-0.3-0.6-0.5c-0.3-0.3-0.9-0.6-1.6-1.1s-1.6-0.9-2.5-1.4c-0.9-0.4-1.9-0.8-3.1-1.1c-1.2-0.3-2.4-0.5-3.6-0.5
			c-2.7,0-4.9,0.6-6.6,1.8c-1.7,1.2-2.5,2.8-2.5,4.7c0,0.7,0.1,1.4,0.4,2c0.2,0.6,0.7,1.2,1.2,1.8c0.6,0.6,1.1,1,1.7,1.4
			c0.5,0.4,1.3,0.8,2.4,1.3c1.1,0.5,1.9,0.9,2.6,1.1c0.6,0.3,1.6,0.7,3,1.2c1.5,0.6,2.6,1,3.4,1.3s1.9,0.8,3.2,1.5
			c1.4,0.7,2.4,1.3,3.2,1.8c0.8,0.5,1.6,1.2,2.6,2.1c1,0.9,1.7,1.8,2.2,2.7s1,2,1.3,3.2C669.5,201.6,669.6,202.9,669.6,204.3z"/>
	</g>
	<g>
		<path fill="#3BC462" d="M1009.4,161c0,7-1.1,13.1-3.2,18.2c-2.1,5.1-5.7,10.2-10.7,15.2c-2.3,2.3-5,4.7-8.2,7.4l-0.8,16
			c-0.1,0.5-0.3,0.8-0.7,1.1l-16.2,9.5c-0.2,0.1-0.4,0.2-0.7,0.2c-0.3,0-0.7-0.1-1-0.4l-2.7-2.7c-0.4-0.4-0.5-0.8-0.3-1.4l3.6-11.7
			l-11.9-11.9l-11.7,3.6c-0.1,0-0.2,0-0.4,0c-0.4,0-0.7-0.1-1-0.4l-2.7-2.7c-0.5-0.5-0.5-1.1-0.2-1.6l9.5-16.2
			c0.3-0.4,0.6-0.6,1.1-0.7l16-0.8c2.7-3.2,5.2-6,7.4-8.2c5.3-5.3,10.3-8.9,15.1-10.9c4.8-2,10.9-3,18.2-3c0.4,0,0.7,0.1,1,0.4
			C1009.3,160.3,1009.4,160.6,1009.4,161z M998.8,176c0.8-0.8,1.2-1.7,1.2-2.9c0-1.1-0.4-2.1-1.2-2.9c-0.8-0.8-1.7-1.2-2.9-1.2
			c-1.1,0-2.1,0.4-2.9,1.2c-0.8,0.8-1.2,1.7-1.2,2.9c0,1.1,0.4,2.1,1.2,2.9c0.8,0.8,1.7,1.2,2.9,1.2C997,177.2,998,176.8,998.8,176z
			"/>
	</g>
	<g>
		<path d="M383,413.7v-9.4l-3.9,9.4h-0.9l-3.9-9.4v9.4H372v-12.6h3.1l3.4,8.3l3.4-8.3h3.1v12.6H383z"/>
		<path d="M393.4,413.7v-1c-0.7,0.8-1.7,1.2-3,1.2c-1.5,0-3.2-1-3.2-3c0-2.1,1.7-3,3.2-3c1.2,0,2.3,0.4,3,1.2v-1.4
			c0-1.1-0.9-1.7-2.1-1.7c-1,0-1.9,0.4-2.7,1.2l-0.8-1.4c1.1-1,2.4-1.5,3.8-1.5c2,0,3.8,0.9,3.8,3.3v6.1H393.4z M393.4,411.7v-1.4
			c-0.5-0.6-1.3-0.9-2.2-0.9c-1.1,0-2,0.6-2,1.6c0,1,0.8,1.6,2,1.6C392.1,412.6,392.9,412.3,393.4,411.7z"/>
		<path d="M398,413.7v-9.2h2v1.3c0.7-0.9,1.8-1.6,3-1.6v2c-0.2,0-0.4-0.1-0.6-0.1c-0.8,0-2,0.6-2.3,1.2v6.2H398z"/>
		<path d="M411.7,413.7V404l-2.1,2.1l-1.3-1.3l3.6-3.7h1.9v12.6H411.7z"/>
		<path d="M416.3,413.7V412c4.9-3.7,6.8-5.4,6.8-7.2c0-1.3-1.1-1.9-2.3-1.9c-1.5,0-2.6,0.6-3.4,1.5l-1.3-1.5c1.1-1.3,2.9-2,4.7-2
			c2.4,0,4.6,1.4,4.6,3.9c0,2.3-2.1,4.4-5.5,7h5.6v2H416.3z"/>
		<path fill="#079B3C" d="M371.4,438.6c0-4.1,3.6-7.5,7.5-7.5c3.6,0,6,2.7,6,5.9c0,3.1-1.9,4.6-3.5,4.6c-1.1,0-1.7-0.7-1.8-1.5
			l0-0.1c-0.7,0.9-1.7,1.6-2.8,1.6c-1.8,0-2.9-1.3-2.9-3.1c0-2.6,2.1-4.7,4.4-4.7c1.2,0,2,0.6,2.4,1.3l0.2-1.1h1.8l-1,4.8
			c0,0.1,0,0.3,0,0.4c0,0.6,0.3,0.9,0.8,0.9c0.7,0,1.9-0.9,1.9-3.2c0-3.1-2.1-5.2-5.3-5.2c-3.6,0-6.7,3.2-6.7,6.7
			c0,3,2.3,5.3,5.4,5.3c1.3,0,2.5-0.4,3.5-1l0.4,0.5c-1.2,0.8-2.5,1.2-3.9,1.2C373.9,444.5,371.4,441.9,371.4,438.6z M379.7,438.7
			l0.5-2.4c-0.2-0.5-0.8-1.2-1.7-1.2c-1.7,0-2.9,1.6-2.9,3.1c0,1.1,0.6,1.9,1.7,1.9C378.4,440.2,379.2,439.4,379.7,438.7z"/>
		<path fill="#079B3C" d="M386.8,443.2v-9.2h2v1.3c0.7-0.9,1.8-1.6,3-1.6v2c-0.2,0-0.4-0.1-0.6-0.1c-0.8,0-2,0.6-2.3,1.2v6.2H386.8z
			"/>
		<path fill="#079B3C" d="M393.1,431.7c0-0.7,0.6-1.2,1.2-1.2c0.7,0,1.2,0.6,1.2,1.2c0,0.7-0.5,1.2-1.2,1.2
			C393.7,432.9,393.1,432.4,393.1,431.7z M393.4,443.2v-9.2h2v9.2H393.4z"/>
		<path fill="#079B3C" d="M398.4,441.1v-5.3h-1.5v-1.7h1.5v-2.5h2v2.5h1.9v1.7h-1.9v4.8c0,0.6,0.3,1.1,0.9,1.1
			c0.4,0,0.7-0.1,0.9-0.3l0.5,1.5c-0.4,0.3-0.9,0.6-1.9,0.6C399.2,443.4,398.4,442.6,398.4,441.1z"/>
		<path fill="#079B3C" d="M409.6,443.2v-1c-0.7,0.8-1.7,1.2-3,1.2c-1.5,0-3.2-1-3.2-3c0-2.1,1.7-3,3.2-3c1.2,0,2.3,0.4,3,1.2v-1.4
			c0-1.1-0.9-1.7-2.1-1.7c-1,0-1.9,0.4-2.7,1.2l-0.8-1.4c1.1-1,2.4-1.5,3.8-1.5c2,0,3.8,0.9,3.8,3.3v6.1H409.6z M409.6,441.1v-1.4
			c-0.5-0.6-1.3-0.9-2.2-0.9c-1.1,0-2,0.6-2,1.6c0,1,0.8,1.6,2,1.6C408.3,442.1,409.1,441.7,409.6,441.1z"/>
		<path fill="#079B3C" d="M413.5,433.4c0-2.2,1.6-3.6,3.6-3.6c1.1,0,2,0.5,2.6,1.2l-0.5,0.3c-0.4-0.6-1.2-1-2.1-1
			c-1.7,0-2.9,1.3-2.9,3.1c0,1.8,1.3,3.1,2.9,3.1c0.8,0,1.6-0.4,2.1-1l0.5,0.3c-0.6,0.8-1.4,1.3-2.6,1.3
			C415,437,413.5,435.5,413.5,433.4z"/>
		<path fill="#079B3C" d="M420.8,436.9v-7h4.5v0.5h-3.9v2.6h3.8v0.5h-3.8v2.8h3.9v0.5H420.8z"/>
		<path fill="#079B3C" d="M426.5,433.4c0-2.1,1.3-3.6,3.4-3.6c2.1,0,3.4,1.6,3.4,3.6c0,2.1-1.4,3.6-3.4,3.6
			C427.8,437,426.5,435.4,426.5,433.4z M432.7,433.4c0-1.8-1.1-3.1-2.8-3.1c-1.7,0-2.8,1.3-2.8,3.1c0,1.8,1.1,3.1,2.8,3.1
			C431.6,436.5,432.7,435.2,432.7,433.4z"/>
		<path d="M446.2,443.2v-1.1c-0.8,0.9-1.8,1.3-3.1,1.3c-1.6,0-3.2-1.1-3.2-3.1c0-2,1.6-3,3.2-3c1.3,0,2.3,0.4,3.1,1.3v-1.9
			c0-1.4-1.1-2.1-2.5-2.1c-1.1,0-2,0.4-2.9,1.3l-0.5-0.7c0.9-1,2-1.5,3.5-1.5c1.9,0,3.3,0.9,3.3,2.9v6.4H446.2z M446.2,441.4v-2
			c-0.6-0.8-1.7-1.3-2.8-1.3c-1.5,0-2.5,1-2.5,2.3c0,1.3,1,2.3,2.5,2.3C444.5,442.7,445.5,442.2,446.2,441.4z"/>
		<path d="M456.4,443.2V437c0-1.8-0.9-2.3-2.2-2.3c-1.2,0-2.4,0.7-3,1.6v6.9h-1v-9.2h1v1.4c0.7-0.8,2-1.6,3.3-1.6
			c1.9,0,2.9,0.9,2.9,3v6.4H456.4z"/>
		<path d="M467.2,443.2v-1.5c-0.6,0.9-1.8,1.7-3.2,1.7c-2.4,0-4.1-1.9-4.1-4.8c0-2.9,1.7-4.8,4.1-4.8c1.3,0,2.4,0.7,3.2,1.7v-5h1
			v12.6H467.2z M467.2,440.9v-4.5c-0.5-0.9-1.7-1.7-3-1.7c-2,0-3.2,1.7-3.2,3.9s1.2,3.9,3.2,3.9
			C465.5,442.5,466.7,441.8,467.2,440.9z"/>
		<path fill="#079B3C" d="M475.3,438.6c0-4.1,3.6-7.5,7.5-7.5c3.6,0,6,2.7,6,5.9c0,3.1-1.9,4.6-3.5,4.6c-1.1,0-1.7-0.7-1.8-1.5
			l0-0.1c-0.7,0.9-1.7,1.6-2.8,1.6c-1.8,0-2.9-1.3-2.9-3.1c0-2.6,2.1-4.7,4.4-4.7c1.2,0,2,0.6,2.4,1.3l0.2-1.1h1.8l-1,4.8
			c0,0.1,0,0.3,0,0.4c0,0.6,0.3,0.9,0.8,0.9c0.7,0,1.9-0.9,1.9-3.2c0-3.1-2.1-5.2-5.3-5.2c-3.6,0-6.7,3.2-6.7,6.7
			c0,3,2.3,5.3,5.4,5.3c1.3,0,2.5-0.4,3.5-1l0.4,0.5c-1.2,0.8-2.5,1.2-3.9,1.2C477.9,444.5,475.3,441.9,475.3,438.6z M483.6,438.7
			l0.5-2.4c-0.2-0.5-0.8-1.2-1.7-1.2c-1.7,0-2.9,1.6-2.9,3.1c0,1.1,0.6,1.9,1.7,1.9C482.4,440.2,483.2,439.4,483.6,438.7z"/>
		<path fill="#079B3C" d="M490.5,431.7c0-0.7,0.6-1.2,1.2-1.2c0.7,0,1.2,0.6,1.2,1.2c0,0.7-0.5,1.2-1.2,1.2
			C491.1,432.9,490.5,432.4,490.5,431.7z M490.8,443.2v-9.2h2v9.2H490.8z"/>
		<path fill="#079B3C" d="M497.7,443.2l-3.7-9.2h2.1l2.7,6.9l2.7-6.9h2.1l-3.7,9.2H497.7z"/>
		<path fill="#079B3C" d="M510.4,443.2v-1c-0.7,0.8-1.7,1.2-3,1.2c-1.5,0-3.2-1-3.2-3c0-2.1,1.7-3,3.2-3c1.2,0,2.3,0.4,3,1.2v-1.4
			c0-1.1-0.9-1.7-2.1-1.7c-1,0-1.9,0.4-2.7,1.2l-0.8-1.4c1.1-1,2.4-1.5,3.8-1.5c2,0,3.8,0.9,3.8,3.3v6.1H510.4z M510.4,441.1v-1.4
			c-0.5-0.6-1.3-0.9-2.2-0.9c-1.1,0-2,0.6-2,1.6c0,1,0.8,1.6,2,1.6C509.1,442.1,510,441.7,510.4,441.1z"/>
		<path fill="#079B3C" d="M521.2,443.2v-5.7c0-1.4-0.7-1.9-1.8-1.9c-1,0-1.9,0.6-2.3,1.2v6.4h-2v-9.2h2v1.3c0.6-0.7,1.8-1.5,3.2-1.5
			c2,0,3,1.1,3,2.9v6.4H521.2z"/>
		<path fill="#079B3C" d="M525.3,436.9v-7h2.2c2.2,0,3.5,1.6,3.5,3.5c0,2-1.4,3.5-3.5,3.5H525.3z M530.5,433.4c0-1.6-1.1-3-2.9-3
			h-1.6v5.9h1.6C529.4,436.3,530.5,435,530.5,433.4z"/>
		<path fill="#079B3C" d="M532.6,436.9v-7h4.5v0.5h-3.9v2.6h3.8v0.5h-3.8v2.8h3.9v0.5H532.6z"/>
		<path fill="#079B3C" d="M538.2,435.9l0.4-0.5c0.5,0.5,1.2,1,2.2,1c1.4,0,1.9-0.8,1.9-1.4c0-2.1-4.2-1-4.2-3.4c0-1.2,1-1.9,2.3-1.9
			c1.1,0,1.8,0.4,2.4,1l-0.4,0.4c-0.5-0.6-1.2-0.9-2-0.9c-0.9,0-1.6,0.5-1.6,1.3c0,1.8,4.2,0.8,4.2,3.4c0,0.9-0.6,2-2.5,2
			C539.6,437,538.7,436.6,538.2,435.9z"/>
		<path fill="#079B3C" d="M544.7,436.9v-7h0.6v7H544.7z"/>
		<path fill="#079B3C" d="M546.7,433.4c0-2.2,1.6-3.6,3.6-3.6c1.2,0,2,0.5,2.6,1.2l-0.5,0.3c-0.5-0.6-1.3-1-2.2-1
			c-1.7,0-2.9,1.3-2.9,3.1c0,1.8,1.3,3.1,2.9,3.1c0.9,0,1.7-0.5,2.1-0.9v-1.7h-2.7v-0.5h3.3v2.5c-0.6,0.7-1.6,1.2-2.7,1.2
			C548.3,437,546.7,435.6,546.7,433.4z"/>
		<path fill="#079B3C" d="M559.5,436.9l-4.4-6v6h-0.6v-7h0.6l4.4,5.9v-5.9h0.6v7H559.5z"/>
		<path d="M378.1,464.3v-1.1c-0.8,0.9-1.8,1.3-3.1,1.3c-1.6,0-3.2-1.1-3.2-3.1c0-2,1.6-3,3.2-3c1.3,0,2.3,0.4,3.1,1.3v-1.9
			c0-1.4-1.1-2.1-2.5-2.1c-1.1,0-2,0.4-2.9,1.3l-0.5-0.7c0.9-1,2-1.5,3.5-1.5c1.9,0,3.3,0.9,3.3,2.9v6.4H378.1z M378.1,462.5v-2
			c-0.6-0.8-1.7-1.3-2.8-1.3c-1.5,0-2.5,1-2.5,2.3c0,1.3,1,2.3,2.5,2.3C376.4,463.7,377.4,463.3,378.1,462.5z"/>
		<path d="M382.1,464.3v-9.2h1v1.6c0.8-1,1.8-1.8,3.1-1.8v1.1c-0.2,0-0.3,0-0.5,0c-0.9,0-2.2,0.8-2.6,1.6v6.7H382.1z"/>
		<path d="M387.6,459.7c0-2.7,1.9-4.8,4.4-4.8c2.8,0,4.3,2.2,4.3,4.9v0.3h-7.7c0.1,2,1.4,3.6,3.6,3.6c1.2,0,2.2-0.4,3-1.3l0.5,0.6
			c-0.9,0.9-2.1,1.5-3.6,1.5C389.5,464.5,387.6,462.5,387.6,459.7z M392,455.7c-2.2,0-3.2,1.9-3.3,3.5h6.7
			C395.3,457.7,394.3,455.7,392,455.7z"/>
		<path d="M403.8,464.3v-12.6h1v5c0.7-1,1.9-1.7,3.2-1.7c2.4,0,4.1,1.9,4.1,4.8c0,2.9-1.7,4.8-4.1,4.8c-1.4,0-2.5-0.7-3.2-1.7v1.5
			H403.8z M407.8,463.6c2,0,3.2-1.7,3.2-3.9c0-2.2-1.2-3.9-3.2-3.9c-1.3,0-2.5,0.8-3,1.7v4.5C405.3,462.8,406.5,463.6,407.8,463.6z"
			/>
		<path d="M420.7,464.3v-1.3c-0.8,0.8-2,1.6-3.3,1.6c-1.9,0-2.9-0.9-2.9-2.9v-6.4h1v6.2c0,1.8,0.9,2.3,2.2,2.3c1.2,0,2.4-0.7,3-1.5
			v-7h1v9.2H420.7z"/>
		<path d="M424.5,452.9c0-0.4,0.4-0.7,0.8-0.7c0.4,0,0.8,0.3,0.8,0.7c0,0.4-0.3,0.8-0.8,0.8C424.9,453.7,424.5,453.3,424.5,452.9z
			 M424.8,464.3v-9.2h1v9.2H424.8z"/>
		<path d="M428.8,464.3v-12.6h1v12.6H428.8z"/>
		<path d="M439.6,464.3v-1.5c-0.6,0.9-1.8,1.7-3.2,1.7c-2.4,0-4.1-1.9-4.1-4.8c0-2.9,1.7-4.8,4.1-4.8c1.3,0,2.4,0.7,3.2,1.7v-5h1
			v12.6H439.6z M439.6,462v-4.5c-0.5-0.9-1.7-1.7-3-1.7c-2,0-3.2,1.7-3.2,3.9c0,2.2,1.2,3.9,3.2,3.9
			C437.9,463.6,439.1,462.8,439.6,462z"/>
		<path d="M443.5,452.9c0-0.4,0.4-0.7,0.8-0.7c0.4,0,0.8,0.3,0.8,0.7c0,0.4-0.3,0.8-0.8,0.8C443.8,453.7,443.5,453.3,443.5,452.9z
			 M443.7,464.3v-9.2h1v9.2H443.7z"/>
		<path d="M453.9,464.3v-6.2c0-1.8-0.9-2.3-2.2-2.3c-1.2,0-2.4,0.7-3,1.6v6.9h-1v-9.2h1v1.4c0.7-0.8,2-1.6,3.3-1.6
			c1.9,0,2.9,0.9,2.9,3v6.4H453.9z"/>
		<path d="M458,466.6l0.6-0.8c0.8,0.9,1.7,1.3,3,1.3c1.7,0,3.1-0.8,3.1-2.9v-1.4c-0.6,0.9-1.8,1.7-3.2,1.7c-2.4,0-4.1-1.8-4.1-4.8
			c0-2.9,1.7-4.8,4.1-4.8c1.3,0,2.4,0.7,3.2,1.7v-1.5h1v9.1c0,2.8-1.9,3.8-4.1,3.8C460.1,468,459.1,467.7,458,466.6z M464.7,461.9
			v-4.5c-0.5-0.9-1.7-1.7-3-1.7c-2,0-3.2,1.7-3.2,3.9c0,2.2,1.2,3.9,3.2,3.9C463,463.5,464.2,462.8,464.7,461.9z"/>
		<path d="M473.9,462.5V456h-1.5v-0.9h1.5v-2.5h1v2.5h1.9v0.9h-1.9v6.4c0,0.7,0.3,1.2,0.9,1.2c0.4,0,0.8-0.2,1-0.4l0.4,0.8
			c-0.4,0.3-0.8,0.6-1.6,0.6C474.5,464.5,473.9,463.7,473.9,462.5z"/>
		<path d="M485.1,464.3V458c0-1.8-0.9-2.3-2.2-2.3c-1.2,0-2.4,0.7-3,1.6v6.9h-1v-12.6h1v4.9c0.7-0.8,2-1.6,3.3-1.6
			c1.9,0,2.9,0.9,2.9,2.9v6.4H485.1z"/>
		<path d="M488.6,459.7c0-2.7,1.9-4.8,4.4-4.8c2.8,0,4.3,2.2,4.3,4.9v0.3h-7.7c0.1,2,1.4,3.6,3.6,3.6c1.2,0,2.2-0.4,3-1.3l0.5,0.6
			c-0.9,0.9-2.1,1.5-3.6,1.5C490.5,464.5,488.6,462.5,488.6,459.7z M493,455.7c-2.2,0-3.2,1.9-3.3,3.5h6.7
			C496.3,457.7,495.3,455.7,493,455.7z"/>
		<path d="M505.1,464.3V456h-1.5v-0.9h1.5v-0.8c0-1.8,1-2.8,2.5-2.8c0.5,0,0.9,0.1,1.2,0.3l-0.3,0.8c-0.2-0.1-0.5-0.2-0.8-0.2
			c-1,0-1.6,0.7-1.6,2v0.8h1.9v0.9h-1.9v8.3H505.1z M509.5,452.9c0-0.4,0.4-0.7,0.8-0.7c0.4,0,0.8,0.3,0.8,0.7
			c0,0.4-0.3,0.8-0.8,0.8C509.9,453.7,509.5,453.3,509.5,452.9z M509.8,464.3v-9.2h1v9.2H509.8z"/>
		<path d="M513.8,464.3v-9.2h1v1.6c0.8-1,1.8-1.8,3.1-1.8v1.1c-0.2,0-0.3,0-0.5,0c-0.9,0-2.2,0.8-2.6,1.6v6.7H513.8z"/>
		<path d="M519,463l0.6-0.7c0.6,0.7,1.7,1.3,3,1.3c1.5,0,2.4-0.8,2.4-1.9c0-2.5-5.8-1.1-5.8-4.4c0-1.4,1.2-2.5,3.3-2.5
			c1.6,0,2.6,0.6,3.3,1.3l-0.5,0.7c-0.5-0.7-1.5-1.2-2.7-1.2c-1.4,0-2.3,0.7-2.3,1.7c0,2.3,5.8,0.9,5.8,4.4c0,1.5-1.1,2.7-3.4,2.7
			C521.1,464.5,520,464,519,463z"/>
		<path d="M528.7,462.5V456h-1.5v-0.9h1.5v-2.5h1v2.5h1.9v0.9h-1.9v6.4c0,0.7,0.3,1.2,0.9,1.2c0.4,0,0.8-0.2,1-0.4l0.4,0.8
			c-0.4,0.3-0.8,0.6-1.6,0.6C529.3,464.5,528.7,463.7,528.7,462.5z"/>
		<path d="M373.2,483.8v5h-1v-12.6h1v1.4c0.6-0.9,1.8-1.7,3.2-1.7c2.4,0,4.1,1.9,4.1,4.8c0,2.9-1.6,4.8-4.1,4.8
			C375.1,485.5,374,484.9,373.2,483.8z M379.4,480.7c0-2.2-1.2-3.9-3.2-3.9c-1.3,0-2.5,0.8-3,1.6v4.5c0.5,0.9,1.7,1.7,3,1.7
			C378.3,484.6,379.4,482.9,379.4,480.7z"/>
		<path d="M383,485.3v-9.2h1v1.6c0.8-1,1.8-1.8,3.1-1.8v1.1c-0.2,0-0.3,0-0.5,0c-0.9,0-2.2,0.8-2.6,1.6v6.7H383z"/>
		<path d="M388.4,480.7c0-2.7,1.7-4.8,4.4-4.8c2.7,0,4.4,2.1,4.4,4.8c0,2.7-1.7,4.8-4.4,4.8C390.2,485.5,388.4,483.4,388.4,480.7z
			 M396.2,480.7c0-2-1.2-3.9-3.4-3.9c-2.1,0-3.3,1.9-3.3,3.9c0,2,1.2,3.9,3.3,3.9C395,484.6,396.2,482.8,396.2,480.7z"/>
		<path d="M400,483.5V477h-1.5v-0.9h1.5v-2.5h1v2.5h1.9v0.9H401v6.4c0,0.7,0.3,1.2,0.9,1.2c0.4,0,0.8-0.2,1-0.4l0.4,0.8
			c-0.4,0.3-0.8,0.6-1.6,0.6C400.6,485.5,400,484.8,400,483.5z"/>
		<path d="M404.5,480.7c0-2.7,1.7-4.8,4.4-4.8c2.7,0,4.4,2.1,4.4,4.8c0,2.7-1.7,4.8-4.4,4.8C406.2,485.5,404.5,483.4,404.5,480.7z
			 M412.2,480.7c0-2-1.2-3.9-3.4-3.9c-2.1,0-3.3,1.9-3.3,3.9c0,2,1.2,3.9,3.3,3.9C411,484.6,412.2,482.8,412.2,480.7z"/>
		<path d="M416,483.5V477h-1.5v-0.9h1.5v-2.5h1v2.5h1.9v0.9H417v6.4c0,0.7,0.3,1.2,0.9,1.2c0.4,0,0.8-0.2,1-0.4l0.4,0.8
			c-0.4,0.3-0.8,0.6-1.6,0.6C416.6,485.5,416,484.8,416,483.5z"/>
		<path d="M420.6,488c0.2,0.1,0.6,0.2,0.8,0.2c0.6,0,1-0.2,1.4-1.1l0.7-1.6l-3.9-9.2h1.1l3.3,8l3.3-8h1.1l-4.7,11.2
			c-0.5,1.2-1.3,1.7-2.3,1.7c-0.3,0-0.7-0.1-1-0.1L420.6,488z"/>
		<path d="M431.1,483.8v5h-1v-12.6h1v1.4c0.6-0.9,1.8-1.7,3.2-1.7c2.4,0,4.1,1.9,4.1,4.8c0,2.9-1.6,4.8-4.1,4.8
			C433,485.5,431.9,484.9,431.1,483.8z M437.3,480.7c0-2.2-1.2-3.9-3.2-3.9c-1.3,0-2.5,0.8-3,1.6v4.5c0.5,0.9,1.7,1.7,3,1.7
			C436.2,484.6,437.3,482.9,437.3,480.7z"/>
		<path d="M440.3,480.7c0-2.7,1.9-4.8,4.4-4.8c2.8,0,4.3,2.2,4.3,4.9v0.3h-7.7c0.1,2,1.4,3.6,3.6,3.6c1.2,0,2.2-0.4,3-1.3l0.5,0.6
			c-0.9,0.9-2.1,1.5-3.6,1.5C442.3,485.5,440.3,483.5,440.3,480.7z M444.7,476.8c-2.2,0-3.2,1.9-3.3,3.5h6.7
			C448.1,478.7,447,476.8,444.7,476.8z"/>
	</g>
	<g>
		<path d="M810.5,407.4c0-3.8,2.7-6.5,6.5-6.5c3.8,0,6.5,2.8,6.5,6.5c0,3.8-2.7,6.5-6.5,6.5C813.2,414,810.5,411.2,810.5,407.4z
			 M821.2,407.4c0-2.6-1.6-4.6-4.2-4.6c-2.6,0-4.2,2-4.2,4.6c0,2.6,1.6,4.6,4.2,4.6C819.5,412,821.2,410,821.2,407.4z"/>
		<path d="M825,409.2c0-2.8,2-4.8,4.7-4.8c1.8,0,2.9,0.8,3.5,1.6l-1.3,1.2c-0.5-0.7-1.2-1.1-2.1-1.1c-1.7,0-2.8,1.2-2.8,3
			c0,1.8,1.1,3.1,2.8,3.1c0.9,0,1.6-0.4,2.1-1.1l1.3,1.2c-0.6,0.9-1.7,1.6-3.5,1.6C826.9,414,825,411.9,825,409.2z"/>
		<path d="M835.3,411.6v-5.3h-1.5v-1.7h1.5v-2.5h2v2.5h1.9v1.7h-1.9v4.8c0,0.6,0.3,1.1,0.9,1.1c0.4,0,0.7-0.1,0.9-0.3l0.5,1.5
			c-0.4,0.3-0.9,0.6-1.9,0.6C836.2,414,835.3,413.1,835.3,411.6z"/>
		<path d="M848.2,413.7V404l-2.1,2.1l-1.3-1.3l3.6-3.7h1.9v12.6H848.2z"/>
		<path d="M852.7,413.7V412c4.9-3.7,6.8-5.4,6.8-7.2c0-1.3-1.1-1.9-2.3-1.9c-1.5,0-2.6,0.6-3.4,1.5l-1.3-1.5c1.1-1.3,2.9-2,4.7-2
			c2.4,0,4.6,1.4,4.6,3.9c0,2.3-2.1,4.4-5.5,7h5.6v2H852.7z"/>
		<path d="M811.3,443.2v-12.6h1.1v12.6H811.3z"/>
		<path d="M821.7,443.2V437c0-1.8-0.9-2.3-2.2-2.3c-1.2,0-2.4,0.7-3,1.6v6.9h-1v-9.2h1v1.4c0.7-0.8,2-1.6,3.3-1.6
			c1.9,0,2.9,0.9,2.9,3v6.4H821.7z"/>
		<path d="M825.5,431.9c0-0.4,0.4-0.7,0.8-0.7c0.4,0,0.8,0.3,0.8,0.7c0,0.4-0.3,0.8-0.8,0.8C825.8,432.6,825.5,432.3,825.5,431.9z
			 M825.7,443.2v-9.2h1v9.2H825.7z"/>
		<path d="M830,441.4v-6.5h-1.5v-0.9h1.5v-2.5h1v2.5h1.9v0.9H831v6.4c0,0.7,0.3,1.2,0.9,1.2c0.4,0,0.8-0.2,1-0.4l0.4,0.8
			c-0.4,0.3-0.8,0.6-1.6,0.6C830.6,443.4,830,442.7,830,441.4z"/>
		<path d="M834.7,431.9c0-0.4,0.4-0.7,0.8-0.7c0.4,0,0.8,0.3,0.8,0.7c0,0.4-0.3,0.8-0.8,0.8C835.1,432.6,834.7,432.3,834.7,431.9z
			 M835,443.2v-9.2h1v9.2H835z"/>
		<path d="M844.9,443.2v-1.1c-0.8,0.9-1.8,1.3-3.1,1.3c-1.6,0-3.2-1.1-3.2-3.1c0-2,1.6-3,3.2-3c1.3,0,2.3,0.4,3.1,1.3v-1.9
			c0-1.4-1.1-2.1-2.5-2.1c-1.1,0-2,0.4-2.9,1.3l-0.5-0.7c0.9-1,2-1.5,3.5-1.5c1.9,0,3.3,0.9,3.3,2.9v6.4H844.9z M844.9,441.4v-2
			c-0.6-0.8-1.7-1.3-2.8-1.3c-1.5,0-2.5,1-2.5,2.3c0,1.3,1,2.3,2.5,2.3C843.2,442.7,844.2,442.2,844.9,441.4z"/>
		<path d="M848.9,443.2v-12.6h1v12.6H848.9z"/>
		<path fill="#079B3C" d="M860.9,443.2l1.1-3.3h-1.9l-1.1,3.3h-1.5l1.1-3.3h-1.9l0.4-1.3h1.9l1.1-3.4h-1.9l0.4-1.3h2l1.1-3.3h1.5
			l-1.1,3.3h1.9l1.1-3.3h1.5l-1.1,3.3h1.9l-0.4,1.3h-2l-1.1,3.4h2l-0.4,1.3h-2l-1.1,3.3H860.9z M863.6,435.2h-1.9l-1.1,3.4h1.9
			L863.6,435.2z"/>
		<path fill="#079B3C" d="M869.5,441.1v-5.3H868v-1.7h1.5v-2.5h2v2.5h1.9v1.7h-1.9v4.8c0,0.6,0.3,1.1,0.9,1.1c0.4,0,0.7-0.1,0.9-0.3
			l0.5,1.5c-0.4,0.3-0.9,0.6-1.9,0.6C870.3,443.4,869.5,442.6,869.5,441.1z"/>
		<path fill="#079B3C" d="M875.2,443.2v-9.2h2v1.3c0.7-0.9,1.8-1.6,3-1.6v2c-0.2,0-0.4-0.1-0.6-0.1c-0.8,0-2,0.6-2.3,1.2v6.2H875.2z
			"/>
		<path fill="#079B3C" d="M887.3,443.2v-1c-0.7,0.8-1.7,1.2-3,1.2c-1.5,0-3.2-1-3.2-3c0-2.1,1.7-3,3.2-3c1.2,0,2.3,0.4,3,1.2v-1.4
			c0-1.1-0.9-1.7-2.1-1.7c-1,0-1.9,0.4-2.7,1.2l-0.8-1.4c1.1-1,2.4-1.5,3.8-1.5c2,0,3.8,0.9,3.8,3.3v6.1H887.3z M887.3,441.1v-1.4
			c-0.5-0.6-1.3-0.9-2.2-0.9c-1.1,0-2,0.6-2,1.6c0,1,0.8,1.6,2,1.6C886,442.1,886.9,441.7,887.3,441.1z"/>
		<path fill="#079B3C" d="M891.3,438.6c0-2.8,2-4.8,4.7-4.8c1.8,0,2.9,0.8,3.5,1.6l-1.3,1.2c-0.5-0.7-1.2-1.1-2.1-1.1
			c-1.7,0-2.8,1.2-2.8,3c0,1.8,1.1,3.1,2.8,3.1c0.9,0,1.6-0.4,2.1-1.1l1.3,1.2c-0.6,0.9-1.7,1.6-3.5,1.6
			C893.3,443.4,891.3,441.4,891.3,438.6z"/>
		<path fill="#079B3C" d="M901.7,441.1v-5.3h-1.5v-1.7h1.5v-2.5h2v2.5h1.9v1.7h-1.9v4.8c0,0.6,0.3,1.1,0.9,1.1
			c0.4,0,0.7-0.1,0.9-0.3l0.5,1.5c-0.4,0.3-0.9,0.6-1.9,0.6C902.5,443.4,901.7,442.6,901.7,441.1z"/>
		<path fill="#079B3C" d="M907.1,431.7c0-0.7,0.6-1.2,1.2-1.2c0.7,0,1.2,0.6,1.2,1.2c0,0.7-0.5,1.2-1.2,1.2
			C907.7,432.9,907.1,432.4,907.1,431.7z M907.3,443.2v-9.2h2v9.2H907.3z"/>
		<path fill="#079B3C" d="M911.3,438.6c0-2.6,1.8-4.8,4.7-4.8c2.9,0,4.7,2.2,4.7,4.8c0,2.6-1.8,4.8-4.7,4.8
			C913.1,443.4,911.3,441.3,911.3,438.6z M918.7,438.6c0-1.6-0.9-3-2.7-3c-1.7,0-2.6,1.4-2.6,3c0,1.6,0.9,3.1,2.6,3.1
			C917.7,441.7,918.7,440.2,918.7,438.6z"/>
		<path fill="#079B3C" d="M928.9,443.2v-5.7c0-1.4-0.7-1.9-1.8-1.9c-1,0-1.9,0.6-2.3,1.2v6.4h-2v-9.2h2v1.3c0.6-0.7,1.8-1.5,3.2-1.5
			c2,0,3,1.1,3,2.9v6.4H928.9z"/>
		<path d="M811.3,464.3v-9.2h1v1.6c0.8-1,1.8-1.8,3.1-1.8v1.1c-0.2,0-0.3,0-0.5,0c-0.9,0-2.2,0.8-2.6,1.6v6.7H811.3z"/>
		<path d="M816.8,459.7c0-2.7,1.9-4.8,4.4-4.8c2.8,0,4.3,2.2,4.3,4.9v0.3h-7.7c0.1,2,1.4,3.6,3.6,3.6c1.2,0,2.2-0.4,3-1.3l0.5,0.6
			c-0.9,0.9-2.1,1.5-3.6,1.5C818.7,464.5,816.8,462.5,816.8,459.7z M821.2,455.7c-2.2,0-3.2,1.9-3.3,3.5h6.7
			C824.5,457.7,823.5,455.7,821.2,455.7z"/>
		<path d="M833.9,464.3v-1.1c-0.8,0.9-1.8,1.3-3.1,1.3c-1.6,0-3.2-1.1-3.2-3.1c0-2,1.6-3,3.2-3c1.3,0,2.3,0.4,3.1,1.3v-1.9
			c0-1.4-1.1-2.1-2.5-2.1c-1.1,0-2,0.4-2.9,1.3l-0.5-0.7c0.9-1,2-1.5,3.5-1.5c1.9,0,3.3,0.9,3.3,2.9v6.4H833.9z M833.9,462.5v-2
			c-0.6-0.8-1.7-1.3-2.8-1.3c-1.5,0-2.5,1-2.5,2.3c0,1.3,1,2.3,2.5,2.3C832.2,463.7,833.2,463.3,833.9,462.5z"/>
		<path d="M837.4,459.7c0-2.7,1.8-4.8,4.5-4.8c1.6,0,2.5,0.6,3.2,1.6l-0.7,0.6c-0.7-0.9-1.5-1.3-2.5-1.3c-2.1,0-3.4,1.7-3.4,3.9
			c0,2.2,1.3,3.9,3.4,3.9c1,0,1.8-0.4,2.5-1.3l0.7,0.6c-0.7,0.9-1.6,1.6-3.2,1.6C839.1,464.5,837.4,462.3,837.4,459.7z"/>
		<path d="M853.4,464.3V458c0-1.8-0.9-2.3-2.2-2.3c-1.2,0-2.4,0.7-3,1.6v6.9h-1v-12.6h1v4.9c0.7-0.8,2-1.6,3.3-1.6
			c1.9,0,2.9,0.9,2.9,2.9v6.4H853.4z"/>
		<path d="M857,459.7c0-2.7,1.9-4.8,4.4-4.8c2.8,0,4.3,2.2,4.3,4.9v0.3H858c0.1,2,1.4,3.6,3.6,3.6c1.2,0,2.2-0.4,3-1.3l0.5,0.6
			c-0.9,0.9-2.1,1.5-3.6,1.5C858.9,464.5,857,462.5,857,459.7z M861.4,455.7c-2.2,0-3.2,1.9-3.3,3.5h6.7
			C864.7,457.7,863.6,455.7,861.4,455.7z"/>
		<path d="M867.4,463l0.6-0.7c0.6,0.7,1.7,1.3,3,1.3c1.5,0,2.4-0.8,2.4-1.9c0-2.5-5.8-1.1-5.8-4.4c0-1.4,1.2-2.5,3.3-2.5
			c1.6,0,2.6,0.6,3.3,1.3l-0.5,0.7c-0.5-0.7-1.5-1.2-2.7-1.2c-1.4,0-2.3,0.7-2.3,1.7c0,2.3,5.8,0.9,5.8,4.4c0,1.5-1.1,2.7-3.4,2.7
			C869.5,464.5,868.3,464,867.4,463z"/>
		<path d="M883.5,464.3v-11.2l-2,2.2l-0.7-0.7l2.8-2.9h1v12.6H883.5z"/>
		<path d="M887.2,457.9c0-3,1.3-6.5,4.7-6.5c3.4,0,4.7,3.5,4.7,6.5c0,3-1.3,6.5-4.7,6.5C888.5,464.5,887.2,460.9,887.2,457.9z
			 M895.4,457.9c0-2.6-0.9-5.5-3.5-5.5c-2.7,0-3.5,2.9-3.5,5.5c0,2.6,0.9,5.5,3.5,5.5C894.5,463.5,895.4,460.5,895.4,457.9z"/>
		<path d="M898.7,457.9c0-3,1.3-6.5,4.7-6.5c3.4,0,4.7,3.5,4.7,6.5c0,3-1.3,6.5-4.7,6.5C900,464.5,898.7,460.9,898.7,457.9z
			 M906.9,457.9c0-2.6-0.9-5.5-3.5-5.5c-2.7,0-3.5,2.9-3.5,5.5c0,2.6,0.9,5.5,3.5,5.5C906.1,463.5,906.9,460.5,906.9,457.9z"/>
		<path d="M916.6,462.8v5h-1v-12.6h1v1.4c0.6-0.9,1.8-1.7,3.2-1.7c2.4,0,4.1,1.9,4.1,4.8c0,2.9-1.6,4.8-4.1,4.8
			C918.5,464.5,917.3,463.8,916.6,462.8z M922.8,459.7c0-2.2-1.2-3.9-3.2-3.9c-1.3,0-2.5,0.8-3,1.6v4.5c0.5,0.9,1.7,1.7,3,1.7
			C921.6,463.6,922.8,461.9,922.8,459.7z"/>
		<path d="M932.2,464.3v-1.1c-0.8,0.9-1.8,1.3-3.1,1.3c-1.6,0-3.2-1.1-3.2-3.1c0-2,1.6-3,3.2-3c1.3,0,2.3,0.4,3.1,1.3v-1.9
			c0-1.4-1.1-2.1-2.5-2.1c-1.1,0-2,0.4-2.9,1.3l-0.5-0.7c0.9-1,2-1.5,3.5-1.5c1.9,0,3.3,0.9,3.3,2.9v6.4H932.2z M932.2,462.5v-2
			c-0.6-0.8-1.7-1.3-2.8-1.3c-1.5,0-2.5,1-2.5,2.3c0,1.3,1,2.3,2.5,2.3C930.5,463.7,931.5,463.3,932.2,462.5z"/>
		<path d="M935.9,452.9c0-0.4,0.4-0.7,0.8-0.7c0.4,0,0.8,0.3,0.8,0.7c0,0.4-0.3,0.8-0.8,0.8C936.3,453.7,935.9,453.3,935.9,452.9z
			 M936.2,464.3v-9.2h1v9.2H936.2z"/>
		<path d="M947,464.3v-1.5c-0.6,0.9-1.8,1.7-3.2,1.7c-2.4,0-4.1-1.9-4.1-4.8c0-2.9,1.7-4.8,4.1-4.8c1.3,0,2.4,0.7,3.2,1.7v-5h1v12.6
			H947z M947,462v-4.5c-0.5-0.9-1.7-1.7-3-1.7c-2,0-3.2,1.7-3.2,3.9c0,2.2,1.2,3.9,3.2,3.9C945.3,463.6,946.5,462.8,947,462z"/>
		<path d="M810.8,480.7c0-2.7,1.8-4.8,4.5-4.8c1.6,0,2.5,0.6,3.2,1.6l-0.7,0.6c-0.7-0.9-1.5-1.3-2.5-1.3c-2.1,0-3.4,1.7-3.4,3.9
			c0,2.2,1.3,3.9,3.4,3.9c1,0,1.8-0.4,2.5-1.3l0.7,0.6c-0.7,0.9-1.6,1.6-3.2,1.6C812.5,485.5,810.8,483.4,810.8,480.7z"/>
		<path d="M826.8,485.3v-1.3c-0.8,0.8-2,1.6-3.3,1.6c-1.9,0-2.9-0.9-2.9-2.9v-6.4h1v6.2c0,1.8,0.9,2.3,2.2,2.3c1.2,0,2.4-0.7,3-1.5
			v-7h1v9.2H826.8z"/>
		<path d="M830.1,484.1l0.6-0.7c0.6,0.7,1.7,1.3,3,1.3c1.5,0,2.4-0.8,2.4-1.9c0-2.5-5.8-1.1-5.8-4.4c0-1.4,1.2-2.5,3.3-2.5
			c1.6,0,2.6,0.6,3.3,1.3l-0.5,0.7c-0.5-0.7-1.5-1.2-2.7-1.2c-1.4,0-2.3,0.7-2.3,1.7c0,2.3,5.8,0.9,5.8,4.4c0,1.5-1.1,2.7-3.4,2.7
			C832.1,485.5,831,485.1,830.1,484.1z"/>
		<path d="M839.8,483.5V477h-1.5v-0.9h1.5v-2.5h1v2.5h1.9v0.9h-1.9v6.4c0,0.7,0.3,1.2,0.9,1.2c0.4,0,0.8-0.2,1-0.4l0.4,0.8
			c-0.4,0.3-0.8,0.6-1.6,0.6C840.3,485.5,839.8,484.8,839.8,483.5z"/>
		<path d="M844.3,480.7c0-2.7,1.7-4.8,4.4-4.8c2.7,0,4.4,2.1,4.4,4.8c0,2.7-1.7,4.8-4.4,4.8C846,485.5,844.3,483.4,844.3,480.7z
			 M852,480.7c0-2-1.2-3.9-3.4-3.9c-2.1,0-3.3,1.9-3.3,3.9c0,2,1.2,3.9,3.3,3.9C850.8,484.6,852,482.8,852,480.7z"/>
		<path d="M866.5,485.3v-6.4c0-1.3-0.6-2.1-1.8-2.1c-1,0-2.1,0.7-2.6,1.6v6.9h-1v-6.4c0-1.3-0.5-2.1-1.8-2.1c-1,0-2.1,0.7-2.6,1.6
			v6.9h-1v-9.2h1v1.4c0.4-0.6,1.6-1.6,3-1.6c1.4,0,2.2,0.8,2.4,1.7c0.5-0.9,1.7-1.7,3-1.7c1.7,0,2.5,0.9,2.5,2.8v6.6H866.5z"/>
		<path d="M870,480.7c0-2.7,1.9-4.8,4.4-4.8c2.8,0,4.3,2.2,4.3,4.9v0.3h-7.7c0.1,2,1.4,3.6,3.6,3.6c1.2,0,2.2-0.4,3-1.3l0.5,0.6
			c-0.9,0.9-2.1,1.5-3.6,1.5C871.9,485.5,870,483.5,870,480.7z M874.4,476.8c-2.2,0-3.2,1.9-3.3,3.5h6.7
			C877.7,478.7,876.7,476.8,874.4,476.8z"/>
		<path d="M881.3,485.3v-9.2h1v1.6c0.8-1,1.8-1.8,3.1-1.8v1.1c-0.2,0-0.3,0-0.5,0c-0.9,0-2.2,0.8-2.6,1.6v6.7H881.3z"/>
		<path d="M886.5,484.1l0.6-0.7c0.6,0.7,1.7,1.3,3,1.3c1.5,0,2.4-0.8,2.4-1.9c0-2.5-5.8-1.1-5.8-4.4c0-1.4,1.2-2.5,3.3-2.5
			c1.6,0,2.6,0.6,3.3,1.3l-0.5,0.7c-0.5-0.7-1.5-1.2-2.7-1.2c-1.4,0-2.3,0.7-2.3,1.7c0,2.3,5.8,0.9,5.8,4.4c0,1.5-1.1,2.7-3.4,2.7
			C888.5,485.5,887.4,485.1,886.5,484.1z"/>
	</g>
	<g>
		<path d="M443.4,286.1l-0.9-2.4h-5.8l-0.9,2.4h-2.5l5-12.6h2.8l5,12.6H443.4z M439.5,275.7l-2.3,6h4.5L439.5,275.7z"/>
		<path d="M449.2,284.8v4.8h-2v-12.6h2v1.3c0.7-0.9,1.7-1.5,2.9-1.5c2.4,0,4.1,1.8,4.1,4.8c0,3-1.7,4.8-4.1,4.8
			C451,286.3,449.9,285.8,449.2,284.8z M454.1,281.5c0-1.8-1-3-2.6-3c-0.9,0-1.9,0.5-2.3,1.2v3.6c0.4,0.7,1.4,1.2,2.3,1.2
			C453.1,284.5,454.1,283.3,454.1,281.5z"/>
		<path d="M458.1,286.1v-9.2h2v1.3c0.7-0.9,1.8-1.6,3-1.6v2c-0.2,0-0.4-0.1-0.6-0.1c-0.8,0-2,0.6-2.3,1.2v6.2H458.1z"/>
		<path d="M471.9,286.1v-9.8l-2.1,2.1l-1.3-1.3l3.6-3.7h1.9v12.6H471.9z"/>
		<path d="M476.4,286.1v-1.7c4.9-3.7,6.8-5.4,6.8-7.2c0-1.3-1.1-1.9-2.3-1.9c-1.5,0-2.6,0.6-3.4,1.5l-1.3-1.5c1.1-1.3,2.9-2,4.7-2
			c2.4,0,4.6,1.4,4.6,3.9c0,2.3-2.1,4.4-5.5,7h5.6v2H476.4z"/>
		<path fill="#079B3C" d="M433.8,310.9c0-4.1,3.6-7.5,7.5-7.5c3.6,0,6,2.7,6,5.9c0,3.1-1.9,4.6-3.5,4.6c-1.1,0-1.7-0.7-1.8-1.5
			l0-0.1c-0.7,0.9-1.7,1.6-2.8,1.6c-1.8,0-2.9-1.3-2.9-3.1c0-2.6,2.1-4.7,4.4-4.7c1.2,0,2,0.6,2.4,1.3l0.2-1.1h1.8l-1,4.8
			c0,0.1,0,0.3,0,0.4c0,0.6,0.3,0.9,0.8,0.9c0.7,0,1.9-0.9,1.9-3.2c0-3.1-2.1-5.2-5.3-5.2c-3.6,0-6.7,3.2-6.7,6.7
			c0,3,2.3,5.3,5.4,5.3c1.3,0,2.5-0.4,3.5-1l0.4,0.5c-1.2,0.8-2.5,1.2-3.9,1.2C436.4,316.8,433.8,314.3,433.8,310.9z M442.2,311.1
			l0.5-2.4c-0.2-0.5-0.8-1.2-1.7-1.2c-1.7,0-2.9,1.6-2.9,3.1c0,1.1,0.6,1.9,1.7,1.9C440.9,312.5,441.7,311.7,442.2,311.1z"/>
		<path fill="#079B3C" d="M455.7,315.5v-1.2c-0.7,0.9-1.8,1.5-2.9,1.5c-2.3,0-4.1-1.8-4.1-4.8c0-3,1.7-4.8,4.1-4.8
			c1.1,0,2.2,0.5,2.9,1.5v-4.8h2v12.6H455.7z M455.7,312.8v-3.6c-0.5-0.7-1.4-1.2-2.4-1.2c-1.6,0-2.6,1.3-2.6,3.1c0,1.8,1,3,2.6,3
			C454.3,314,455.3,313.5,455.7,312.8z"/>
		<path fill="#079B3C" d="M465.9,315.5v-1c-0.7,0.8-1.7,1.2-3,1.2c-1.5,0-3.2-1-3.2-3c0-2.1,1.7-3,3.2-3c1.2,0,2.3,0.4,3,1.2v-1.4
			c0-1.1-0.9-1.7-2.1-1.7c-1,0-1.9,0.4-2.7,1.2l-0.8-1.4c1.1-1,2.4-1.5,3.8-1.5c2,0,3.8,0.9,3.8,3.3v6.1H465.9z M465.9,313.4v-1.4
			c-0.5-0.6-1.3-0.9-2.2-0.9c-1.1,0-2,0.6-2,1.6c0,1,0.8,1.6,2,1.6C464.6,314.4,465.4,314.1,465.9,313.4z"/>
		<path fill="#079B3C" d="M472.8,315.5l-3.7-9.2h2.1l2.7,6.9l2.7-6.9h2.1l-3.7,9.2H472.8z"/>
		<path fill="#079B3C" d="M479.7,304c0-0.7,0.6-1.2,1.2-1.2c0.7,0,1.2,0.5,1.2,1.2c0,0.7-0.5,1.2-1.2,1.2
			C480.3,305.3,479.7,304.7,479.7,304z M480,315.5v-9.2h2v9.2H480z"/>
		<path fill="#079B3C" d="M491,315.5v-1.2c-0.7,0.9-1.8,1.5-2.9,1.5c-2.3,0-4.1-1.8-4.1-4.8c0-3,1.7-4.8,4.1-4.8
			c1.1,0,2.2,0.5,2.9,1.5v-4.8h2v12.6H491z M491,312.8v-3.6c-0.5-0.7-1.4-1.2-2.4-1.2c-1.6,0-2.6,1.3-2.6,3.1c0,1.8,1,3,2.6,3
			C489.6,314,490.5,313.5,491,312.8z"/>
		<path d="M497.3,318.5l0.4-0.8c0.3,0.3,0.8,0.6,1.3,0.6c0.9,0,1.6-0.5,1.6-1.7v-10.3h1v10.3c0,1.7-0.9,2.5-2.5,2.5
			C498.4,319.2,497.9,319,497.3,318.5z M500.4,304.2c0-0.4,0.4-0.7,0.8-0.7c0.4,0,0.8,0.3,0.8,0.7c0,0.4-0.3,0.8-0.8,0.8
			C500.8,304.9,500.4,304.6,500.4,304.2z"/>
		<path d="M504.2,310.9c0-2.7,1.7-4.8,4.4-4.8c2.7,0,4.4,2.1,4.4,4.8c0,2.7-1.7,4.8-4.4,4.8C505.9,315.8,504.2,313.6,504.2,310.9z
			 M512,310.9c0-2-1.2-3.9-3.4-3.9c-2.1,0-3.3,1.9-3.3,3.9c0,2,1.2,3.9,3.3,3.9C510.8,314.9,512,313,512,310.9z"/>
		<path d="M515.3,304.2c0-0.4,0.4-0.7,0.8-0.7c0.4,0,0.8,0.3,0.8,0.7c0,0.4-0.3,0.8-0.8,0.8C515.7,304.9,515.3,304.6,515.3,304.2z
			 M515.6,315.5v-9.2h1v9.2H515.6z"/>
		<path d="M525.8,315.5v-6.2c0-1.8-0.9-2.3-2.2-2.3c-1.2,0-2.4,0.7-3,1.6v6.9h-1v-9.2h1v1.4c0.7-0.8,2-1.6,3.3-1.6
			c1.9,0,2.9,0.9,2.9,3v6.4H525.8z"/>
		<path d="M529,314.3l0.6-0.7c0.6,0.7,1.7,1.3,3,1.3c1.5,0,2.4-0.8,2.4-1.9c0-2.5-5.8-1.1-5.8-4.4c0-1.4,1.2-2.5,3.3-2.5
			c1.6,0,2.6,0.6,3.3,1.3l-0.5,0.7c-0.5-0.7-1.5-1.2-2.7-1.2c-1.4,0-2.3,0.7-2.3,1.7c0,2.3,5.8,0.9,5.8,4.4c0,1.5-1.1,2.7-3.4,2.7
			C531.1,315.8,530,315.3,529,314.3z"/>
		<path d="M440.5,336.6v-1.1c-0.8,0.9-1.8,1.3-3.1,1.3c-1.6,0-3.2-1.1-3.2-3.1c0-2,1.6-3,3.2-3c1.3,0,2.3,0.4,3.1,1.3v-1.9
			c0-1.4-1.1-2.1-2.5-2.1c-1.1,0-2,0.4-2.9,1.3l-0.5-0.7c0.9-1,2-1.5,3.5-1.5c1.9,0,3.3,0.9,3.3,2.9v6.4H440.5z M440.5,334.8v-2
			c-0.6-0.8-1.7-1.3-2.8-1.3c-1.5,0-2.5,1-2.5,2.3c0,1.3,1,2.3,2.5,2.3C438.8,336,439.9,335.6,440.5,334.8z"/>
		<path d="M443.8,335.4l0.6-0.7c0.6,0.7,1.7,1.3,3,1.3c1.5,0,2.4-0.8,2.4-1.9c0-2.5-5.8-1.1-5.8-4.4c0-1.4,1.2-2.5,3.3-2.5
			c1.6,0,2.6,0.6,3.3,1.3l-0.5,0.7c-0.5-0.7-1.5-1.2-2.7-1.2c-1.4,0-2.3,0.7-2.3,1.7c0,2.3,5.8,0.9,5.8,4.4c0,1.5-1.1,2.7-3.4,2.7
			C445.8,336.8,444.7,336.4,443.8,335.4z"/>
		<path d="M457.7,330.3c0-3.9,2.8-6.5,6.4-6.5c2,0,3.5,0.9,4.6,2.2l-0.9,0.6c-0.8-1.1-2.2-1.8-3.7-1.8c-3,0-5.3,2.3-5.3,5.6
			c0,3.3,2.3,5.6,5.3,5.6c1.5,0,2.9-0.7,3.7-1.8l0.9,0.6c-1.1,1.4-2.6,2.3-4.6,2.3C460.5,336.8,457.7,334.1,457.7,330.3z"/>
		<path d="M474.2,336.6v-11.7H470v-1h9.4v1h-4.1v11.7H474.2z"/>
		<path d="M480.6,330.3c0-3.7,2.4-6.5,6.1-6.5c3.7,0,6.1,2.8,6.1,6.5s-2.4,6.5-6.1,6.5C483,336.8,480.6,334,480.6,330.3z
			 M491.7,330.3c0-3.2-2-5.6-5-5.6c-3.1,0-5,2.3-5,5.6c0,3.2,1.9,5.6,5,5.6C489.8,335.8,491.7,333.4,491.7,330.3z"/>
	</g>
	<g>
		<path d="M622.1,285l1-1.7c0.5,0.5,1.2,1,2.2,1c1.4,0,2.2-0.9,2.2-2.3v-8.6h2.2v8.6c0,2.9-1.8,4.2-4.3,4.2
			C624.2,286.3,623,285.9,622.1,285z"/>
		<path d="M638.6,286.1v-1.2c-0.7,0.7-1.8,1.4-3.2,1.4c-2,0-2.9-1-2.9-2.9v-6.5h2v5.8c0,1.4,0.7,1.9,1.8,1.9c1,0,1.9-0.6,2.3-1.2
			v-6.4h2v9.2H638.6z"/>
		<path d="M643.1,286.1v-12.6h2v12.6H643.1z"/>
		<path d="M654.9,286.1v-9.8l-2.1,2.1l-1.3-1.3l3.6-3.7h1.9v12.6H654.9z"/>
		<path d="M659.4,286.1v-1.7c4.9-3.7,6.8-5.4,6.8-7.2c0-1.3-1.1-1.9-2.3-1.9c-1.5,0-2.6,0.6-3.4,1.5l-1.3-1.5c1.1-1.3,2.9-2,4.7-2
			c2.4,0,4.6,1.4,4.6,3.9c0,2.3-2.1,4.4-5.5,7h5.6v2H659.4z"/>
		<path fill="#079B3C" d="M626.6,315.5l1.1-3.3h-1.9l-1.1,3.3h-1.5l1.1-3.3h-1.9l0.4-1.3h1.9l1.1-3.4h-1.9l0.4-1.3h2l1.1-3.3h1.5
			l-1.1,3.3h1.9l1.1-3.3h1.5l-1.1,3.3h1.9l-0.4,1.3h-2l-1.1,3.4h2l-0.4,1.3h-2l-1.1,3.3H626.6z M629.2,307.5h-1.9l-1.1,3.4h1.9
			L629.2,307.5z"/>
		<path fill="#079B3C" d="M634,314.3l0.9-1.4c0.6,0.7,1.9,1.3,3.1,1.3c1.2,0,1.8-0.5,1.8-1.2c0-1.8-5.5-0.5-5.5-4
			c0-1.5,1.3-2.8,3.6-2.8c1.6,0,2.7,0.5,3.6,1.3l-0.8,1.4c-0.5-0.6-1.6-1.1-2.7-1.1c-1,0-1.7,0.5-1.7,1.1c0,1.6,5.5,0.4,5.5,4.1
			c0,1.6-1.3,2.8-3.8,2.8C636.3,315.8,634.9,315.3,634,314.3z"/>
		<path fill="#079B3C" d="M643.1,310.9c0-2.7,1.9-4.8,4.6-4.8c2.7,0,4.5,2.1,4.5,5v0.5h-7.1c0.2,1.4,1.2,2.5,2.9,2.5
			c0.9,0,2-0.4,2.6-1l0.9,1.3c-0.9,0.9-2.3,1.3-3.7,1.3C645.2,315.8,643.1,313.8,643.1,310.9z M647.8,307.8c-1.7,0-2.5,1.3-2.6,2.4
			h5.2C650.3,309.1,649.6,307.8,647.8,307.8z"/>
		<path fill="#079B3C" d="M653.7,310.9c0-2.7,1.9-4.8,4.6-4.8c2.7,0,4.5,2.1,4.5,5v0.5h-7.1c0.2,1.4,1.2,2.5,2.9,2.5
			c0.9,0,2-0.4,2.6-1l0.9,1.3c-0.9,0.9-2.3,1.3-3.7,1.3C655.7,315.8,653.7,313.8,653.7,310.9z M658.3,307.8c-1.7,0-2.5,1.3-2.6,2.4
			h5.2C660.9,309.1,660.1,307.8,658.3,307.8z"/>
		<path fill="#079B3C" d="M671.2,315.5v-1.2c-0.7,0.9-1.8,1.5-2.9,1.5c-2.4,0-4.1-1.8-4.1-4.8c0-3,1.7-4.8,4.1-4.8
			c1.1,0,2.2,0.5,2.9,1.5v-4.8h2v12.6H671.2z M671.2,312.8v-3.6c-0.5-0.7-1.4-1.2-2.4-1.2c-1.6,0-2.6,1.3-2.6,3.1c0,1.8,1,3,2.6,3
			C669.8,314,670.8,313.5,671.2,312.8z"/>
		<path d="M684.6,315.7c-1.9-0.1-3.4-0.9-4.3-2l0.7-0.8c0.8,0.9,2,1.7,3.6,1.8v-5.3c-1.9-0.6-3.9-1.2-3.9-3.4c0-2,1.7-3.3,3.9-3.4
			V301h0.9v1.7c1.6,0.1,2.8,0.8,3.7,1.8l-0.7,0.8c-0.8-0.9-1.8-1.4-3-1.6v4.8c1.9,0.5,4,1.3,4,3.7c0,1.6-1,3.4-4,3.6v1.7h-0.9V315.7
			z M684.6,308.2v-4.5c-1.6,0.1-2.7,1-2.7,2.3C681.9,307.3,683.1,307.8,684.6,308.2z M685.5,309.7v5.1c2.2-0.2,2.8-1.5,2.8-2.5
			C688.3,310.7,687,310.1,685.5,309.7z"/>
		<path d="M691.9,313.7l0.7-0.7c0.8,1.2,1.9,1.8,3.5,1.8c1.8,0,3.2-1.3,3.2-3.1c0-1.9-1.3-3.1-3.1-3.1c-1.2,0-2.1,0.4-3.1,1.2
			l-0.8-0.3v-6.6h7.3v1h-6.2v4.9c0.6-0.6,1.7-1.2,3-1.2c2.1,0,4,1.4,4,4c0,2.5-1.9,4.1-4.3,4.1C694,315.8,692.7,314.9,691.9,313.7z"
			/>
		<path d="M702.9,313.7l0.7-0.7c0.8,1.2,1.9,1.8,3.5,1.8c1.8,0,3.2-1.3,3.2-3.1c0-1.9-1.3-3.1-3.1-3.1c-1.2,0-2.1,0.4-3.1,1.2
			l-0.8-0.3v-6.6h7.3v1h-6.2v4.9c0.6-0.6,1.7-1.2,3-1.2c2.1,0,4,1.4,4,4c0,2.5-1.9,4.1-4.3,4.1C705.1,315.8,703.8,314.9,702.9,313.7
			z"/>
		<path d="M721.8,315.5l-5.2-6l-1.4,1.5v4.4h-1.1v-12.6h1.1v6.9l6.1-6.9h1.4l-5.4,6l5.9,6.6H721.8z"/>
		<path d="M730.1,315.5v-9.2h1v1.6c0.8-1,1.8-1.8,3.1-1.8v1.1c-0.2,0-0.3,0-0.5,0c-0.9,0-2.2,0.8-2.6,1.6v6.7H730.1z"/>
		<path d="M741.9,315.5v-1.1c-0.8,0.9-1.8,1.3-3.1,1.3c-1.6,0-3.2-1.1-3.2-3.1c0-2,1.6-3,3.2-3c1.3,0,2.3,0.4,3.1,1.3v-1.9
			c0-1.4-1.1-2.1-2.5-2.1c-1.1,0-2,0.4-2.9,1.3l-0.5-0.7c0.9-1,2-1.5,3.5-1.5c1.9,0,3.3,0.9,3.3,2.9v6.4H741.9z M741.9,313.7v-2
			c-0.6-0.8-1.7-1.3-2.8-1.3c-1.5,0-2.5,1-2.5,2.3c0,1.3,1,2.3,2.5,2.3C740.2,315,741.2,314.6,741.9,313.7z"/>
		<path d="M745.7,304.2c0-0.4,0.4-0.7,0.8-0.7c0.4,0,0.8,0.3,0.8,0.7c0,0.4-0.3,0.8-0.8,0.8C746,304.9,745.7,304.6,745.7,304.2z
			 M745.9,315.5v-9.2h1v9.2H745.9z"/>
		<path d="M749.2,314.3l0.6-0.7c0.6,0.7,1.7,1.3,3,1.3c1.5,0,2.4-0.8,2.4-1.9c0-2.5-5.8-1.1-5.8-4.4c0-1.4,1.2-2.5,3.3-2.5
			c1.6,0,2.6,0.6,3.3,1.3l-0.6,0.7c-0.5-0.7-1.5-1.2-2.7-1.2c-1.4,0-2.3,0.7-2.3,1.7c0,2.3,5.8,0.9,5.8,4.4c0,1.5-1.1,2.7-3.4,2.7
			C751.2,315.8,750.1,315.3,749.2,314.3z"/>
		<path d="M758.2,310.9c0-2.7,1.9-4.8,4.4-4.8c2.8,0,4.3,2.2,4.3,4.9v0.3h-7.7c0.1,2,1.4,3.6,3.6,3.6c1.2,0,2.2-0.4,3-1.3l0.5,0.6
			c-0.9,0.9-2.1,1.5-3.6,1.5C760.1,315.8,758.2,313.8,758.2,310.9z M762.5,307c-2.2,0-3.2,1.9-3.3,3.5h6.7
			C765.9,308.9,764.8,307,762.5,307z"/>
		<path d="M776.2,315.5v-1.5c-0.6,0.9-1.8,1.7-3.2,1.7c-2.4,0-4.1-1.9-4.1-4.8c0-2.9,1.7-4.8,4.1-4.8c1.3,0,2.4,0.7,3.2,1.7v-5h1
			v12.6H776.2z M776.2,313.2v-4.5c-0.5-0.9-1.7-1.7-3-1.7c-2,0-3.2,1.7-3.2,3.9c0,2.2,1.2,3.9,3.2,3.9
			C774.4,314.9,775.6,314.1,776.2,313.2z"/>
		<path d="M629.3,336.6v-1.1c-0.8,0.9-1.8,1.3-3.1,1.3c-1.6,0-3.2-1.1-3.2-3.1c0-2,1.6-3,3.2-3c1.3,0,2.3,0.4,3.1,1.3v-1.9
			c0-1.4-1.1-2.1-2.5-2.1c-1.1,0-2,0.4-2.9,1.3l-0.5-0.7c0.9-1,2-1.5,3.5-1.5c1.9,0,3.3,0.9,3.3,2.9v6.4H629.3z M629.3,334.8v-2
			c-0.6-0.8-1.7-1.3-2.8-1.3c-1.5,0-2.5,1-2.5,2.3c0,1.3,1,2.3,2.5,2.3C627.7,336,628.7,335.6,629.3,334.8z"/>
		<path d="M633.6,334.8v-6.5h-1.5v-0.9h1.5v-2.5h1v2.5h1.9v0.9h-1.9v6.4c0,0.7,0.3,1.2,0.9,1.2c0.4,0,0.8-0.2,1-0.4l0.4,0.8
			c-0.4,0.3-0.8,0.6-1.6,0.6C634.2,336.8,633.6,336.1,633.6,334.8z"/>
		<path d="M647.1,336.8c-1.9-0.1-3.4-0.9-4.3-2l0.7-0.8c0.8,0.9,1.9,1.7,3.6,1.8v-5.3c-1.9-0.6-3.9-1.2-3.9-3.4c0-2,1.7-3.3,3.9-3.4
			V322h0.9v1.7c1.6,0.1,2.8,0.8,3.7,1.8l-0.7,0.8c-0.8-0.9-1.8-1.4-3-1.6v4.8c2,0.5,4,1.3,4,3.7c0,1.6-1,3.4-4,3.6v1.7h-0.9V336.8z
			 M647.1,329.3v-4.5c-1.6,0.1-2.7,1-2.7,2.3C644.4,328.4,645.7,328.9,647.1,329.3z M648,330.7v5.1c2.2-0.2,2.8-1.5,2.8-2.5
			C650.9,331.8,649.5,331.2,648,330.7z"/>
		<path d="M654.1,336.6v-0.9c4.3-3.5,7.2-5.9,7.2-8.4c0-1.8-1.5-2.6-2.9-2.6c-1.6,0-2.8,0.7-3.5,1.6l-0.7-0.7c0.9-1.2,2.4-2,4.2-2
			c1.9,0,4,1.1,4,3.6c0,2.8-2.9,5.3-6.6,8.3h6.7v1H654.1z"/>
		<path d="M665.5,334.7l0.7-0.7c0.8,1.2,1.9,1.8,3.5,1.8c1.8,0,3.2-1.3,3.2-3.1c0-1.9-1.3-3.1-3.1-3.1c-1.2,0-2.1,0.4-3.1,1.2
			l-0.8-0.3v-6.6h7.3v1h-6.2v4.9c0.6-0.6,1.7-1.2,3-1.2c2.1,0,4,1.4,4,4c0,2.5-1.9,4.1-4.3,4.1C667.6,336.8,666.3,336,665.5,334.7z"
			/>
		<path d="M676.2,330.3c0-3,1.3-6.5,4.7-6.5c3.4,0,4.7,3.5,4.7,6.5c0,3-1.3,6.5-4.7,6.5C677.4,336.8,676.2,333.3,676.2,330.3z
			 M684.4,330.3c0-2.6-0.9-5.5-3.5-5.5c-2.7,0-3.5,2.9-3.5,5.5c0,2.6,0.9,5.6,3.5,5.6C683.5,335.8,684.4,332.9,684.4,330.3z"/>
		<path d="M695.9,336.6l-5.2-6l-1.4,1.5v4.4h-1.1v-12.6h1.1v6.9l6.1-6.9h1.4l-5.4,6l5.9,6.6H695.9z"/>
		<path d="M706.6,336.6l-3.9-9.2h1.1l3.3,8l3.3-8h1.1l-3.9,9.2H706.6z"/>
		<path d="M719.1,336.6v-1.1c-0.8,0.9-1.8,1.3-3.1,1.3c-1.6,0-3.2-1.1-3.2-3.1c0-2,1.6-3,3.2-3c1.3,0,2.3,0.4,3.1,1.3v-1.9
			c0-1.4-1.1-2.1-2.5-2.1c-1.1,0-2,0.4-2.9,1.3l-0.6-0.7c0.9-1,2-1.5,3.5-1.5c1.9,0,3.3,0.9,3.3,2.9v6.4H719.1z M719.1,334.8v-2
			c-0.6-0.8-1.7-1.3-2.8-1.3c-1.5,0-2.5,1-2.5,2.3c0,1.3,1,2.3,2.5,2.3C717.4,336,718.4,335.6,719.1,334.8z"/>
		<path d="M723.1,336.6v-12.6h1v12.6H723.1z"/>
	</g>
	<g>
		<path d="M938,286.1v-12.6h4.7c3.9,0,6.6,2.6,6.6,6.3c0,3.7-2.7,6.3-6.6,6.3H938z M947.1,279.7c0-2.4-1.5-4.4-4.3-4.4h-2.5v8.7h2.5
			C945.5,284.1,947.1,282.1,947.1,279.7z"/>
		<path d="M950.9,281.5c0-2.7,1.9-4.8,4.6-4.8c2.8,0,4.5,2.1,4.5,5v0.5h-7.1c0.2,1.4,1.2,2.5,2.9,2.5c0.9,0,2-0.4,2.6-1l0.9,1.3
			c-0.9,0.9-2.3,1.3-3.7,1.3C952.9,286.3,950.9,284.4,950.9,281.5z M955.5,278.3c-1.7,0-2.5,1.3-2.6,2.4h5.2
			C958,279.7,957.3,278.3,955.5,278.3z"/>
		<path d="M961.4,281.5c0-2.8,2-4.8,4.7-4.8c1.8,0,2.9,0.8,3.5,1.6l-1.3,1.2c-0.5-0.7-1.2-1.1-2.1-1.1c-1.7,0-2.8,1.2-2.8,3
			c0,1.8,1.1,3.1,2.8,3.1c0.9,0,1.6-0.4,2.1-1.1l1.3,1.2c-0.6,0.9-1.7,1.6-3.5,1.6C963.4,286.3,961.4,284.3,961.4,281.5z"/>
		<path d="M978.6,286.1v-9.8l-2.1,2.1l-1.3-1.3l3.6-3.7h1.9v12.6H978.6z"/>
		<path d="M983.1,286.1v-1.7c4.9-3.7,6.8-5.4,6.8-7.2c0-1.3-1.1-1.9-2.3-1.9c-1.5,0-2.6,0.6-3.4,1.5l-1.3-1.5c1.1-1.3,2.9-2,4.7-2
			c2.4,0,4.6,1.4,4.6,3.9c0,2.3-2.1,4.4-5.5,7h5.6v2H983.1z"/>
		<path d="M937.8,309.2c0-3.9,2.8-6.5,6.4-6.5c2,0,3.5,0.9,4.6,2.2l-0.9,0.6c-0.8-1.1-2.2-1.8-3.7-1.8c-3,0-5.3,2.3-5.3,5.6
			c0,3.3,2.3,5.6,5.3,5.6c1.5,0,2.9-0.7,3.7-1.8l0.9,0.6c-1.1,1.4-2.6,2.3-4.6,2.3C940.6,315.8,937.8,313.1,937.8,309.2z"/>
		<path d="M950.4,310.9c0-2.7,1.7-4.8,4.4-4.8c2.7,0,4.4,2.1,4.4,4.8c0,2.7-1.7,4.8-4.4,4.8C952.1,315.8,950.4,313.6,950.4,310.9z
			 M958.2,310.9c0-2-1.2-3.9-3.4-3.9c-2.1,0-3.3,1.9-3.3,3.9c0,2,1.2,3.9,3.3,3.9C957,314.9,958.2,313,958.2,310.9z"/>
		<path d="M972.7,315.5v-6.4c0-1.3-0.5-2.1-1.8-2.1c-1,0-2.1,0.7-2.6,1.6v6.9h-1v-6.4c0-1.3-0.5-2.1-1.8-2.1c-1,0-2.1,0.7-2.6,1.6
			v6.9h-1v-9.2h1v1.4c0.4-0.6,1.6-1.6,3-1.6c1.4,0,2.2,0.8,2.4,1.7c0.5-0.9,1.7-1.7,3-1.7c1.7,0,2.5,0.9,2.5,2.8v6.6H972.7z"/>
		<path d="M977.7,314v5h-1v-12.6h1v1.4c0.6-0.9,1.8-1.7,3.2-1.7c2.4,0,4.1,1.9,4.1,4.8c0,2.9-1.6,4.8-4.1,4.8
			C979.6,315.8,978.4,315.1,977.7,314z M983.9,310.9c0-2.2-1.2-3.9-3.2-3.9c-1.3,0-2.5,0.8-3,1.6v4.5c0.5,0.9,1.7,1.7,3,1.7
			C982.8,314.9,983.9,313.2,983.9,310.9z"/>
		<path d="M993.3,315.5v-1.1c-0.8,0.9-1.8,1.3-3.1,1.3c-1.6,0-3.2-1.1-3.2-3.1c0-2,1.6-3,3.2-3c1.3,0,2.3,0.4,3.1,1.3v-1.9
			c0-1.4-1.1-2.1-2.5-2.1c-1.1,0-2,0.4-2.9,1.3l-0.5-0.7c0.9-1,2-1.5,3.5-1.5c1.9,0,3.3,0.9,3.3,2.9v6.4H993.3z M993.3,313.7v-2
			c-0.6-0.8-1.7-1.3-2.8-1.3c-1.5,0-2.5,1-2.5,2.3c0,1.3,1,2.3,2.5,2.3C991.6,315,992.6,314.6,993.3,313.7z"/>
		<path d="M1003.5,315.5v-6.2c0-1.8-0.9-2.3-2.2-2.3c-1.2,0-2.4,0.7-3,1.6v6.9h-1v-9.2h1v1.4c0.7-0.8,2-1.6,3.3-1.6
			c1.9,0,2.9,0.9,2.9,3v6.4H1003.5z"/>
		<path d="M1007.1,318.2c0.2,0.1,0.6,0.2,0.8,0.2c0.6,0,1-0.2,1.4-1.1l0.7-1.6l-3.9-9.2h1.1l3.3,8l3.3-8h1.1l-4.7,11.2
			c-0.5,1.2-1.3,1.7-2.4,1.7c-0.3,0-0.7-0.1-1-0.1L1007.1,318.2z"/>
		<path fill="#079B3C" d="M1024.6,315.5l1.1-3.3h-1.9l-1.1,3.3h-1.5l1.1-3.3h-1.9l0.4-1.3h1.9l1.1-3.4h-1.9l0.4-1.3h2l1.1-3.3h1.5
			l-1.1,3.3h1.9l1.1-3.3h1.5l-1.1,3.3h1.9l-0.4,1.3h-2l-1.1,3.4h2l-0.4,1.3h-2l-1.1,3.3H1024.6z M1027.3,307.5h-1.9l-1.1,3.4h1.9
			L1027.3,307.5z"/>
		<path fill="#079B3C" d="M1034.8,314.3v4.8h-2v-12.6h2v1.3c0.7-0.9,1.7-1.5,2.9-1.5c2.4,0,4.1,1.8,4.1,4.8c0,3-1.7,4.8-4.1,4.8
			C1036.6,315.8,1035.5,315.2,1034.8,314.3z M1039.7,310.9c0-1.8-1-3-2.6-3c-0.9,0-1.9,0.5-2.4,1.2v3.6c0.4,0.7,1.4,1.2,2.4,1.2
			C1038.7,314,1039.7,312.7,1039.7,310.9z"/>
		<path fill="#079B3C" d="M1043.5,304c0-0.7,0.6-1.2,1.2-1.2c0.7,0,1.2,0.5,1.2,1.2c0,0.7-0.5,1.2-1.2,1.2
			C1044.1,305.3,1043.5,304.7,1043.5,304z M1043.7,315.5v-9.2h2v9.2H1043.7z"/>
		<path fill="#079B3C" d="M1050.7,315.5l-3.7-9.2h2.1l2.7,6.9l2.7-6.9h2.1l-3.7,9.2H1050.7z"/>
		<path fill="#079B3C" d="M1057.3,310.9c0-2.6,1.8-4.8,4.7-4.8c2.9,0,4.7,2.2,4.7,4.8c0,2.6-1.8,4.8-4.7,4.8
			C1059.1,315.8,1057.3,313.6,1057.3,310.9z M1064.6,310.9c0-1.6-0.9-3-2.7-3c-1.7,0-2.6,1.4-2.6,3c0,1.6,0.9,3.1,2.6,3.1
			C1063.7,314,1064.6,312.6,1064.6,310.9z"/>
		<path fill="#079B3C" d="M1069.1,313.4v-5.3h-1.5v-1.7h1.5v-2.5h2v2.5h1.9v1.7h-1.9v4.8c0,0.6,0.3,1.1,0.9,1.1
			c0.4,0,0.7-0.2,0.9-0.3l0.5,1.5c-0.4,0.3-0.9,0.6-1.9,0.6C1069.9,315.8,1069.1,314.9,1069.1,313.4z"/>
		<path fill="#079B3C" d="M1073.9,314.3l0.9-1.4c0.6,0.7,1.9,1.3,3.1,1.3c1.2,0,1.8-0.5,1.8-1.2c0-1.8-5.5-0.5-5.5-4
			c0-1.5,1.3-2.8,3.6-2.8c1.6,0,2.7,0.5,3.6,1.3l-0.8,1.4c-0.6-0.6-1.6-1.1-2.7-1.1c-1,0-1.7,0.5-1.7,1.1c0,1.6,5.5,0.4,5.5,4.1
			c0,1.6-1.3,2.8-3.8,2.8C1076.3,315.8,1074.9,315.3,1073.9,314.3z"/>
		<path d="M944,336.6v-1.1c-0.8,0.9-1.8,1.3-3.1,1.3c-1.6,0-3.2-1.1-3.2-3.1c0-2,1.6-3,3.2-3c1.3,0,2.3,0.4,3.1,1.3v-1.9
			c0-1.4-1.1-2.1-2.5-2.1c-1.1,0-2,0.4-2.9,1.3l-0.5-0.7c0.9-1,2-1.5,3.5-1.5c1.9,0,3.3,0.9,3.3,2.9v6.4H944z M944,334.8v-2
			c-0.6-0.8-1.7-1.3-2.8-1.3c-1.5,0-2.5,1-2.5,2.3c0,1.3,1,2.3,2.5,2.3C942.4,336,943.4,335.6,944,334.8z"/>
		<path d="M947.3,335.4l0.6-0.7c0.6,0.7,1.7,1.3,3,1.3c1.5,0,2.4-0.8,2.4-1.9c0-2.5-5.8-1.1-5.8-4.4c0-1.4,1.2-2.5,3.3-2.5
			c1.6,0,2.6,0.6,3.3,1.3l-0.6,0.7c-0.5-0.7-1.5-1.2-2.7-1.2c-1.4,0-2.3,0.7-2.3,1.7c0,2.3,5.8,0.9,5.8,4.4c0,1.5-1.1,2.7-3.4,2.7
			C949.3,336.8,948.2,336.4,947.3,335.4z"/>
		<path d="M967.5,336.6v-1.1c-0.8,0.9-1.8,1.3-3.1,1.3c-1.6,0-3.2-1.1-3.2-3.1c0-2,1.6-3,3.2-3c1.3,0,2.3,0.4,3.1,1.3v-1.9
			c0-1.4-1.1-2.1-2.5-2.1c-1.1,0-2,0.4-2.9,1.3l-0.5-0.7c0.9-1,2-1.5,3.5-1.5c1.9,0,3.3,0.9,3.3,2.9v6.4H967.5z M967.5,334.8v-2
			c-0.6-0.8-1.7-1.3-2.8-1.3c-1.5,0-2.5,1-2.5,2.3c0,1.3,1,2.3,2.5,2.3C965.8,336,966.9,335.6,967.5,334.8z"/>
		<path d="M976.5,336.6v-12.6h5.2c2.1,0,3.5,1.2,3.5,3.2c0,1.6-1.1,2.7-2.2,2.9c1.3,0.2,2.5,1.6,2.5,3.1c0,2.1-1.4,3.4-3.6,3.4
			H976.5z M984,327.3c0-1.3-0.9-2.4-2.5-2.4h-4v4.7h4C983.2,329.6,984,328.6,984,327.3z M984.3,333.1c0-1.3-0.9-2.5-2.7-2.5h-4.1v5
			h4.1C983.3,335.6,984.3,334.6,984.3,333.1z"/>
		<path d="M987.6,336.6v-0.9c4.3-3.5,7.2-5.9,7.2-8.4c0-1.8-1.5-2.6-2.9-2.6c-1.6,0-2.8,0.7-3.5,1.6l-0.7-0.7c0.9-1.2,2.4-2,4.2-2
			c1.9,0,4,1.1,4,3.6c0,2.8-2.9,5.3-6.6,8.3h6.7v1H987.6z"/>
		<path d="M999.2,336.6v-12.6h5.2c2.1,0,3.5,1.2,3.5,3.2c0,1.6-1.1,2.7-2.2,2.9c1.3,0.2,2.5,1.6,2.5,3.1c0,2.1-1.4,3.4-3.6,3.4
			H999.2z M1006.7,327.3c0-1.3-0.9-2.4-2.5-2.4h-4v4.7h4C1005.8,329.6,1006.7,328.6,1006.7,327.3z M1006.9,333.1
			c0-1.3-0.9-2.5-2.7-2.5h-4.1v5h4.1C1006,335.6,1006.9,334.6,1006.9,333.1z"/>
		<path d="M1016.6,335.1v5h-1v-12.6h1v1.4c0.6-0.9,1.8-1.7,3.2-1.7c2.4,0,4.1,1.9,4.1,4.8c0,2.9-1.6,4.8-4.1,4.8
			C1018.5,336.8,1017.4,336.1,1016.6,335.1z M1022.9,332c0-2.2-1.2-3.9-3.2-3.9c-1.3,0-2.5,0.8-3,1.6v4.5c0.5,0.9,1.7,1.7,3,1.7
			C1021.7,335.9,1022.9,334.2,1022.9,332z"/>
		<path d="M1026.4,336.6v-12.6h1v12.6H1026.4z"/>
		<path d="M1036.3,336.6v-1.1c-0.8,0.9-1.8,1.3-3.1,1.3c-1.6,0-3.2-1.1-3.2-3.1c0-2,1.6-3,3.2-3c1.3,0,2.3,0.4,3.1,1.3v-1.9
			c0-1.4-1.1-2.1-2.5-2.1c-1.1,0-2,0.4-2.9,1.3l-0.5-0.7c0.9-1,2-1.5,3.5-1.5c1.9,0,3.3,0.9,3.3,2.9v6.4H1036.3z M1036.3,334.8v-2
			c-0.6-0.8-1.7-1.3-2.8-1.3c-1.5,0-2.5,1-2.5,2.3c0,1.3,1,2.3,2.5,2.3C1034.6,336,1035.6,335.6,1036.3,334.8z"/>
		<path d="M1040.5,334.8v-6.5h-1.5v-0.9h1.5v-2.5h1v2.5h1.9v0.9h-1.9v6.4c0,0.7,0.3,1.2,0.9,1.2c0.4,0,0.8-0.2,1-0.4l0.4,0.8
			c-0.4,0.3-0.8,0.6-1.6,0.6C1041.1,336.8,1040.5,336.1,1040.5,334.8z"/>
		<path d="M1045.9,336.6v-8.3h-1.5v-0.9h1.5v-0.8c0-1.8,0.9-2.8,2.5-2.8c0.6,0,1.2,0.1,1.7,0.6l-0.5,0.7c-0.3-0.3-0.7-0.5-1.2-0.5
			c-1,0-1.6,0.7-1.6,2v0.8h1.9v0.9h-1.9v8.3H1045.9z"/>
		<path d="M1050,332c0-2.7,1.7-4.8,4.4-4.8c2.7,0,4.4,2.1,4.4,4.8s-1.7,4.8-4.4,4.8C1051.7,336.8,1050,334.7,1050,332z M1057.8,332
			c0-2-1.2-3.9-3.4-3.9c-2.1,0-3.3,1.9-3.3,3.9c0,2,1.2,3.9,3.3,3.9C1056.6,335.9,1057.8,334,1057.8,332z"/>
		<path d="M1061.4,336.6v-9.2h1v1.6c0.8-1,1.8-1.8,3.1-1.8v1.1c-0.2,0-0.3,0-0.5,0c-0.9,0-2.2,0.8-2.6,1.6v6.7H1061.4z"/>
		<path d="M1078.3,336.6v-6.4c0-1.3-0.6-2.1-1.8-2.1c-1,0-2.1,0.7-2.6,1.6v6.9h-1v-6.4c0-1.3-0.5-2.1-1.8-2.1c-1,0-2.1,0.7-2.6,1.6
			v6.9h-1v-9.2h1v1.4c0.4-0.6,1.6-1.6,3-1.6c1.4,0,2.2,0.8,2.4,1.7c0.5-0.9,1.7-1.7,3-1.7c1.7,0,2.5,0.9,2.5,2.8v6.6H1078.3z"/>
	</g>
</g>
</svg>
