<?xml version="1.0" encoding="utf-8"?>
<!-- Generator: Adobe Illustrator 18.1.0, SVG Export Plug-In . SVG Version: 6.00 Build 0)  -->
<!DOCTYPE svg PUBLIC "-//W3C//DTD SVG 1.1//EN" "http://www.w3.org/Graphics/SVG/1.1/DTD/svg11.dtd">
<svg version="1.1" xmlns="http://www.w3.org/2000/svg" xmlns:xlink="http://www.w3.org/1999/xlink" x="0px" y="0px"
	 viewBox="0 0 1280 800" enable-background="new 0 0 1280 800" xml:space="preserve">
<g id="Layer_1">
	<g>
		<g>
			<path fill="#DBDADA" d="M1128.3,749.5H151.7c-17.7,0-32.2-14.5-32.2-32.2V60.4c0-17.7,14.5-32.2,32.2-32.2h976.5
				c17.7,0,32.2,14.5,32.2,32.2v656.8C1160.5,734.9,1145.9,749.5,1128.3,749.5z"/>
			<path fill="#C7C6C6" d="M1128.7,707.4H151.5c-14.1,0-25.5-11.6-25.5-25.5V60.4c0-14.1,11.6-25.5,25.5-25.5h977.2
				c14.1,0,25.5,11.6,25.5,25.5v621.5C1154.1,696,1142.6,707.4,1128.7,707.4z"/>
			<polygon fill="#C7C6C6" points="1035.7,708.4 641.3,708.4 246.7,708.4 243.7,725.5 641.3,725.5 1038.8,725.5 			"/>
			<path fill="#DBDADA" d="M1277.1,725.5H742.3c0,9.3-7.6,16.6-16.6,16.6H554.3c-9.3,0-16.6-7.6-16.6-16.6H2.9
				c-1.7,0-2.9,1.3-2.9,2.9v21c0,1.7,1.3,2.9,2.9,2.9h1274.3c1.7,0,2.9-1.3,2.9-2.9v-21C1280,726.7,1278.7,725.5,1277.1,725.5z"/>
			<path fill="#EDEDED" d="M554.3,742.1h171.3c9.3,0,16.6-7.6,16.6-16.6H537.7C537.7,734.7,545.3,742.1,554.3,742.1z"/>
			<path fill="#DBDADA" d="M641.3,752.4H2.9c0,0,9.9,7.2,35.4,13.9c12.2,3.4,29.5,5.1,47.1,5.5H641h555.6
				c17.9-0.4,34.9-2.1,47.1-5.5c25.5-6.9,35.4-13.9,35.4-13.9H641.3z"/>
			<circle fill="#EDEDED" cx="641.3" cy="56.2" r="7.6"/>
		</g>
	</g>
</g>
<g id="Layer_2">
	<g>
		<rect x="157.4" y="78.3" fill="#F6F6F6" width="965.2" height="601.5"/>
	</g>
	<rect x="157.4" y="363.9" fill="#1D1D1B" width="965.2" height="7"/>
	<line fill="none" stroke="#1D1D1B" stroke-width="1.4031" stroke-miterlimit="10" x1="244.3" y1="367.4" x2="244.3" y2="340.6"/>
	<line fill="none" stroke="#1D1D1B" stroke-width="1.4031" stroke-miterlimit="10" x1="433.2" y1="367.4" x2="433.2" y2="340.6"/>
	<line fill="none" stroke="#1D1D1B" stroke-width="1.4031" stroke-miterlimit="10" x1="622" y1="367.4" x2="622" y2="340.6"/>
	<line fill="none" stroke="#1D1D1B" stroke-width="1.4031" stroke-miterlimit="10" x1="939.1" y1="367.4" x2="939.1" y2="340.6"/>
	<line fill="none" stroke="#1D1D1B" stroke-width="1.4031" stroke-miterlimit="10" x1="811.7" y1="394.2" x2="811.7" y2="367.4"/>
	<line fill="none" stroke="#1D1D1B" stroke-width="1.4031" stroke-miterlimit="10" x1="370.7" y1="394.2" x2="370.7" y2="367.4"/>
	<g>
		<g>
			<path d="M242.5,277l1-1.7c0.5,0.5,1.2,1,2.2,1c1.4,0,2.2-0.9,2.2-2.3v-8.6h2.2v8.6c0,2.9-1.8,4.2-4.3,4.2
				C244.5,278.3,243.4,277.9,242.5,277z"/>
			<path d="M258.3,278.1v-1c-0.7,0.8-1.7,1.2-3,1.2c-1.5,0-3.2-1-3.2-3c0-2.1,1.7-3,3.2-3c1.2,0,2.3,0.4,3,1.2v-1.4
				c0-1.1-0.9-1.7-2.1-1.7c-1,0-1.9,0.4-2.7,1.2l-0.8-1.4c1.1-1,2.4-1.5,3.8-1.5c2,0,3.8,0.9,3.8,3.3v6.1H258.3z M258.3,276v-1.4
				c-0.5-0.6-1.3-0.9-2.2-0.9c-1.1,0-2,0.6-2,1.6c0,1,0.8,1.6,2,1.6C257,276.9,257.8,276.6,258.3,276z"/>
			<path d="M269,278.1v-5.7c0-1.4-0.7-1.9-1.8-1.9c-1,0-1.9,0.6-2.3,1.2v6.4h-2v-9.1h2v1.2c0.6-0.7,1.8-1.5,3.2-1.5c2,0,3,1.1,3,2.9
				v6.4H269z"/>
			<path d="M280.8,278.1v-9.8l-2.1,2.1l-1.3-1.3l3.6-3.7h1.9v12.6H280.8z"/>
			<path d="M285.3,278.1v-1.7c4.9-3.7,6.8-5.4,6.8-7.2c0-1.3-1.1-1.9-2.3-1.9c-1.5,0-2.6,0.6-3.4,1.5l-1.3-1.5c1.1-1.3,2.9-2,4.7-2
				c2.4,0,4.6,1.4,4.6,3.9c0,2.3-2.1,4.4-5.5,7h5.6v2H285.3z"/>
			<path d="M243.4,301.2c0-3.9,2.8-6.5,6.4-6.5c2,0,3.5,0.9,4.6,2.2l-0.9,0.6c-0.8-1.1-2.2-1.8-3.7-1.8c-3,0-5.3,2.3-5.3,5.5
				c0,3.3,2.3,5.5,5.3,5.5c1.5,0,2.9-0.7,3.7-1.8l0.9,0.6c-1.1,1.4-2.6,2.3-4.6,2.3C246.2,307.7,243.4,305.1,243.4,301.2z"/>
			<path d="M256.1,302.9c0-2.7,1.7-4.8,4.4-4.8c2.7,0,4.4,2.1,4.4,4.8s-1.7,4.8-4.4,4.8C257.8,307.7,256.1,305.6,256.1,302.9z
				 M263.8,302.9c0-2-1.2-3.9-3.4-3.9c-2.1,0-3.3,1.9-3.3,3.9c0,2,1.2,3.9,3.3,3.9C262.6,306.9,263.8,305,263.8,302.9z"/>
			<path d="M278.3,307.5v-6.4c0-1.3-0.5-2.1-1.8-2.1c-1,0-2.1,0.7-2.6,1.6v6.9h-1v-6.4c0-1.3-0.5-2.1-1.8-2.1c-1,0-2.1,0.7-2.6,1.6
				v6.9h-1v-9.1h1v1.4c0.4-0.6,1.6-1.6,3-1.6c1.4,0,2.2,0.8,2.4,1.7c0.5-0.9,1.7-1.7,3-1.7c1.7,0,2.5,0.9,2.5,2.8v6.6H278.3z"/>
			<path d="M283.3,306v5h-1v-12.6h1v1.4c0.6-0.9,1.8-1.7,3.2-1.7c2.4,0,4.1,1.9,4.1,4.8c0,2.9-1.6,4.8-4.1,4.8
				C285.2,307.7,284.1,307.1,283.3,306z M289.5,302.9c0-2.2-1.2-3.9-3.2-3.9c-1.3,0-2.5,0.8-3,1.6v4.5c0.5,0.9,1.7,1.7,3,1.7
				C288.4,306.9,289.5,305.2,289.5,302.9z"/>
			<path d="M298.9,307.5v-1.1c-0.8,0.9-1.8,1.3-3.1,1.3c-1.6,0-3.2-1.1-3.2-3c0-2,1.6-3,3.2-3c1.3,0,2.3,0.4,3.1,1.3v-1.9
				c0-1.4-1.1-2.1-2.5-2.1c-1.1,0-2,0.4-2.9,1.3l-0.5-0.7c0.9-1,2-1.5,3.5-1.5c1.9,0,3.3,0.9,3.3,2.9v6.4H298.9z M298.9,305.7v-2
				c-0.6-0.8-1.7-1.3-2.8-1.3c-1.5,0-2.5,1-2.5,2.3c0,1.3,1,2.3,2.5,2.3C297.2,307,298.3,306.6,298.9,305.7z"/>
			<path d="M309.1,307.5v-6.2c0-1.8-0.9-2.3-2.2-2.3c-1.2,0-2.4,0.7-3,1.6v6.9h-1v-9.1h1v1.4c0.7-0.8,2-1.6,3.3-1.6
				c1.9,0,2.9,0.9,2.9,3v6.4H309.1z"/>
			<path d="M312.7,310.2c0.2,0.1,0.6,0.2,0.8,0.2c0.6,0,1-0.2,1.4-1.1l0.7-1.6l-3.9-9.2h1.1l3.3,8l3.3-8h1.1l-4.7,11.2
				c-0.5,1.2-1.3,1.7-2.3,1.7c-0.3,0-0.7-0.1-1-0.1L312.7,310.2z"/>
			<path d="M243.6,317.2c0-0.4,0.4-0.7,0.8-0.7c0.4,0,0.8,0.3,0.8,0.7s-0.3,0.8-0.8,0.8C243.9,318,243.6,317.6,243.6,317.2z
				 M243.9,328.6v-9.1h1v9.1H243.9z"/>
			<path d="M247.1,327.4l0.6-0.7c0.6,0.7,1.7,1.3,3,1.3c1.5,0,2.4-0.8,2.4-1.9c0-2.5-5.8-1.1-5.8-4.4c0-1.4,1.2-2.5,3.3-2.5
				c1.6,0,2.6,0.6,3.3,1.3l-0.5,0.7c-0.5-0.7-1.5-1.2-2.7-1.2c-1.4,0-2.3,0.7-2.3,1.7c0,2.3,5.8,0.9,5.8,4.4c0,1.5-1.1,2.7-3.4,2.7
				C249.2,328.8,248,328.4,247.1,327.4z"/>
			<path d="M261.8,328.6v-8.3h-1.5v-0.9h1.5v-0.8c0-1.8,0.9-2.8,2.5-2.8c0.6,0,1.2,0.1,1.7,0.6l-0.5,0.7c-0.3-0.3-0.7-0.5-1.2-0.5
				c-1,0-1.6,0.7-1.6,2v0.8h1.9v0.9h-1.9v8.3H261.8z"/>
			<path d="M266,324c0-2.7,1.7-4.8,4.4-4.8c2.7,0,4.4,2.1,4.4,4.8s-1.7,4.8-4.4,4.8C267.7,328.8,266,326.7,266,324z M273.7,324
				c0-2-1.2-3.9-3.4-3.9c-2.1,0-3.3,1.9-3.3,3.9c0,2,1.2,3.9,3.3,3.9C272.5,327.9,273.7,326,273.7,324z"/>
			<path d="M283.5,328.6v-1.3c-0.8,0.8-2,1.6-3.3,1.6c-1.9,0-2.9-0.9-2.9-2.9v-6.4h1v6.2c0,1.8,0.9,2.3,2.2,2.3c1.2,0,2.4-0.7,3-1.5
				v-7h1v9.1H283.5z"/>
			<path d="M293.7,328.6v-6.2c0-1.8-0.9-2.3-2.2-2.3c-1.2,0-2.4,0.7-3,1.6v6.9h-1v-9.1h1v1.4c0.7-0.8,2-1.6,3.3-1.6
				c1.9,0,2.9,0.9,2.9,3v6.4H293.7z"/>
			<path d="M304.5,328.6v-1.5c-0.6,0.9-1.8,1.7-3.2,1.7c-2.4,0-4.1-1.9-4.1-4.8c0-2.9,1.7-4.8,4.1-4.8c1.3,0,2.4,0.7,3.2,1.7v-5h1
				v12.6H304.5z M304.5,326.3v-4.5c-0.5-0.9-1.7-1.7-3-1.7c-2,0-3.2,1.7-3.2,3.9c0,2.2,1.2,3.9,3.2,3.9
				C302.8,327.9,304,327.1,304.5,326.3z"/>
			<path d="M308.1,324c0-2.7,1.9-4.8,4.4-4.8c2.8,0,4.3,2.2,4.3,4.8v0.3h-7.7c0.1,2,1.4,3.6,3.6,3.6c1.2,0,2.2-0.4,3-1.3l0.5,0.6
				c-0.9,0.9-2.1,1.5-3.6,1.5C310,328.8,308.1,326.8,308.1,324z M312.5,320c-2.2,0-3.2,1.9-3.3,3.5h6.6
				C315.8,322,314.8,320,312.5,320z"/>
			<path d="M326.1,328.6v-1.5c-0.6,0.9-1.8,1.7-3.2,1.7c-2.4,0-4.1-1.9-4.1-4.8c0-2.9,1.7-4.8,4.1-4.8c1.3,0,2.4,0.7,3.2,1.7v-5h1
				v12.6H326.1z M326.1,326.3v-4.5c-0.5-0.9-1.7-1.7-3-1.7c-2,0-3.2,1.7-3.2,3.9c0,2.2,1.2,3.9,3.2,3.9
				C324.4,327.9,325.6,327.1,326.1,326.3z"/>
		</g>
	</g>
	<g>
		<path fill="#3BC462" d="M292.3,188.8c0,0.8-0.3,1.5-0.9,2.1l-22.6,22.6l-4.2,4.2c-0.6,0.6-1.3,0.9-2.1,0.9c-0.8,0-1.5-0.3-2.1-0.9
			l-4.2-4.2l-11.3-11.3c-0.6-0.6-0.9-1.3-0.9-2.1c0-0.8,0.3-1.5,0.9-2.1l4.2-4.2c0.6-0.6,1.3-0.9,2.1-0.9c0.8,0,1.5,0.3,2.1,0.9
			l9.2,9.2l20.5-20.5c0.6-0.6,1.3-0.9,2.1-0.9c0.8,0,1.5,0.3,2.1,0.9l4.2,4.2C292,187.3,292.3,188,292.3,188.8z"/>
	</g>
	<g>
		<path fill="#3BC462" d="M401.6,538.8v5.2c0,0.2-0.1,0.4-0.2,0.5c-0.1,0.2-0.3,0.3-0.4,0.3l-4.3,0.7c-0.2,0.7-0.5,1.4-0.9,2.1
			c0.6,0.9,1.5,2,2.5,3.2c0.1,0.2,0.2,0.4,0.2,0.6c0,0.2-0.1,0.4-0.2,0.5c-0.4,0.6-1.2,1.4-2.3,2.5c-1.1,1.1-1.8,1.7-2.2,1.7
			c-0.2,0-0.4-0.1-0.6-0.2l-3.2-2.5c-0.7,0.4-1.4,0.6-2.1,0.9c-0.2,2-0.4,3.5-0.6,4.3c-0.1,0.4-0.4,0.7-0.8,0.7h-5.2
			c-0.2,0-0.4-0.1-0.6-0.2s-0.3-0.3-0.3-0.5l-0.6-4.3c-0.6-0.2-1.3-0.5-2.1-0.9l-3.3,2.5c-0.1,0.1-0.3,0.2-0.6,0.2
			c-0.2,0-0.4-0.1-0.6-0.2c-2.7-2.5-4-4-4-4.5c0-0.2,0.1-0.3,0.2-0.5c0.2-0.3,0.6-0.8,1.1-1.5s1-1.3,1.3-1.7c-0.4-0.8-0.8-1.6-1-2.3
			l-4.2-0.7c-0.2,0-0.3-0.1-0.5-0.3c-0.1-0.2-0.2-0.3-0.2-0.5v-5.2c0-0.2,0.1-0.4,0.2-0.5c0.1-0.2,0.3-0.3,0.4-0.3l4.3-0.7
			c0.2-0.7,0.5-1.4,0.9-2.1c-0.6-0.9-1.5-2-2.5-3.2c-0.1-0.2-0.2-0.4-0.2-0.6c0-0.2,0.1-0.4,0.2-0.6c0.4-0.6,1.2-1.4,2.3-2.5
			s1.9-1.6,2.2-1.6c0.2,0,0.4,0.1,0.6,0.2l3.2,2.5c0.6-0.3,1.3-0.6,2.1-0.9c0.2-2,0.4-3.4,0.6-4.3c0.1-0.4,0.4-0.7,0.8-0.7h5.2
			c0.2,0,0.4,0.1,0.6,0.2c0.2,0.1,0.3,0.3,0.3,0.5l0.6,4.3c0.6,0.2,1.3,0.5,2.1,0.9l3.3-2.5c0.1-0.1,0.3-0.2,0.6-0.2
			c0.2,0,0.4,0.1,0.6,0.2c2.7,2.5,4,4,4,4.5c0,0.2-0.1,0.3-0.2,0.5c-0.2,0.3-0.6,0.8-1.2,1.5s-1,1.3-1.3,1.7
			c0.4,0.9,0.7,1.7,0.9,2.3l4.2,0.6c0.2,0,0.3,0.1,0.5,0.3C401.5,538.4,401.6,538.6,401.6,538.8z M388.7,546.4
			c1.4-1.4,2.1-3.1,2.1-5.1c0-2-0.7-3.7-2.1-5c-1.4-1.4-3.1-2.1-5.1-2.1s-3.7,0.7-5,2.1c-1.4,1.4-2.1,3.1-2.1,5c0,2,0.7,3.7,2.1,5.1
			c1.4,1.4,3.1,2.1,5,2.1S387.4,547.8,388.7,546.4z M419.4,525.1v3.9c0,0.3-1.4,0.6-4.2,0.9c-0.2,0.5-0.5,1-0.8,1.5
			c0.9,2.1,1.4,3.4,1.4,3.9c0,0.1,0,0.1-0.1,0.2c-2.3,1.3-3.4,2-3.5,2c-0.1,0-0.6-0.4-1.3-1.3c-0.7-0.9-1.2-1.5-1.5-1.9
			c-0.4,0-0.7,0.1-0.8,0.1s-0.5,0-0.8-0.1c-0.3,0.4-0.7,1-1.5,1.9c-0.7,0.9-1.1,1.3-1.3,1.3c0,0-1.2-0.7-3.5-2
			c-0.1-0.1-0.1-0.1-0.1-0.2c0-0.5,0.5-1.7,1.4-3.9c-0.3-0.5-0.6-0.9-0.8-1.5c-2.8-0.3-4.2-0.6-4.2-0.9v-3.9c0-0.3,1.4-0.6,4.2-0.9
			c0.2-0.5,0.5-1,0.8-1.5c-0.9-2.1-1.4-3.4-1.4-3.9c0-0.1,0-0.1,0.1-0.2c0.1,0,0.4-0.2,1-0.6s1.1-0.7,1.6-0.9
			c0.5-0.3,0.8-0.4,0.8-0.4c0.1,0,0.6,0.4,1.3,1.3c0.7,0.9,1.2,1.5,1.5,1.9c0.4,0,0.7-0.1,0.8-0.1s0.5,0,0.8,0.1
			c0.9-1.3,1.8-2.4,2.6-3.1l0.2-0.1c0.1,0,1.2,0.7,3.5,2c0.1,0.1,0.1,0.1,0.1,0.2c0,0.5-0.5,1.7-1.4,3.9c0.3,0.4,0.6,0.9,0.8,1.5
			C418,524.5,419.4,524.8,419.4,525.1z M419.4,553.7v3.9c0,0.3-1.4,0.6-4.2,0.9c-0.2,0.5-0.5,1-0.8,1.5c0.9,2.1,1.4,3.4,1.4,3.9
			c0,0.1,0,0.1-0.1,0.2c-2.3,1.3-3.4,2-3.5,2c-0.1,0-0.6-0.4-1.3-1.3c-0.7-0.9-1.2-1.5-1.5-1.9c-0.4,0-0.7,0.1-0.8,0.1
			s-0.5,0-0.8-0.1c-0.3,0.4-0.7,1-1.5,1.9c-0.7,0.9-1.1,1.3-1.3,1.3c0,0-1.2-0.7-3.5-2c-0.1-0.1-0.1-0.1-0.1-0.2
			c0-0.5,0.5-1.7,1.4-3.9c-0.3-0.5-0.6-0.9-0.8-1.5c-2.8-0.3-4.2-0.6-4.2-0.9v-3.9c0-0.3,1.4-0.6,4.2-0.9c0.2-0.5,0.5-1,0.8-1.5
			c-0.9-2.1-1.4-3.4-1.4-3.8c0-0.1,0-0.1,0.1-0.2c0.1,0,0.4-0.2,1-0.6s1.1-0.7,1.6-0.9c0.5-0.3,0.8-0.4,0.8-0.4
			c0.1,0,0.6,0.4,1.3,1.3c0.7,0.9,1.2,1.5,1.5,1.9c0.4,0,0.7-0.1,0.8-0.1s0.5,0,0.8,0.1c0.9-1.3,1.8-2.4,2.6-3.1l0.2-0.1
			c0.1,0,1.2,0.7,3.5,2c0.1,0.1,0.1,0.1,0.1,0.2c0,0.5-0.5,1.7-1.4,3.8c0.3,0.4,0.6,0.9,0.8,1.5C418,553.1,419.4,553.4,419.4,553.7z
			 M412.3,527c0-1-0.4-1.8-1.1-2.5c-0.7-0.7-1.5-1.1-2.5-1.1s-1.8,0.4-2.5,1.1c-0.7,0.7-1.1,1.5-1.1,2.5c0,1,0.3,1.8,1,2.5
			c0.7,0.7,1.5,1,2.5,1s1.8-0.3,2.5-1C411.9,528.9,412.3,528,412.3,527z M412.3,555.6c0-1-0.4-1.8-1.1-2.5c-0.7-0.7-1.5-1.1-2.5-1.1
			s-1.8,0.4-2.5,1.1c-0.7,0.7-1.1,1.5-1.1,2.5c0,1,0.3,1.8,1,2.5c0.7,0.7,1.5,1,2.5,1s1.8-0.3,2.5-1
			C411.9,557.4,412.3,556.6,412.3,555.6z"/>
	</g>
	<g>
		<path fill="#3BC462" d="M857.2,545.6c0,4.9-1.3,9.3-3.9,13.5c-0.4,0.5-0.9,0.8-1.5,0.8h-39.1c-0.7,0-1.2-0.3-1.5-0.8
			c-2.6-4.1-3.9-8.6-3.9-13.5c0-3.4,0.7-6.6,2-9.7c1.3-3.1,3.1-5.7,5.3-8c2.2-2.2,4.9-4,8-5.3c3.1-1.3,6.3-2,9.7-2s6.6,0.7,9.7,2
			c3.1,1.3,5.7,3.1,8,5.3c2.2,2.2,4,4.9,5.3,8C856.5,539,857.2,542.2,857.2,545.6z M816.9,548.1c0.7-0.7,1-1.5,1-2.5
			c0-1-0.3-1.8-1-2.5s-1.5-1-2.5-1s-1.8,0.3-2.5,1c-0.7,0.7-1,1.5-1,2.5c0,1,0.3,1.8,1,2.5c0.7,0.7,1.5,1,2.5,1
			S816.2,548.8,816.9,548.1z M822.2,535.6c0.7-0.7,1-1.5,1-2.5c0-1-0.3-1.8-1-2.5c-0.7-0.7-1.5-1-2.5-1c-1,0-1.8,0.3-2.5,1
			c-0.7,0.7-1,1.5-1,2.5c0,1,0.3,1.8,1,2.5c0.7,0.7,1.5,1,2.5,1C820.7,536.7,821.5,536.3,822.2,535.6z M835.2,546.5l2.8-10.7
			c0.1-0.5,0-0.9-0.2-1.4c-0.3-0.4-0.6-0.7-1.1-0.8s-0.9-0.1-1.3,0.2c-0.4,0.3-0.7,0.6-0.8,1.1l-2.8,10.7c-1.1,0.1-2.1,0.5-3,1.2
			c-0.9,0.7-1.5,1.6-1.8,2.7c-0.4,1.4-0.2,2.8,0.6,4.1c0.7,1.3,1.8,2.1,3.3,2.5c1.4,0.4,2.8,0.2,4.1-0.6c1.3-0.7,2.1-1.8,2.5-3.3
			c0.3-1.1,0.2-2.2-0.2-3.3C836.8,548,836.1,547.1,835.2,546.5z M834.7,530.3c0.7-0.7,1-1.5,1-2.5s-0.3-1.8-1-2.5
			c-0.7-0.7-1.5-1-2.5-1c-1,0-1.8,0.3-2.5,1c-0.7,0.7-1,1.5-1,2.5s0.3,1.8,1,2.5c0.7,0.7,1.5,1,2.5,1
			C833.2,531.3,834,531,834.7,530.3z M847.2,535.6c0.7-0.7,1-1.5,1-2.5c0-1-0.3-1.8-1-2.5c-0.7-0.7-1.5-1-2.5-1c-1,0-1.8,0.3-2.5,1
			c-0.7,0.7-1,1.5-1,2.5c0,1,0.3,1.8,1,2.5c0.7,0.7,1.5,1,2.5,1C845.7,536.7,846.5,536.3,847.2,535.6z M852.6,548.1
			c0.7-0.7,1-1.5,1-2.5c0-1-0.3-1.8-1-2.5c-0.7-0.7-1.5-1-2.5-1c-1,0-1.8,0.3-2.5,1s-1,1.5-1,2.5c0,1,0.3,1.8,1,2.5
			c0.7,0.7,1.5,1,2.5,1C851,549.2,851.9,548.8,852.6,548.1z"/>
	</g>
	<g>
		<path fill="#3BC462" d="M476.2,194.1v6c0,0.8-0.3,1.5-0.9,2.1c-0.6,0.6-1.3,0.9-2.1,0.9h-13v13c0,0.8-0.3,1.5-0.9,2.1
			c-0.6,0.6-1.3,0.9-2.1,0.9h-6c-0.8,0-1.5-0.3-2.1-0.9c-0.6-0.6-0.9-1.3-0.9-2.1v-13h-13c-0.8,0-1.5-0.3-2.1-0.9
			c-0.6-0.6-0.9-1.3-0.9-2.1v-6c0-0.8,0.3-1.5,0.9-2.1c0.6-0.6,1.3-0.9,2.1-0.9h13v-13c0-0.8,0.3-1.5,0.9-2.1
			c0.6-0.6,1.3-0.9,2.1-0.9h6c0.8,0,1.5,0.3,2.1,0.9c0.6,0.6,0.9,1.3,0.9,2.1v13h13c0.8,0,1.5,0.3,2.1,0.9
			C475.9,192.6,476.2,193.3,476.2,194.1z"/>
	</g>
	<g>
		<path fill="#3BC462" d="M648.1,207.1c0,2.9-0.8,5.3-2.5,7.4s-3.9,3.3-6.6,3.8v4.9c0,0.3-0.1,0.5-0.2,0.6s-0.3,0.3-0.6,0.3h-3.4
			c-0.2,0-0.4-0.1-0.6-0.3s-0.2-0.4-0.2-0.6v-4.9c-1.1-0.2-2.2-0.5-3.2-0.9s-1.9-0.8-2.6-1.2c-0.7-0.4-1.3-0.9-1.9-1.3
			c-0.6-0.5-1-0.8-1.2-1c-0.2-0.2-0.4-0.4-0.4-0.5c-0.3-0.4-0.3-0.8-0.1-1.1l2.6-3.8c0.1-0.2,0.3-0.3,0.6-0.3c0.3,0,0.5,0,0.6,0.3
			l0.1,0.1c1.9,1.8,4,3,6.2,3.5c0.6,0.1,1.3,0.2,1.9,0.2c1.4,0,2.6-0.4,3.6-1.2c1-0.8,1.6-1.9,1.6-3.4c0-0.5-0.1-1-0.4-1.5
			c-0.3-0.5-0.5-0.9-0.9-1.2c-0.3-0.3-0.8-0.7-1.5-1s-1.2-0.7-1.7-0.9c-0.4-0.2-1.1-0.5-2-0.9c-0.7-0.3-1.2-0.5-1.6-0.7
			s-0.9-0.4-1.6-0.7s-1.2-0.6-1.6-0.9c-0.4-0.3-0.9-0.6-1.4-1c-0.6-0.4-1-0.8-1.4-1.2c-0.3-0.4-0.7-0.8-1.1-1.4
			c-0.4-0.5-0.7-1.1-0.9-1.6c-0.2-0.6-0.4-1.2-0.5-1.9c-0.1-0.7-0.2-1.4-0.2-2.2c0-2.6,0.8-4.8,2.5-6.8c1.7-1.9,3.8-3.2,6.5-3.7v-5
			c0-0.2,0.1-0.5,0.2-0.6c0.2-0.2,0.4-0.3,0.6-0.3h3.4c0.2,0,0.4,0.1,0.6,0.3s0.2,0.4,0.2,0.6v4.9c1,0.1,1.9,0.3,2.8,0.6
			c0.9,0.3,1.6,0.6,2.2,0.9s1.1,0.7,1.6,1c0.5,0.4,0.8,0.7,1,0.8c0.2,0.1,0.3,0.3,0.4,0.4c0.3,0.3,0.3,0.7,0.1,1.1l-2.1,4.1
			c-0.1,0.3-0.3,0.4-0.6,0.4c-0.2,0.1-0.5,0-0.7-0.2c-0.1-0.1-0.2-0.2-0.4-0.3s-0.5-0.4-1-0.7s-1-0.6-1.5-0.9
			c-0.5-0.3-1.2-0.5-1.9-0.7c-0.7-0.2-1.5-0.3-2.2-0.3c-1.6,0-2.9,0.4-3.9,1.2c-1,0.8-1.5,1.8-1.5,3.1c0,0.5,0.1,0.9,0.2,1.3
			c0.1,0.4,0.4,0.8,0.7,1.2s0.7,0.7,1,0.9s0.8,0.5,1.4,0.9c0.6,0.3,1.1,0.6,1.5,0.8c0.4,0.2,1,0.4,1.8,0.8c0.9,0.4,1.6,0.7,2.1,0.9
			s1.1,0.5,1.9,1c0.8,0.4,1.5,0.8,1.9,1.2c0.5,0.4,1,0.8,1.6,1.4s1,1.2,1.3,1.8c0.3,0.6,0.6,1.3,0.8,2.1
			C648,205.3,648.1,206.2,648.1,207.1z"/>
	</g>
	<g>
		<path fill="#3BC462" d="M985.1,182c0,4.6-0.7,8.6-2.1,11.9c-1.4,3.3-3.7,6.7-7,10c-1.5,1.5-3.3,3.1-5.4,4.9l-0.6,10.5
			c0,0.3-0.2,0.5-0.4,0.7l-10.6,6.2c-0.1,0.1-0.3,0.1-0.4,0.1c-0.2,0-0.4-0.1-0.6-0.2l-1.8-1.8c-0.2-0.3-0.3-0.6-0.2-0.9l2.4-7.6
			l-7.8-7.8l-7.6,2.4c-0.1,0-0.1,0-0.2,0c-0.3,0-0.5-0.1-0.6-0.2l-1.8-1.8c-0.3-0.3-0.4-0.7-0.1-1.1l6.2-10.6
			c0.2-0.3,0.4-0.4,0.7-0.4l10.5-0.6c1.8-2.1,3.4-3.9,4.9-5.4c3.5-3.4,6.8-5.8,9.9-7.1c3.1-1.3,7.1-2,11.9-2c0.3,0,0.5,0.1,0.7,0.3
			C985,181.6,985.1,181.8,985.1,182z M978.1,191.9c0.5-0.5,0.8-1.1,0.8-1.9c0-0.7-0.3-1.4-0.8-1.9c-0.5-0.5-1.1-0.8-1.9-0.8
			c-0.7,0-1.4,0.3-1.9,0.8c-0.5,0.5-0.8,1.1-0.8,1.9c0,0.7,0.3,1.4,0.8,1.9c0.5,0.5,1.1,0.8,1.9,0.8
			C977,192.6,977.6,192.4,978.1,191.9z"/>
	</g>
	<g>
		<g>
			<path d="M380.9,418.7v-9.4l-3.9,9.4h-0.9l-3.9-9.4v9.4H370v-12.6h3.1l3.4,8.3l3.4-8.3h3.1v12.6H380.9z"/>
			<path d="M391.4,418.7v-1c-0.7,0.8-1.7,1.2-3,1.2c-1.5,0-3.2-1-3.2-3c0-2.1,1.7-3,3.2-3c1.2,0,2.3,0.4,3,1.2v-1.4
				c0-1.1-0.9-1.7-2.1-1.7c-1,0-1.9,0.4-2.7,1.2l-0.8-1.4c1.1-1,2.4-1.5,3.8-1.5c2,0,3.8,0.9,3.8,3.3v6.1H391.4z M391.4,416.7v-1.4
				c-0.5-0.6-1.3-0.9-2.2-0.9c-1.1,0-2,0.6-2,1.6c0,1,0.8,1.6,2,1.6C390.1,417.6,390.9,417.3,391.4,416.7z"/>
			<path d="M395.9,418.7v-9.1h2v1.3c0.7-0.9,1.8-1.6,3-1.6v2c-0.2,0-0.4-0.1-0.6-0.1c-0.8,0-2,0.6-2.3,1.2v6.2H395.9z"/>
			<path d="M409.7,418.7V409l-2.1,2.1l-1.3-1.3l3.6-3.7h1.9v12.6H409.7z"/>
			<path d="M414.2,418.7V417c4.9-3.7,6.8-5.4,6.8-7.2c0-1.3-1.1-1.9-2.3-1.9c-1.5,0-2.6,0.6-3.4,1.5l-1.3-1.5c1.1-1.3,2.9-2,4.7-2
				c2.4,0,4.6,1.4,4.6,3.9c0,2.3-2.1,4.4-5.5,7h5.6v2H414.2z"/>
			<path fill="#079B3C" d="M369.4,443.6c0-4.1,3.6-7.5,7.5-7.5c3.6,0,6,2.7,6,5.9c0,3.1-1.9,4.6-3.5,4.6c-1.1,0-1.7-0.7-1.8-1.5
				l0-0.1c-0.7,0.9-1.7,1.6-2.8,1.6c-1.8,0-2.9-1.3-2.9-3.1c0-2.6,2.1-4.7,4.4-4.7c1.2,0,2,0.6,2.4,1.3l0.2-1.1h1.8l-1,4.8
				c0,0.1,0,0.3,0,0.4c0,0.6,0.3,0.9,0.8,0.9c0.7,0,1.9-0.9,1.9-3.2c0-3-2.1-5.2-5.3-5.2c-3.6,0-6.7,3.2-6.7,6.7
				c0,3,2.3,5.3,5.4,5.3c1.3,0,2.5-0.4,3.5-1l0.4,0.5c-1.2,0.8-2.5,1.2-3.9,1.2C371.9,449.5,369.4,446.9,369.4,443.6z M377.7,443.7
				l0.5-2.4c-0.2-0.5-0.8-1.2-1.7-1.2c-1.7,0-2.9,1.6-2.9,3.1c0,1.1,0.6,1.9,1.7,1.9C376.4,445.2,377.2,444.4,377.7,443.7z"/>
			<path fill="#079B3C" d="M384.8,448.2v-9.1h2v1.3c0.7-0.9,1.8-1.6,3-1.6v2c-0.2,0-0.4-0.1-0.6-0.1c-0.8,0-2,0.6-2.3,1.2v6.2H384.8
				z"/>
			<path fill="#079B3C" d="M391.1,436.7c0-0.7,0.6-1.2,1.2-1.2c0.7,0,1.2,0.5,1.2,1.2s-0.5,1.2-1.2,1.2
				C391.7,437.9,391.1,437.4,391.1,436.7z M391.4,448.2v-9.1h2v9.1H391.4z"/>
			<path fill="#079B3C" d="M396.3,446.1v-5.3h-1.5v-1.7h1.5v-2.5h2v2.5h1.9v1.7h-1.9v4.8c0,0.6,0.3,1.1,0.9,1.1
				c0.4,0,0.7-0.2,0.9-0.3l0.5,1.5c-0.4,0.3-0.9,0.6-1.9,0.6C397.2,448.4,396.3,447.6,396.3,446.1z"/>
			<path fill="#079B3C" d="M407.6,448.2v-1c-0.7,0.8-1.7,1.2-3,1.2c-1.5,0-3.2-1-3.2-3c0-2.1,1.7-3,3.2-3c1.2,0,2.3,0.4,3,1.2v-1.4
				c0-1.1-0.9-1.7-2.1-1.7c-1,0-1.9,0.4-2.7,1.2l-0.8-1.4c1.1-1,2.4-1.5,3.8-1.5c2,0,3.8,0.9,3.8,3.3v6.1H407.6z M407.6,446.1v-1.4
				c-0.5-0.6-1.3-0.9-2.2-0.9c-1.1,0-2,0.6-2,1.6c0,1,0.8,1.6,2,1.6C406.3,447.1,407.1,446.7,407.6,446.1z"/>
			<path d="M423.1,448.2v-1.1c-0.8,0.9-1.8,1.3-3.1,1.3c-1.6,0-3.2-1.1-3.2-3c0-2,1.6-3,3.2-3c1.3,0,2.3,0.4,3.1,1.3v-1.9
				c0-1.4-1.1-2.1-2.5-2.1c-1.1,0-2,0.4-2.9,1.3l-0.5-0.7c0.9-1,2-1.5,3.5-1.5c1.9,0,3.3,0.9,3.3,2.9v6.4H423.1z M423.1,446.4v-2
				c-0.6-0.8-1.7-1.3-2.8-1.3c-1.5,0-2.5,1-2.5,2.3c0,1.3,1,2.3,2.5,2.3C421.4,447.7,422.5,447.2,423.1,446.4z"/>
			<path d="M433.3,448.2V442c0-1.8-0.9-2.3-2.2-2.3c-1.2,0-2.4,0.7-3,1.6v6.9h-1v-9.1h1v1.4c0.7-0.8,2-1.6,3.3-1.6
				c1.9,0,2.9,0.9,2.9,3v6.4H433.3z"/>
			<path d="M444.1,448.2v-1.5c-0.6,0.9-1.8,1.7-3.2,1.7c-2.4,0-4.1-1.9-4.1-4.8c0-2.9,1.7-4.8,4.1-4.8c1.3,0,2.4,0.7,3.2,1.7v-5h1
				v12.6H444.1z M444.1,445.9v-4.5c-0.5-0.9-1.7-1.7-3-1.7c-2,0-3.2,1.7-3.2,3.9s1.2,3.9,3.2,3.9
				C442.4,447.5,443.6,446.8,444.1,445.9z"/>
			<path fill="#079B3C" d="M452.2,443.6c0-4.1,3.6-7.5,7.5-7.5c3.6,0,6,2.7,6,5.9c0,3.1-1.9,4.6-3.5,4.6c-1.1,0-1.7-0.7-1.8-1.5
				l0-0.1c-0.7,0.9-1.7,1.6-2.8,1.6c-1.8,0-2.9-1.3-2.9-3.1c0-2.6,2.1-4.7,4.4-4.7c1.2,0,2,0.6,2.4,1.3l0.2-1.1h1.8l-1,4.8
				c0,0.1,0,0.3,0,0.4c0,0.6,0.3,0.9,0.8,0.9c0.7,0,1.9-0.9,1.9-3.2c0-3-2.1-5.2-5.3-5.2c-3.6,0-6.7,3.2-6.7,6.7
				c0,3,2.3,5.3,5.4,5.3c1.3,0,2.5-0.4,3.5-1l0.4,0.5c-1.2,0.8-2.5,1.2-3.9,1.2C454.8,449.5,452.2,446.9,452.2,443.6z M460.6,443.7
				l0.5-2.4c-0.2-0.5-0.8-1.2-1.7-1.2c-1.7,0-2.9,1.6-2.9,3.1c0,1.1,0.6,1.9,1.7,1.9C459.3,445.2,460.1,444.4,460.6,443.7z"/>
			<path fill="#079B3C" d="M467.5,436.7c0-0.7,0.6-1.2,1.2-1.2c0.7,0,1.2,0.5,1.2,1.2s-0.5,1.2-1.2,1.2
				C468,437.9,467.5,437.4,467.5,436.7z M467.7,448.2v-9.1h2v9.1H467.7z"/>
			<path fill="#079B3C" d="M474.7,448.2l-3.7-9.1h2.1l2.7,6.9l2.7-6.9h2.1l-3.7,9.1H474.7z"/>
			<path fill="#079B3C" d="M487.4,448.2v-1c-0.7,0.8-1.7,1.2-3,1.2c-1.5,0-3.2-1-3.2-3c0-2.1,1.7-3,3.2-3c1.2,0,2.3,0.4,3,1.2v-1.4
				c0-1.1-0.9-1.7-2.1-1.7c-1,0-1.9,0.4-2.7,1.2l-0.8-1.4c1.1-1,2.4-1.5,3.8-1.5c2,0,3.8,0.9,3.8,3.3v6.1H487.4z M487.4,446.1v-1.4
				c-0.5-0.6-1.3-0.9-2.2-0.9c-1.1,0-2,0.6-2,1.6c0,1,0.8,1.6,2,1.6C486.1,447.1,486.9,446.7,487.4,446.1z"/>
			<path fill="#079B3C" d="M498.1,448.2v-5.7c0-1.4-0.7-1.9-1.8-1.9c-1,0-1.9,0.6-2.3,1.2v6.4h-2v-9.1h2v1.2
				c0.6-0.7,1.8-1.5,3.2-1.5c2,0,3,1.1,3,2.9v6.4H498.1z"/>
			<path d="M376,469.3v-1.1c-0.8,0.9-1.8,1.3-3.1,1.3c-1.6,0-3.2-1.1-3.2-3c0-2,1.6-3,3.2-3c1.3,0,2.3,0.4,3.1,1.3v-1.9
				c0-1.4-1.1-2.1-2.5-2.1c-1.1,0-2,0.4-2.9,1.3l-0.5-0.7c0.9-1,2-1.5,3.5-1.5c1.9,0,3.3,0.9,3.3,2.9v6.4H376z M376,467.5v-2
				c-0.6-0.8-1.7-1.3-2.8-1.3c-1.5,0-2.5,1-2.5,2.3c0,1.3,1,2.3,2.5,2.3C374.4,468.7,375.4,468.3,376,467.5z"/>
			<path d="M380.1,469.3v-9.1h1v1.6c0.8-1,1.8-1.8,3.1-1.8v1.1c-0.2,0-0.3,0-0.5,0c-0.9,0-2.2,0.8-2.6,1.6v6.7H380.1z"/>
			<path d="M385.6,464.7c0-2.7,1.9-4.8,4.4-4.8c2.8,0,4.3,2.2,4.3,4.8v0.3h-7.7c0.1,2,1.4,3.6,3.6,3.6c1.2,0,2.2-0.4,3-1.3l0.5,0.6
				c-0.9,0.9-2.1,1.5-3.6,1.5C387.5,469.5,385.6,467.5,385.6,464.7z M390,460.7c-2.2,0-3.2,1.9-3.3,3.5h6.6
				C393.3,462.7,392.2,460.7,390,460.7z"/>
			<path d="M401.7,469.3v-12.6h1v5c0.7-1,1.9-1.7,3.2-1.7c2.4,0,4.1,1.9,4.1,4.8c0,2.9-1.7,4.8-4.1,4.8c-1.4,0-2.5-0.7-3.2-1.7v1.5
				H401.7z M405.7,468.6c2,0,3.2-1.7,3.2-3.9s-1.2-3.9-3.2-3.9c-1.3,0-2.5,0.8-3,1.7v4.5C403.3,467.8,404.5,468.6,405.7,468.6z"/>
			<path d="M418.7,469.3v-1.3c-0.8,0.8-2,1.6-3.3,1.6c-1.9,0-2.9-0.9-2.9-2.9v-6.4h1v6.2c0,1.8,0.9,2.3,2.2,2.3c1.2,0,2.4-0.7,3-1.5
				v-7h1v9.1H418.7z"/>
			<path d="M422.5,457.9c0-0.4,0.4-0.7,0.8-0.7c0.4,0,0.8,0.3,0.8,0.7s-0.3,0.8-0.8,0.8C422.9,458.7,422.5,458.3,422.5,457.9z
				 M422.8,469.3v-9.1h1v9.1H422.8z"/>
			<path d="M426.8,469.3v-12.6h1v12.6H426.8z"/>
			<path d="M437.6,469.3v-1.5c-0.6,0.9-1.8,1.7-3.2,1.7c-2.4,0-4.1-1.9-4.1-4.8c0-2.9,1.7-4.8,4.1-4.8c1.3,0,2.4,0.7,3.2,1.7v-5h1
				v12.6H437.6z M437.6,467v-4.5c-0.5-0.9-1.7-1.7-3-1.7c-2,0-3.2,1.7-3.2,3.9s1.2,3.9,3.2,3.9C435.9,468.6,437.1,467.8,437.6,467z"
				/>
			<path d="M441.4,457.9c0-0.4,0.4-0.7,0.8-0.7c0.4,0,0.8,0.3,0.8,0.7s-0.3,0.8-0.8,0.8C441.8,458.7,441.4,458.3,441.4,457.9z
				 M441.7,469.3v-9.1h1v9.1H441.7z"/>
			<path d="M451.9,469.3v-6.2c0-1.8-0.9-2.3-2.2-2.3c-1.2,0-2.4,0.7-3,1.6v6.9h-1v-9.1h1v1.4c0.7-0.8,2-1.6,3.3-1.6
				c1.9,0,2.9,0.9,2.9,3v6.4H451.9z"/>
			<path d="M456,471.6l0.6-0.8c0.8,0.9,1.7,1.3,3,1.3c1.7,0,3.1-0.8,3.1-2.9v-1.4c-0.6,0.9-1.8,1.7-3.2,1.7c-2.4,0-4.1-1.8-4.1-4.8
				c0-2.9,1.7-4.8,4.1-4.8c1.3,0,2.4,0.7,3.2,1.7v-1.5h1v9.1c0,2.8-1.9,3.8-4.1,3.8C458.1,473,457.1,472.7,456,471.6z M462.7,466.9
				v-4.5c-0.5-0.9-1.7-1.7-3-1.7c-2,0-3.2,1.7-3.2,3.9c0,2.2,1.2,3.9,3.2,3.9C461,468.6,462.2,467.8,462.7,466.9z"/>
			<path d="M471.9,467.5V461h-1.5v-0.9h1.5v-2.5h1v2.5h1.9v0.9h-1.9v6.4c0,0.7,0.3,1.2,0.9,1.2c0.4,0,0.8-0.2,1-0.4l0.4,0.8
				c-0.4,0.3-0.8,0.6-1.6,0.6C472.5,469.5,471.9,468.7,471.9,467.5z"/>
			<path d="M483.1,469.3V463c0-1.8-0.9-2.3-2.2-2.3c-1.2,0-2.4,0.7-3,1.6v6.9h-1v-12.6h1v4.9c0.7-0.8,2-1.6,3.3-1.6
				c1.9,0,2.9,0.9,2.9,2.9v6.4H483.1z"/>
			<path d="M486.6,464.7c0-2.7,1.9-4.8,4.4-4.8c2.8,0,4.3,2.2,4.3,4.8v0.3h-7.7c0.1,2,1.4,3.6,3.6,3.6c1.2,0,2.2-0.4,3-1.3l0.5,0.6
				c-0.9,0.9-2.1,1.5-3.6,1.5C488.5,469.5,486.6,467.5,486.6,464.7z M491,460.7c-2.2,0-3.2,1.9-3.3,3.5h6.6
				C494.3,462.7,493.3,460.7,491,460.7z"/>
			<path d="M503.1,469.3V461h-1.5v-0.9h1.5v-0.8c0-1.8,1-2.8,2.5-2.8c0.5,0,0.9,0.1,1.2,0.3l-0.3,0.8c-0.2-0.1-0.5-0.2-0.8-0.2
				c-1,0-1.6,0.7-1.6,2v0.8h1.9v0.9h-1.9v8.3H503.1z M507.5,457.9c0-0.4,0.4-0.7,0.8-0.7c0.4,0,0.8,0.3,0.8,0.7s-0.3,0.8-0.8,0.8
				C507.9,458.7,507.5,458.3,507.5,457.9z M507.8,469.3v-9.1h1v9.1H507.8z"/>
			<path d="M511.8,469.3v-9.1h1v1.6c0.8-1,1.8-1.8,3.1-1.8v1.1c-0.2,0-0.3,0-0.5,0c-0.9,0-2.2,0.8-2.6,1.6v6.7H511.8z"/>
			<path d="M517,468l0.6-0.7c0.6,0.7,1.7,1.3,3,1.3c1.5,0,2.4-0.8,2.4-1.9c0-2.5-5.8-1.1-5.8-4.4c0-1.4,1.2-2.5,3.3-2.5
				c1.6,0,2.6,0.6,3.3,1.3l-0.5,0.7c-0.5-0.7-1.5-1.2-2.7-1.2c-1.4,0-2.3,0.7-2.3,1.7c0,2.3,5.8,0.9,5.8,4.4c0,1.5-1.1,2.7-3.4,2.7
				C519.1,469.5,518,469,517,468z"/>
			<path d="M526.7,467.5V461h-1.5v-0.9h1.5v-2.5h1v2.5h1.9v0.9h-1.9v6.4c0,0.7,0.3,1.2,0.9,1.2c0.4,0,0.8-0.2,1-0.4l0.4,0.8
				c-0.4,0.3-0.8,0.6-1.6,0.6C527.3,469.5,526.7,468.7,526.7,467.5z"/>
			<path d="M371.2,488.8v5h-1v-12.6h1v1.4c0.6-0.9,1.8-1.7,3.2-1.7c2.4,0,4.1,1.9,4.1,4.8c0,2.9-1.6,4.8-4.1,4.8
				C373.1,490.5,371.9,489.9,371.2,488.8z M377.4,485.7c0-2.2-1.2-3.9-3.2-3.9c-1.3,0-2.5,0.8-3,1.6v4.5c0.5,0.9,1.7,1.7,3,1.7
				C376.3,489.6,377.4,487.9,377.4,485.7z"/>
			<path d="M381,490.3v-9.1h1v1.6c0.8-1,1.8-1.8,3.1-1.8v1.1c-0.2,0-0.3,0-0.5,0c-0.9,0-2.2,0.8-2.6,1.6v6.7H381z"/>
			<path d="M386.4,485.7c0-2.7,1.7-4.8,4.4-4.8c2.7,0,4.4,2.1,4.4,4.8c0,2.7-1.7,4.8-4.4,4.8C388.2,490.5,386.4,488.4,386.4,485.7z
				 M394.2,485.7c0-2-1.2-3.9-3.4-3.9c-2.1,0-3.3,1.9-3.3,3.9c0,2,1.2,3.9,3.3,3.9C393,489.6,394.2,487.8,394.2,485.7z"/>
			<path d="M398,488.5V482h-1.5v-0.9h1.5v-2.5h1v2.5h1.9v0.9H399v6.4c0,0.7,0.3,1.2,0.9,1.2c0.4,0,0.8-0.2,1-0.4l0.4,0.8
				c-0.4,0.3-0.8,0.6-1.6,0.6C398.6,490.5,398,489.8,398,488.5z"/>
			<path d="M402.5,485.7c0-2.7,1.7-4.8,4.4-4.8c2.7,0,4.4,2.1,4.4,4.8c0,2.7-1.7,4.8-4.4,4.8C404.2,490.5,402.5,488.4,402.5,485.7z
				 M410.2,485.7c0-2-1.2-3.9-3.4-3.9c-2.1,0-3.3,1.9-3.3,3.9c0,2,1.2,3.9,3.3,3.9C409,489.6,410.2,487.8,410.2,485.7z"/>
			<path d="M414,488.5V482h-1.5v-0.9h1.5v-2.5h1v2.5h1.9v0.9H415v6.4c0,0.7,0.3,1.2,0.9,1.2c0.4,0,0.8-0.2,1-0.4l0.4,0.8
				c-0.4,0.3-0.8,0.6-1.6,0.6C414.6,490.5,414,489.8,414,488.5z"/>
			<path d="M418.6,493c0.2,0.1,0.6,0.2,0.8,0.2c0.6,0,1-0.2,1.4-1.1l0.7-1.6l-3.9-9.2h1.1l3.3,8l3.3-8h1.1l-4.7,11.2
				c-0.5,1.2-1.3,1.7-2.3,1.7c-0.3,0-0.7-0.1-1-0.1L418.6,493z"/>
			<path d="M429.1,488.8v5h-1v-12.6h1v1.4c0.6-0.9,1.8-1.7,3.2-1.7c2.4,0,4.1,1.9,4.1,4.8c0,2.9-1.6,4.8-4.1,4.8
				C431,490.5,429.9,489.9,429.1,488.8z M435.3,485.7c0-2.2-1.2-3.9-3.2-3.9c-1.3,0-2.5,0.8-3,1.6v4.5c0.5,0.9,1.7,1.7,3,1.7
				C434.2,489.6,435.3,487.9,435.3,485.7z"/>
			<path d="M438.3,485.7c0-2.7,1.9-4.8,4.4-4.8c2.8,0,4.3,2.2,4.3,4.8v0.3h-7.7c0.1,2,1.4,3.6,3.6,3.6c1.2,0,2.2-0.4,3-1.3l0.5,0.6
				c-0.9,0.9-2.1,1.5-3.6,1.5C440.3,490.5,438.3,488.5,438.3,485.7z M442.7,481.8c-2.2,0-3.2,1.9-3.3,3.5h6.6
				C446,483.7,445,481.8,442.7,481.8z"/>
		</g>
	</g>
	<g>
		<g>
			<path d="M810.5,412.4c0-3.8,2.7-6.5,6.5-6.5s6.5,2.8,6.5,6.5s-2.7,6.5-6.5,6.5S810.5,416.2,810.5,412.4z M821.2,412.4
				c0-2.6-1.6-4.6-4.2-4.6c-2.6,0-4.2,2-4.2,4.6c0,2.6,1.6,4.6,4.2,4.6C819.5,417,821.2,415,821.2,412.4z"/>
			<path d="M825,414.2c0-2.8,2-4.8,4.7-4.8c1.8,0,2.9,0.8,3.5,1.6l-1.3,1.2c-0.5-0.7-1.2-1.1-2.1-1.1c-1.7,0-2.8,1.2-2.8,3
				c0,1.8,1.1,3,2.8,3c0.9,0,1.6-0.4,2.1-1.1l1.3,1.2c-0.6,0.9-1.7,1.6-3.5,1.6C826.9,419,825,416.9,825,414.2z"/>
			<path d="M835.4,416.6v-5.3h-1.5v-1.7h1.5v-2.5h2v2.5h1.9v1.7h-1.9v4.8c0,0.6,0.3,1.1,0.9,1.1c0.4,0,0.7-0.2,0.9-0.3l0.5,1.5
				c-0.4,0.3-0.9,0.6-1.9,0.6C836.2,419,835.4,418.1,835.4,416.6z"/>
			<path d="M848.2,418.7V409l-2.1,2.1l-1.3-1.3l3.6-3.7h1.9v12.6H848.2z"/>
			<path d="M852.7,418.7V417c4.9-3.7,6.8-5.4,6.8-7.2c0-1.3-1.1-1.9-2.3-1.9c-1.5,0-2.6,0.6-3.4,1.5l-1.3-1.5c1.1-1.3,2.9-2,4.7-2
				c2.4,0,4.6,1.4,4.6,3.9c0,2.3-2.1,4.4-5.5,7h5.6v2H852.7z"/>
			<path d="M811.3,448.2v-12.6h1.1v12.6H811.3z"/>
			<path d="M821.7,448.2V442c0-1.8-0.9-2.3-2.2-2.3c-1.2,0-2.4,0.7-3,1.6v6.9h-1v-9.1h1v1.4c0.7-0.8,2-1.6,3.3-1.6
				c1.9,0,2.9,0.9,2.9,3v6.4H821.7z"/>
			<path d="M825.5,436.9c0-0.4,0.4-0.7,0.8-0.7c0.4,0,0.8,0.3,0.8,0.7s-0.3,0.8-0.8,0.8C825.8,437.6,825.5,437.3,825.5,436.9z
				 M825.8,448.2v-9.1h1v9.1H825.8z"/>
			<path d="M830,446.4v-6.5h-1.5v-0.9h1.5v-2.5h1v2.5h1.9v0.9H831v6.4c0,0.7,0.3,1.2,0.9,1.2c0.4,0,0.8-0.2,1-0.4l0.4,0.8
				c-0.4,0.3-0.8,0.6-1.6,0.6C830.6,448.4,830,447.7,830,446.4z"/>
			<path d="M834.7,436.9c0-0.4,0.4-0.7,0.8-0.7c0.4,0,0.8,0.3,0.8,0.7s-0.3,0.8-0.8,0.8C835.1,437.6,834.7,437.3,834.7,436.9z
				 M835,448.2v-9.1h1v9.1H835z"/>
			<path d="M844.9,448.2v-1.1c-0.8,0.9-1.8,1.3-3.1,1.3c-1.6,0-3.2-1.1-3.2-3c0-2,1.6-3,3.2-3c1.3,0,2.3,0.4,3.1,1.3v-1.9
				c0-1.4-1.1-2.1-2.5-2.1c-1.1,0-2,0.4-2.9,1.3l-0.5-0.7c0.9-1,2-1.5,3.5-1.5c1.9,0,3.3,0.9,3.3,2.9v6.4H844.9z M844.9,446.4v-2
				c-0.6-0.8-1.7-1.3-2.8-1.3c-1.5,0-2.5,1-2.5,2.3c0,1.3,1,2.3,2.5,2.3C843.2,447.7,844.2,447.2,844.9,446.4z"/>
			<path d="M848.9,448.2v-12.6h1v12.6H848.9z"/>
			<path fill="#079B3C" d="M860.9,448.2l1.1-3.3h-1.9l-1.1,3.3h-1.5l1.1-3.3h-1.9l0.4-1.3h1.9l1.1-3.4h-1.9l0.4-1.3h2l1.1-3.3h1.5
				l-1.1,3.3h1.9l1.1-3.3h1.5l-1.1,3.3h1.9l-0.4,1.3h-2l-1.1,3.4h2l-0.4,1.3h-2l-1.1,3.3H860.9z M863.6,440.2h-1.9l-1.1,3.4h1.9
				L863.6,440.2z"/>
			<path fill="#079B3C" d="M869.5,446.1v-5.3H868v-1.7h1.5v-2.5h2v2.5h1.9v1.7h-1.9v4.8c0,0.6,0.3,1.1,0.9,1.1
				c0.4,0,0.7-0.2,0.9-0.3l0.5,1.5c-0.4,0.3-0.9,0.6-1.9,0.6C870.3,448.4,869.5,447.6,869.5,446.1z"/>
			<path fill="#079B3C" d="M875.2,448.2v-9.1h2v1.3c0.7-0.9,1.8-1.6,3-1.6v2c-0.2,0-0.4-0.1-0.6-0.1c-0.8,0-2,0.6-2.3,1.2v6.2H875.2
				z"/>
			<path fill="#079B3C" d="M887.3,448.2v-1c-0.7,0.8-1.7,1.2-3,1.2c-1.5,0-3.2-1-3.2-3c0-2.1,1.7-3,3.2-3c1.2,0,2.3,0.4,3,1.2v-1.4
				c0-1.1-0.9-1.7-2.1-1.7c-1,0-1.9,0.4-2.7,1.2l-0.8-1.4c1.1-1,2.4-1.5,3.8-1.5c2,0,3.8,0.9,3.8,3.3v6.1H887.3z M887.3,446.1v-1.4
				c-0.5-0.6-1.3-0.9-2.2-0.9c-1.1,0-2,0.6-2,1.6c0,1,0.8,1.6,2,1.6C886,447.1,886.9,446.7,887.3,446.1z"/>
			<path fill="#079B3C" d="M891.3,443.6c0-2.8,2-4.8,4.7-4.8c1.8,0,2.9,0.8,3.5,1.6l-1.3,1.2c-0.5-0.7-1.2-1.1-2.1-1.1
				c-1.7,0-2.8,1.2-2.8,3c0,1.8,1.1,3,2.8,3c0.9,0,1.6-0.4,2.1-1.1l1.3,1.2c-0.6,0.9-1.7,1.6-3.5,1.6
				C893.3,448.4,891.3,446.4,891.3,443.6z"/>
			<path fill="#079B3C" d="M901.7,446.1v-5.3h-1.5v-1.7h1.5v-2.5h2v2.5h1.9v1.7h-1.9v4.8c0,0.6,0.3,1.1,0.9,1.1
				c0.4,0,0.7-0.2,0.9-0.3l0.5,1.5c-0.4,0.3-0.9,0.6-1.9,0.6C902.5,448.4,901.7,447.6,901.7,446.1z"/>
			<path fill="#079B3C" d="M907.1,436.7c0-0.7,0.6-1.2,1.2-1.2c0.7,0,1.2,0.5,1.2,1.2s-0.5,1.2-1.2,1.2
				C907.7,437.9,907.1,437.4,907.1,436.7z M907.4,448.2v-9.1h2v9.1H907.4z"/>
			<path fill="#079B3C" d="M911.3,443.6c0-2.6,1.8-4.8,4.7-4.8c2.9,0,4.7,2.2,4.7,4.8c0,2.6-1.8,4.8-4.7,4.8
				C913.1,448.4,911.3,446.3,911.3,443.6z M918.7,443.6c0-1.6-0.9-3-2.7-3c-1.7,0-2.6,1.4-2.6,3c0,1.6,0.9,3,2.6,3
				C917.8,446.7,918.7,445.2,918.7,443.6z"/>
			<path fill="#079B3C" d="M928.9,448.2v-5.7c0-1.4-0.7-1.9-1.8-1.9c-1,0-1.9,0.6-2.3,1.2v6.4h-2v-9.1h2v1.2
				c0.6-0.7,1.8-1.5,3.2-1.5c2,0,3,1.1,3,2.9v6.4H928.9z"/>
			<path d="M811.3,469.3v-9.1h1v1.6c0.8-1,1.8-1.8,3.1-1.8v1.1c-0.2,0-0.3,0-0.5,0c-0.9,0-2.2,0.8-2.6,1.6v6.7H811.3z"/>
			<path d="M816.8,464.7c0-2.7,1.9-4.8,4.4-4.8c2.8,0,4.3,2.2,4.3,4.8v0.3h-7.7c0.1,2,1.4,3.6,3.6,3.6c1.2,0,2.2-0.4,3-1.3l0.5,0.6
				c-0.9,0.9-2.1,1.5-3.6,1.5C818.7,469.5,816.8,467.5,816.8,464.7z M821.2,460.7c-2.2,0-3.2,1.9-3.3,3.5h6.6
				C824.5,462.7,823.5,460.7,821.2,460.7z"/>
			<path d="M833.9,469.3v-1.1c-0.8,0.9-1.8,1.3-3.1,1.3c-1.6,0-3.2-1.1-3.2-3c0-2,1.6-3,3.2-3c1.3,0,2.3,0.4,3.1,1.3v-1.9
				c0-1.4-1.1-2.1-2.5-2.1c-1.1,0-2,0.4-2.9,1.3l-0.5-0.7c0.9-1,2-1.5,3.5-1.5c1.9,0,3.3,0.9,3.3,2.9v6.4H833.9z M833.9,467.5v-2
				c-0.6-0.8-1.7-1.3-2.8-1.3c-1.5,0-2.5,1-2.5,2.3c0,1.3,1,2.3,2.5,2.3C832.2,468.7,833.2,468.3,833.9,467.5z"/>
			<path d="M837.4,464.7c0-2.7,1.8-4.8,4.5-4.8c1.6,0,2.5,0.6,3.2,1.6l-0.7,0.6c-0.7-0.9-1.5-1.3-2.5-1.3c-2.1,0-3.4,1.7-3.4,3.9
				c0,2.2,1.3,3.9,3.4,3.9c1,0,1.8-0.4,2.5-1.3l0.7,0.6c-0.7,0.9-1.6,1.6-3.2,1.6C839.1,469.5,837.4,467.3,837.4,464.7z"/>
			<path d="M853.4,469.3V463c0-1.8-0.9-2.3-2.2-2.3c-1.2,0-2.4,0.7-3,1.6v6.9h-1v-12.6h1v4.9c0.7-0.8,2-1.6,3.3-1.6
				c1.9,0,2.9,0.9,2.9,2.9v6.4H853.4z"/>
			<path d="M857,464.7c0-2.7,1.9-4.8,4.4-4.8c2.8,0,4.3,2.2,4.3,4.8v0.3H858c0.1,2,1.4,3.6,3.6,3.6c1.2,0,2.2-0.4,3-1.3l0.5,0.6
				c-0.9,0.9-2.1,1.5-3.6,1.5C858.9,469.5,857,467.5,857,464.7z M861.4,460.7c-2.2,0-3.2,1.9-3.3,3.5h6.6
				C864.7,462.7,863.7,460.7,861.4,460.7z"/>
			<path d="M867.4,468l0.6-0.7c0.6,0.7,1.7,1.3,3,1.3c1.5,0,2.4-0.8,2.4-1.9c0-2.5-5.8-1.1-5.8-4.4c0-1.4,1.2-2.5,3.3-2.5
				c1.6,0,2.6,0.6,3.3,1.3l-0.5,0.7c-0.5-0.7-1.5-1.2-2.7-1.2c-1.4,0-2.3,0.7-2.3,1.7c0,2.3,5.8,0.9,5.8,4.4c0,1.5-1.1,2.7-3.4,2.7
				C869.5,469.5,868.4,469,867.4,468z"/>
			<path d="M883.5,469.3v-11.2l-2,2.2l-0.7-0.7l2.8-2.9h1v12.6H883.5z"/>
			<path d="M887.2,462.9c0-3,1.3-6.5,4.7-6.5c3.4,0,4.7,3.5,4.7,6.5c0,3-1.3,6.5-4.7,6.5C888.5,469.5,887.2,465.9,887.2,462.9z
				 M895.4,462.9c0-2.6-0.9-5.5-3.5-5.5c-2.7,0-3.5,2.9-3.5,5.5c0,2.6,0.9,5.5,3.5,5.5C894.5,468.5,895.4,465.5,895.4,462.9z"/>
			<path d="M898.8,462.9c0-3,1.3-6.5,4.7-6.5c3.4,0,4.7,3.5,4.7,6.5c0,3-1.3,6.5-4.7,6.5C900,469.5,898.8,465.9,898.8,462.9z
				 M906.9,462.9c0-2.6-0.9-5.5-3.5-5.5c-2.7,0-3.5,2.9-3.5,5.5c0,2.6,0.9,5.5,3.5,5.5C906.1,468.5,906.9,465.5,906.9,462.9z"/>
			<path d="M916.6,467.8v5h-1v-12.6h1v1.4c0.6-0.9,1.8-1.7,3.2-1.7c2.4,0,4.1,1.9,4.1,4.8c0,2.9-1.6,4.8-4.1,4.8
				C918.5,469.5,917.3,468.8,916.6,467.8z M922.8,464.7c0-2.2-1.2-3.9-3.2-3.9c-1.3,0-2.5,0.8-3,1.6v4.5c0.5,0.9,1.7,1.7,3,1.7
				C921.7,468.6,922.8,466.9,922.8,464.7z"/>
			<path d="M932.2,469.3v-1.1c-0.8,0.9-1.8,1.3-3.1,1.3c-1.6,0-3.2-1.1-3.2-3c0-2,1.6-3,3.2-3c1.3,0,2.3,0.4,3.1,1.3v-1.9
				c0-1.4-1.1-2.1-2.5-2.1c-1.1,0-2,0.4-2.9,1.3l-0.5-0.7c0.9-1,2-1.5,3.5-1.5c1.9,0,3.3,0.9,3.3,2.9v6.4H932.2z M932.2,467.5v-2
				c-0.6-0.8-1.7-1.3-2.8-1.3c-1.5,0-2.5,1-2.5,2.3c0,1.3,1,2.3,2.5,2.3C930.5,468.7,931.5,468.3,932.2,467.5z"/>
			<path d="M936,457.9c0-0.4,0.4-0.7,0.8-0.7c0.4,0,0.8,0.3,0.8,0.7s-0.3,0.8-0.8,0.8C936.3,458.7,936,458.3,936,457.9z
				 M936.2,469.3v-9.1h1v9.1H936.2z"/>
			<path d="M947,469.3v-1.5c-0.6,0.9-1.8,1.7-3.2,1.7c-2.4,0-4.1-1.9-4.1-4.8c0-2.9,1.7-4.8,4.1-4.8c1.3,0,2.4,0.7,3.2,1.7v-5h1
				v12.6H947z M947,467v-4.5c-0.5-0.9-1.7-1.7-3-1.7c-2,0-3.2,1.7-3.2,3.9s1.2,3.9,3.2,3.9C945.3,468.6,946.5,467.8,947,467z"/>
			<path d="M810.8,485.7c0-2.7,1.8-4.8,4.4-4.8c1.6,0,2.5,0.6,3.2,1.6l-0.7,0.6c-0.7-0.9-1.5-1.3-2.5-1.3c-2.1,0-3.4,1.7-3.4,3.9
				c0,2.2,1.3,3.9,3.4,3.9c1,0,1.8-0.4,2.5-1.3l0.7,0.6c-0.7,0.9-1.6,1.6-3.2,1.6C812.5,490.5,810.8,488.4,810.8,485.7z"/>
			<path d="M826.8,490.3V489c-0.8,0.8-2,1.6-3.3,1.6c-1.9,0-2.9-0.9-2.9-2.9v-6.4h1v6.2c0,1.8,0.9,2.3,2.2,2.3c1.2,0,2.4-0.7,3-1.5
				v-7h1v9.1H826.8z"/>
			<path d="M830.1,489.1l0.6-0.7c0.6,0.7,1.7,1.3,3,1.3c1.5,0,2.4-0.8,2.4-1.9c0-2.5-5.8-1.1-5.8-4.4c0-1.4,1.2-2.5,3.3-2.5
				c1.6,0,2.6,0.6,3.3,1.3l-0.5,0.7c-0.5-0.7-1.5-1.2-2.7-1.2c-1.4,0-2.3,0.7-2.3,1.7c0,2.3,5.8,0.9,5.8,4.4c0,1.5-1.1,2.7-3.4,2.7
				C832.1,490.5,831,490.1,830.1,489.1z"/>
			<path d="M839.8,488.5V482h-1.5v-0.9h1.5v-2.5h1v2.5h1.9v0.9h-1.9v6.4c0,0.7,0.3,1.2,0.9,1.2c0.4,0,0.8-0.2,1-0.4l0.4,0.8
				c-0.4,0.3-0.8,0.6-1.6,0.6C840.4,490.5,839.8,489.8,839.8,488.5z"/>
			<path d="M844.3,485.7c0-2.7,1.7-4.8,4.4-4.8c2.7,0,4.4,2.1,4.4,4.8c0,2.7-1.7,4.8-4.4,4.8C846,490.5,844.3,488.4,844.3,485.7z
				 M852,485.7c0-2-1.2-3.9-3.4-3.9c-2.1,0-3.3,1.9-3.3,3.9c0,2,1.2,3.9,3.3,3.9C850.8,489.6,852,487.8,852,485.7z"/>
			<path d="M866.5,490.3v-6.4c0-1.3-0.5-2.1-1.8-2.1c-1,0-2.1,0.7-2.6,1.6v6.9h-1v-6.4c0-1.3-0.5-2.1-1.8-2.1c-1,0-2.1,0.7-2.6,1.6
				v6.9h-1v-9.1h1v1.4c0.4-0.6,1.6-1.6,3-1.6c1.4,0,2.2,0.8,2.4,1.7c0.5-0.9,1.7-1.7,3-1.7c1.7,0,2.5,0.9,2.5,2.8v6.6H866.5z"/>
			<path d="M870,485.7c0-2.7,1.9-4.8,4.4-4.8c2.8,0,4.3,2.2,4.3,4.8v0.3h-7.7c0.1,2,1.4,3.6,3.6,3.6c1.2,0,2.2-0.4,3-1.3l0.5,0.6
				c-0.9,0.9-2.1,1.5-3.6,1.5C871.9,490.5,870,488.5,870,485.7z M874.4,481.8c-2.2,0-3.2,1.9-3.3,3.5h6.6
				C877.7,483.7,876.7,481.8,874.4,481.8z"/>
			<path d="M881.3,490.3v-9.1h1v1.6c0.8-1,1.8-1.8,3.1-1.8v1.1c-0.2,0-0.3,0-0.5,0c-0.9,0-2.2,0.8-2.6,1.6v6.7H881.3z"/>
			<path d="M886.5,489.1l0.6-0.7c0.6,0.7,1.7,1.3,3,1.3c1.5,0,2.4-0.8,2.4-1.9c0-2.5-5.8-1.1-5.8-4.4c0-1.4,1.2-2.5,3.3-2.5
				c1.6,0,2.6,0.6,3.3,1.3l-0.5,0.7c-0.5-0.7-1.5-1.2-2.7-1.2c-1.4,0-2.3,0.7-2.3,1.7c0,2.3,5.8,0.9,5.8,4.4c0,1.5-1.1,2.7-3.4,2.7
				C888.5,490.5,887.4,490.1,886.5,489.1z"/>
		</g>
	</g>
	<g>
		<g>
			<path d="M441.3,278.1l-0.9-2.4h-5.8l-0.9,2.4h-2.5l5-12.6h2.8l5,12.6H441.3z M437.5,267.7l-2.3,6h4.5L437.5,267.7z"/>
			<path d="M447.2,276.8v4.8h-2v-12.6h2v1.2c0.7-0.9,1.7-1.5,2.9-1.5c2.4,0,4.1,1.8,4.1,4.8s-1.7,4.8-4.1,4.8
				C449,278.3,447.9,277.8,447.2,276.8z M452.1,273.5c0-1.8-1-3-2.6-3c-0.9,0-1.9,0.5-2.3,1.2v3.6c0.4,0.7,1.4,1.2,2.3,1.2
				C451.1,276.5,452.1,275.2,452.1,273.5z"/>
			<path d="M456.1,278.1v-9.1h2v1.3c0.7-0.9,1.8-1.6,3-1.6v2c-0.2,0-0.4-0.1-0.6-0.1c-0.8,0-2,0.6-2.3,1.2v6.2H456.1z"/>
			<path d="M469.9,278.1v-9.8l-2.1,2.1l-1.3-1.3l3.6-3.7h1.9v12.6H469.9z"/>
			<path d="M474.4,278.1v-1.7c4.9-3.7,6.8-5.4,6.8-7.2c0-1.3-1.1-1.9-2.3-1.9c-1.5,0-2.6,0.6-3.4,1.5l-1.3-1.5c1.1-1.3,2.9-2,4.7-2
				c2.4,0,4.6,1.4,4.6,3.9c0,2.3-2.1,4.4-5.5,7h5.6v2H474.4z"/>
			<path fill="#079B3C" d="M431.8,302.9c0-4.1,3.6-7.5,7.5-7.5c3.6,0,6,2.7,6,5.9c0,3.1-1.9,4.6-3.5,4.6c-1.1,0-1.7-0.7-1.8-1.5
				l0-0.1c-0.7,0.9-1.7,1.6-2.8,1.6c-1.8,0-2.9-1.3-2.9-3.1c0-2.6,2.1-4.7,4.4-4.7c1.2,0,2,0.6,2.4,1.3l0.2-1.1h1.8l-1,4.8
				c0,0.1,0,0.3,0,0.4c0,0.6,0.3,0.9,0.8,0.9c0.7,0,1.9-0.9,1.9-3.2c0-3-2.1-5.2-5.3-5.2c-3.6,0-6.7,3.2-6.7,6.7
				c0,3,2.3,5.3,5.4,5.3c1.3,0,2.5-0.4,3.5-1l0.4,0.5c-1.2,0.8-2.5,1.2-3.9,1.2C434.4,308.8,431.8,306.2,431.8,302.9z M440.1,303
				l0.5-2.4c-0.2-0.5-0.8-1.2-1.7-1.2c-1.7,0-2.9,1.6-2.9,3.1c0,1.1,0.6,1.9,1.7,1.9C438.9,304.5,439.7,303.7,440.1,303z"/>
			<path fill="#079B3C" d="M453.7,307.5v-1.2c-0.7,0.9-1.8,1.5-2.9,1.5c-2.3,0-4.1-1.8-4.1-4.8c0-3,1.7-4.8,4.1-4.8
				c1.1,0,2.2,0.5,2.9,1.5v-4.8h2v12.6H453.7z M453.7,304.8v-3.6c-0.5-0.7-1.4-1.2-2.4-1.2c-1.6,0-2.6,1.3-2.6,3c0,1.8,1,3,2.6,3
				C452.3,306,453.3,305.5,453.7,304.8z"/>
			<path fill="#079B3C" d="M463.9,307.5v-1c-0.7,0.8-1.7,1.2-3,1.2c-1.5,0-3.2-1-3.2-3c0-2.1,1.7-3,3.2-3c1.2,0,2.3,0.4,3,1.2v-1.4
				c0-1.1-0.9-1.7-2.1-1.7c-1,0-1.9,0.4-2.7,1.2l-0.8-1.4c1.1-1,2.4-1.5,3.8-1.5c2,0,3.8,0.9,3.8,3.3v6.1H463.9z M463.9,305.4v-1.4
				c-0.5-0.6-1.3-0.9-2.2-0.9c-1.1,0-2,0.6-2,1.6c0,1,0.8,1.6,2,1.6C462.6,306.4,463.4,306.1,463.9,305.4z"/>
			<path fill="#079B3C" d="M470.8,307.5l-3.7-9.1h2.1l2.7,6.9l2.7-6.9h2.1l-3.7,9.1H470.8z"/>
			<path fill="#079B3C" d="M477.7,296c0-0.7,0.6-1.2,1.2-1.2c0.7,0,1.2,0.5,1.2,1.2s-0.5,1.2-1.2,1.2
				C478.3,297.3,477.7,296.7,477.7,296z M478,307.5v-9.1h2v9.1H478z"/>
			<path fill="#079B3C" d="M489,307.5v-1.2c-0.7,0.9-1.8,1.5-2.9,1.5c-2.3,0-4.1-1.8-4.1-4.8c0-3,1.7-4.8,4.1-4.8
				c1.1,0,2.2,0.5,2.9,1.5v-4.8h2v12.6H489z M489,304.8v-3.6c-0.5-0.7-1.4-1.2-2.4-1.2c-1.6,0-2.6,1.3-2.6,3c0,1.8,1,3,2.6,3
				C487.5,306,488.5,305.5,489,304.8z"/>
			<path d="M495.3,310.5l0.4-0.8c0.3,0.3,0.8,0.6,1.3,0.6c0.9,0,1.6-0.5,1.6-1.7v-10.3h1v10.3c0,1.7-0.9,2.5-2.5,2.5
				C496.4,311.2,495.9,311,495.3,310.5z M498.4,296.2c0-0.4,0.4-0.7,0.8-0.7c0.4,0,0.8,0.3,0.8,0.7s-0.3,0.8-0.8,0.8
				C498.8,296.9,498.4,296.6,498.4,296.2z"/>
			<path d="M502.2,302.9c0-2.7,1.7-4.8,4.4-4.8c2.7,0,4.4,2.1,4.4,4.8s-1.7,4.8-4.4,4.8C503.9,307.7,502.2,305.6,502.2,302.9z
				 M509.9,302.9c0-2-1.2-3.9-3.4-3.9c-2.1,0-3.3,1.9-3.3,3.9c0,2,1.2,3.9,3.3,3.9C508.8,306.9,509.9,305,509.9,302.9z"/>
			<path d="M513.3,296.2c0-0.4,0.4-0.7,0.8-0.7c0.4,0,0.8,0.3,0.8,0.7s-0.3,0.8-0.8,0.8C513.6,296.9,513.3,296.6,513.3,296.2z
				 M513.6,307.5v-9.1h1v9.1H513.6z"/>
			<path d="M523.8,307.5v-6.2c0-1.8-0.9-2.3-2.2-2.3c-1.2,0-2.4,0.7-3,1.6v6.9h-1v-9.1h1v1.4c0.7-0.8,2-1.6,3.3-1.6
				c1.9,0,2.9,0.9,2.9,3v6.4H523.8z"/>
			<path d="M527,306.3l0.6-0.7c0.6,0.7,1.7,1.3,3,1.3c1.5,0,2.4-0.8,2.4-1.9c0-2.5-5.8-1.1-5.8-4.4c0-1.4,1.2-2.5,3.3-2.5
				c1.6,0,2.6,0.6,3.3,1.3l-0.5,0.7c-0.5-0.7-1.5-1.2-2.7-1.2c-1.4,0-2.3,0.7-2.3,1.7c0,2.3,5.8,0.9,5.8,4.4c0,1.5-1.1,2.7-3.4,2.7
				C529.1,307.7,527.9,307.3,527,306.3z"/>
			<path d="M438.5,328.6v-1.1c-0.8,0.9-1.8,1.3-3.1,1.3c-1.6,0-3.2-1.1-3.2-3c0-2,1.6-3,3.2-3c1.3,0,2.3,0.4,3.1,1.3v-1.9
				c0-1.4-1.1-2.1-2.5-2.1c-1.1,0-2,0.4-2.9,1.3l-0.5-0.7c0.9-1,2-1.5,3.5-1.5c1.9,0,3.3,0.9,3.3,2.9v6.4H438.5z M438.5,326.8v-2
				c-0.6-0.8-1.7-1.3-2.8-1.3c-1.5,0-2.5,1-2.5,2.3c0,1.3,1,2.3,2.5,2.3C436.8,328,437.9,327.6,438.5,326.8z"/>
			<path d="M441.8,327.4l0.6-0.7c0.6,0.7,1.7,1.3,3,1.3c1.5,0,2.4-0.8,2.4-1.9c0-2.5-5.8-1.1-5.8-4.4c0-1.4,1.2-2.5,3.3-2.5
				c1.6,0,2.6,0.6,3.3,1.3l-0.5,0.7c-0.5-0.7-1.5-1.2-2.7-1.2c-1.4,0-2.3,0.7-2.3,1.7c0,2.3,5.8,0.9,5.8,4.4c0,1.5-1.1,2.7-3.4,2.7
				C443.8,328.8,442.7,328.4,441.8,327.4z"/>
			<path d="M455.7,322.3c0-3.9,2.8-6.5,6.4-6.5c2,0,3.5,0.9,4.6,2.2l-0.9,0.6c-0.8-1.1-2.2-1.8-3.7-1.8c-3,0-5.3,2.3-5.3,5.5
				c0,3.3,2.3,5.5,5.3,5.5c1.5,0,2.9-0.7,3.7-1.8l0.9,0.6c-1.1,1.4-2.6,2.3-4.6,2.3C458.5,328.8,455.7,326.1,455.7,322.3z"/>
			<path d="M472.1,328.6v-11.6H468v-1h9.4v1h-4.1v11.6H472.1z"/>
			<path d="M478.6,322.3c0-3.7,2.4-6.5,6.1-6.5c3.7,0,6.1,2.8,6.1,6.5c0,3.7-2.4,6.5-6.1,6.5C481,328.8,478.6,326,478.6,322.3z
				 M489.7,322.3c0-3.2-2-5.5-5-5.5c-3.1,0-5,2.3-5,5.5c0,3.2,1.9,5.5,5,5.5C487.7,327.8,489.7,325.4,489.7,322.3z"/>
		</g>
	</g>
	<g>
		<g>
			<path d="M620.1,277l1-1.7c0.5,0.5,1.2,1,2.2,1c1.4,0,2.2-0.9,2.2-2.3v-8.6h2.2v8.6c0,2.9-1.8,4.2-4.3,4.2
				C622.2,278.3,621,277.9,620.1,277z"/>
			<path d="M636.6,278.1v-1.2c-0.7,0.7-1.8,1.4-3.2,1.4c-2,0-2.9-1-2.9-2.9v-6.5h2v5.8c0,1.4,0.7,1.9,1.8,1.9c1,0,1.9-0.6,2.3-1.2
				v-6.4h2v9.1H636.6z"/>
			<path d="M641.1,278.1v-12.6h2v12.6H641.1z"/>
			<path d="M652.9,278.1v-9.8l-2.1,2.1l-1.3-1.3l3.6-3.7h1.9v12.6H652.9z"/>
			<path d="M657.4,278.1v-1.7c4.9-3.7,6.8-5.4,6.8-7.2c0-1.3-1.1-1.9-2.3-1.9c-1.5,0-2.6,0.6-3.4,1.5l-1.3-1.5c1.1-1.3,2.9-2,4.7-2
				c2.4,0,4.6,1.4,4.6,3.9c0,2.3-2.1,4.4-5.5,7h5.6v2H657.4z"/>
			<path fill="#079B3C" d="M624.6,307.5l1.1-3.3h-1.9l-1.1,3.3h-1.5l1.1-3.3h-1.9l0.4-1.3h1.9l1.1-3.4h-1.9l0.4-1.3h2l1.1-3.3h1.5
				l-1.1,3.3h1.9l1.1-3.3h1.5l-1.1,3.3h1.9l-0.4,1.3h-2l-1.1,3.4h2l-0.4,1.3h-2l-1.1,3.3H624.6z M627.2,299.5h-1.9l-1.1,3.4h1.9
				L627.2,299.5z"/>
			<path fill="#079B3C" d="M632,306.3l0.9-1.4c0.6,0.7,1.9,1.3,3.1,1.3s1.8-0.5,1.8-1.2c0-1.8-5.5-0.5-5.5-4c0-1.5,1.3-2.8,3.6-2.8
				c1.6,0,2.7,0.5,3.6,1.3l-0.8,1.4c-0.5-0.6-1.6-1.1-2.7-1.1c-1,0-1.7,0.5-1.7,1.1c0,1.6,5.5,0.4,5.5,4.1c0,1.6-1.3,2.8-3.8,2.8
				C634.3,307.7,632.9,307.3,632,306.3z"/>
			<path fill="#079B3C" d="M641.1,302.9c0-2.7,1.9-4.8,4.6-4.8c2.7,0,4.5,2.1,4.5,5v0.5h-7.1c0.2,1.4,1.2,2.5,2.9,2.5
				c0.9,0,2-0.4,2.6-1l0.9,1.3c-0.9,0.9-2.3,1.3-3.7,1.3C643.2,307.7,641.1,305.8,641.1,302.9z M645.8,299.8c-1.7,0-2.5,1.3-2.6,2.4
				h5.2C648.3,301.1,647.6,299.8,645.8,299.8z"/>
			<path fill="#079B3C" d="M651.7,302.9c0-2.7,1.9-4.8,4.6-4.8c2.7,0,4.5,2.1,4.5,5v0.5h-7.1c0.2,1.4,1.2,2.5,2.9,2.5
				c0.9,0,2-0.4,2.6-1l0.9,1.3c-0.9,0.9-2.3,1.3-3.7,1.3C653.7,307.7,651.7,305.8,651.7,302.9z M656.3,299.8c-1.7,0-2.5,1.3-2.6,2.4
				h5.2C658.8,301.1,658.1,299.8,656.3,299.8z"/>
			<path fill="#079B3C" d="M669.2,307.5v-1.2c-0.7,0.9-1.8,1.5-2.9,1.5c-2.3,0-4.1-1.8-4.1-4.8c0-3,1.7-4.8,4.1-4.8
				c1.1,0,2.2,0.5,2.9,1.5v-4.8h2v12.6H669.2z M669.2,304.8v-3.6c-0.5-0.7-1.4-1.2-2.4-1.2c-1.6,0-2.6,1.3-2.6,3c0,1.8,1,3,2.6,3
				C667.8,306,668.8,305.5,669.2,304.8z"/>
			<path d="M682.6,307.7c-1.9-0.1-3.4-0.9-4.3-2l0.7-0.8c0.8,0.9,2,1.7,3.6,1.8v-5.3c-1.9-0.5-3.9-1.2-3.9-3.4c0-2,1.7-3.3,3.9-3.4
				V293h0.9v1.7c1.6,0.1,2.8,0.8,3.7,1.8l-0.7,0.8c-0.8-0.9-1.8-1.4-3-1.6v4.8c2,0.5,4,1.3,4,3.7c0,1.6-1,3.4-4,3.6v1.7h-0.9V307.7z
				 M682.6,300.2v-4.5c-1.6,0.1-2.7,1-2.7,2.3C679.9,299.3,681.1,299.8,682.6,300.2z M683.5,301.7v5.1c2.2-0.2,2.8-1.5,2.8-2.5
				C686.3,302.7,685,302.1,683.5,301.7z"/>
			<path d="M689.9,305.7l0.7-0.7c0.8,1.2,1.9,1.8,3.5,1.8c1.8,0,3.2-1.3,3.2-3c0-1.9-1.3-3.1-3.1-3.1c-1.2,0-2.1,0.4-3.1,1.2
				l-0.8-0.3v-6.6h7.3v1h-6.2v4.9c0.6-0.6,1.7-1.2,3-1.2c2.1,0,4,1.4,4,4c0,2.5-1.9,4.1-4.3,4.1C692,307.7,690.8,306.9,689.9,305.7z
				"/>
			<path d="M700.9,305.7l0.7-0.7c0.8,1.2,1.9,1.8,3.5,1.8c1.8,0,3.2-1.3,3.2-3c0-1.9-1.3-3.1-3.1-3.1c-1.2,0-2.1,0.4-3.1,1.2
				l-0.8-0.3v-6.6h7.3v1h-6.2v4.9c0.6-0.6,1.7-1.2,3-1.2c2.1,0,4,1.4,4,4c0,2.5-1.9,4.1-4.3,4.1
				C703.1,307.7,701.8,306.9,700.9,305.7z"/>
			<path d="M719.8,307.5l-5.2-5.9l-1.4,1.5v4.4h-1.1v-12.6h1.1v6.9l6.1-6.9h1.4l-5.4,6l5.9,6.6H719.8z"/>
			<path d="M728.1,307.5v-9.1h1v1.6c0.8-1,1.8-1.8,3.1-1.8v1.1c-0.2,0-0.3,0-0.5,0c-0.9,0-2.2,0.8-2.6,1.6v6.7H728.1z"/>
			<path d="M739.9,307.5v-1.1c-0.8,0.9-1.8,1.3-3.1,1.3c-1.6,0-3.2-1.1-3.2-3c0-2,1.6-3,3.2-3c1.3,0,2.3,0.4,3.1,1.3v-1.9
				c0-1.4-1.1-2.1-2.5-2.1c-1.1,0-2,0.4-2.9,1.3l-0.5-0.7c0.9-1,2-1.5,3.5-1.5c1.9,0,3.3,0.9,3.3,2.9v6.4H739.9z M739.9,305.7v-2
				c-0.6-0.8-1.7-1.3-2.8-1.3c-1.5,0-2.5,1-2.5,2.3c0,1.3,1,2.3,2.5,2.3C738.2,307,739.2,306.6,739.9,305.7z"/>
			<path d="M743.7,296.2c0-0.4,0.4-0.7,0.8-0.7c0.4,0,0.8,0.3,0.8,0.7s-0.3,0.8-0.8,0.8C744,296.9,743.7,296.6,743.7,296.2z
				 M743.9,307.5v-9.1h1v9.1H743.9z"/>
			<path d="M747.2,306.3l0.6-0.7c0.6,0.7,1.7,1.3,3,1.3c1.5,0,2.4-0.8,2.4-1.9c0-2.5-5.8-1.1-5.8-4.4c0-1.4,1.2-2.5,3.3-2.5
				c1.6,0,2.6,0.6,3.3,1.3l-0.5,0.7c-0.5-0.7-1.5-1.2-2.7-1.2c-1.4,0-2.3,0.7-2.3,1.7c0,2.3,5.8,0.9,5.8,4.4c0,1.5-1.1,2.7-3.4,2.7
				C749.2,307.7,748.1,307.3,747.2,306.3z"/>
			<path d="M756.2,302.9c0-2.7,1.9-4.8,4.4-4.8c2.8,0,4.3,2.2,4.3,4.8v0.3h-7.7c0.1,2,1.4,3.6,3.6,3.6c1.2,0,2.2-0.4,3-1.3l0.5,0.6
				c-0.9,0.9-2.1,1.5-3.6,1.5C758.1,307.7,756.2,305.8,756.2,302.9z M760.6,299c-2.2,0-3.2,1.9-3.3,3.5h6.6
				C763.9,300.9,762.8,299,760.6,299z"/>
			<path d="M774.2,307.5v-1.5c-0.6,0.9-1.8,1.7-3.2,1.7c-2.4,0-4.1-1.9-4.1-4.8c0-2.9,1.7-4.8,4.1-4.8c1.3,0,2.4,0.7,3.2,1.7v-5h1
				v12.6H774.2z M774.2,305.2v-4.5c-0.5-0.9-1.7-1.7-3-1.7c-2,0-3.2,1.7-3.2,3.9c0,2.2,1.2,3.9,3.2,3.9
				C772.4,306.9,773.6,306.1,774.2,305.2z"/>
			<path d="M627.3,328.6v-1.1c-0.8,0.9-1.8,1.3-3.1,1.3c-1.6,0-3.2-1.1-3.2-3c0-2,1.6-3,3.2-3c1.3,0,2.3,0.4,3.1,1.3v-1.9
				c0-1.4-1.1-2.1-2.5-2.1c-1.1,0-2,0.4-2.9,1.3l-0.5-0.7c0.9-1,2-1.5,3.5-1.5c1.9,0,3.3,0.9,3.3,2.9v6.4H627.3z M627.3,326.8v-2
				c-0.6-0.8-1.7-1.3-2.8-1.3c-1.5,0-2.5,1-2.5,2.3c0,1.3,1,2.3,2.5,2.3C625.7,328,626.7,327.6,627.3,326.8z"/>
			<path d="M631.6,326.8v-6.5h-1.5v-0.9h1.5v-2.5h1v2.5h1.9v0.9h-1.9v6.4c0,0.7,0.3,1.2,0.9,1.2c0.4,0,0.8-0.2,1-0.4l0.4,0.8
				c-0.4,0.3-0.8,0.6-1.6,0.6C632.2,328.8,631.6,328.1,631.6,326.8z"/>
			<path d="M645.1,328.8c-1.9-0.1-3.4-0.9-4.3-2l0.7-0.8c0.8,0.9,2,1.7,3.6,1.8v-5.3c-1.9-0.5-3.9-1.2-3.9-3.4c0-2,1.7-3.3,3.9-3.4
				V314h0.9v1.7c1.6,0.1,2.8,0.8,3.7,1.8l-0.7,0.8c-0.8-0.9-1.8-1.4-3-1.6v4.8c2,0.5,4,1.3,4,3.7c0,1.6-1,3.4-4,3.6v1.7h-0.9V328.8z
				 M645.1,321.3v-4.5c-1.6,0.1-2.7,1-2.7,2.3C642.4,320.4,643.7,320.9,645.1,321.3z M646,322.7v5.1c2.2-0.2,2.8-1.5,2.8-2.5
				C648.8,323.8,647.5,323.2,646,322.7z"/>
			<path d="M652.1,328.6v-0.9c4.3-3.5,7.2-5.9,7.2-8.4c0-1.8-1.5-2.6-2.9-2.6c-1.6,0-2.8,0.7-3.5,1.6l-0.7-0.7c0.9-1.2,2.4-2,4.2-2
				c1.9,0,4,1.1,4,3.6c0,2.8-2.9,5.3-6.6,8.3h6.6v1H652.1z"/>
			<path d="M663.5,326.7l0.7-0.7c0.8,1.2,1.9,1.8,3.5,1.8c1.8,0,3.2-1.3,3.2-3c0-1.9-1.3-3.1-3.1-3.1c-1.2,0-2.1,0.4-3.1,1.2
				l-0.8-0.3v-6.6h7.3v1h-6.2v4.9c0.6-0.6,1.7-1.2,3-1.2c2.1,0,4,1.4,4,4c0,2.5-1.9,4.1-4.3,4.1C665.6,328.8,664.3,328,663.5,326.7z
				"/>
			<path d="M674.2,322.3c0-3,1.3-6.5,4.7-6.5c3.4,0,4.7,3.5,4.7,6.5c0,3-1.3,6.5-4.7,6.5C675.4,328.8,674.2,325.3,674.2,322.3z
				 M682.4,322.3c0-2.6-0.9-5.5-3.5-5.5c-2.7,0-3.5,2.9-3.5,5.5c0,2.6,0.9,5.5,3.5,5.5C681.5,327.8,682.4,324.9,682.4,322.3z"/>
			<path d="M693.9,328.6l-5.2-5.9l-1.4,1.5v4.4h-1.1v-12.6h1.1v6.9l6.1-6.9h1.4l-5.4,6l5.9,6.6H693.9z"/>
			<path d="M704.6,328.6l-3.9-9.1h1.1l3.3,8l3.3-8h1.1l-3.9,9.1H704.6z"/>
			<path d="M717.1,328.6v-1.1c-0.8,0.9-1.8,1.3-3.1,1.3c-1.6,0-3.2-1.1-3.2-3c0-2,1.6-3,3.2-3c1.3,0,2.3,0.4,3.1,1.3v-1.9
				c0-1.4-1.1-2.1-2.5-2.1c-1.1,0-2,0.4-2.9,1.3l-0.5-0.7c0.9-1,2-1.5,3.5-1.5c1.9,0,3.3,0.9,3.3,2.9v6.4H717.1z M717.1,326.8v-2
				c-0.6-0.8-1.7-1.3-2.8-1.3c-1.5,0-2.5,1-2.5,2.3c0,1.3,1,2.3,2.5,2.3C715.4,328,716.4,327.6,717.1,326.8z"/>
			<path d="M721.1,328.6v-12.6h1v12.6H721.1z"/>
		</g>
	</g>
	<g>
		<g>
			<path d="M936.1,278.1v-12.6h4.7c3.9,0,6.6,2.6,6.6,6.3s-2.7,6.3-6.6,6.3H936.1z M945.1,271.7c0-2.4-1.5-4.4-4.3-4.4h-2.5v8.7h2.5
				C943.5,276.1,945.1,274.1,945.1,271.7z"/>
			<path d="M948.9,273.5c0-2.7,1.9-4.8,4.6-4.8c2.7,0,4.5,2.1,4.5,5v0.5H951c0.2,1.4,1.2,2.5,2.9,2.5c0.9,0,2-0.4,2.6-1l0.9,1.3
				c-0.9,0.9-2.3,1.3-3.7,1.3C950.9,278.3,948.9,276.4,948.9,273.5z M953.5,270.3c-1.7,0-2.5,1.3-2.6,2.4h5.2
				C956.1,271.7,955.3,270.3,953.5,270.3z"/>
			<path d="M959.4,273.5c0-2.8,2-4.8,4.7-4.8c1.8,0,2.9,0.8,3.5,1.6l-1.3,1.2c-0.5-0.7-1.2-1.1-2.1-1.1c-1.7,0-2.8,1.2-2.8,3
				s1.1,3,2.8,3c0.9,0,1.6-0.4,2.1-1.1l1.3,1.2c-0.6,0.9-1.7,1.6-3.5,1.6C961.4,278.3,959.4,276.3,959.4,273.5z"/>
			<path d="M976.6,278.1v-9.8l-2.1,2.1l-1.3-1.3l3.6-3.7h1.9v12.6H976.6z"/>
			<path d="M981.1,278.1v-1.7c4.9-3.7,6.8-5.4,6.8-7.2c0-1.3-1.1-1.9-2.3-1.9c-1.5,0-2.6,0.6-3.4,1.5l-1.3-1.5c1.1-1.3,2.9-2,4.7-2
				c2.4,0,4.6,1.4,4.6,3.9c0,2.3-2.1,4.4-5.5,7h5.6v2H981.1z"/>
			<path d="M935.8,301.2c0-3.9,2.8-6.5,6.4-6.5c2,0,3.5,0.9,4.6,2.2l-0.9,0.6c-0.8-1.1-2.2-1.8-3.7-1.8c-3,0-5.3,2.3-5.3,5.5
				c0,3.3,2.3,5.5,5.3,5.5c1.5,0,2.9-0.7,3.7-1.8l0.9,0.6c-1.1,1.4-2.6,2.3-4.6,2.3C938.6,307.7,935.8,305.1,935.8,301.2z"/>
			<path d="M948.4,302.9c0-2.7,1.7-4.8,4.4-4.8c2.7,0,4.4,2.1,4.4,4.8s-1.7,4.8-4.4,4.8C950.2,307.7,948.4,305.6,948.4,302.9z
				 M956.2,302.9c0-2-1.2-3.9-3.4-3.9c-2.1,0-3.3,1.9-3.3,3.9c0,2,1.2,3.9,3.3,3.9C955,306.9,956.2,305,956.2,302.9z"/>
			<path d="M970.7,307.5v-6.4c0-1.3-0.5-2.1-1.8-2.1c-1,0-2.1,0.7-2.6,1.6v6.9h-1v-6.4c0-1.3-0.5-2.1-1.8-2.1c-1,0-2.1,0.7-2.6,1.6
				v6.9h-1v-9.1h1v1.4c0.4-0.6,1.6-1.6,3-1.6c1.4,0,2.2,0.8,2.4,1.7c0.5-0.9,1.7-1.7,3-1.7c1.7,0,2.5,0.9,2.5,2.8v6.6H970.7z"/>
			<path d="M975.7,306v5h-1v-12.6h1v1.4c0.6-0.9,1.8-1.7,3.2-1.7c2.4,0,4.1,1.9,4.1,4.8c0,2.9-1.6,4.8-4.1,4.8
				C977.6,307.7,976.5,307.1,975.7,306z M981.9,302.9c0-2.2-1.2-3.9-3.2-3.9c-1.3,0-2.5,0.8-3,1.6v4.5c0.5,0.9,1.7,1.7,3,1.7
				C980.8,306.9,981.9,305.2,981.9,302.9z"/>
			<path d="M991.3,307.5v-1.1c-0.8,0.9-1.8,1.3-3.1,1.3c-1.6,0-3.2-1.1-3.2-3c0-2,1.6-3,3.2-3c1.3,0,2.3,0.4,3.1,1.3v-1.9
				c0-1.4-1.1-2.1-2.5-2.1c-1.1,0-2,0.4-2.9,1.3l-0.5-0.7c0.9-1,2-1.5,3.5-1.5c1.9,0,3.3,0.9,3.3,2.9v6.4H991.3z M991.3,305.7v-2
				c-0.6-0.8-1.7-1.3-2.8-1.3c-1.5,0-2.5,1-2.5,2.3c0,1.3,1,2.3,2.5,2.3C989.6,307,990.6,306.6,991.3,305.7z"/>
			<path d="M1001.5,307.5v-6.2c0-1.8-0.9-2.3-2.2-2.3c-1.2,0-2.4,0.7-3,1.6v6.9h-1v-9.1h1v1.4c0.7-0.8,2-1.6,3.3-1.6
				c1.9,0,2.9,0.9,2.9,3v6.4H1001.5z"/>
			<path d="M1005.1,310.2c0.2,0.1,0.6,0.2,0.8,0.2c0.6,0,1-0.2,1.4-1.1l0.7-1.6l-3.9-9.2h1.1l3.3,8l3.3-8h1.1l-4.7,11.2
				c-0.5,1.2-1.3,1.7-2.3,1.7c-0.3,0-0.7-0.1-1-0.1L1005.1,310.2z"/>
			<path fill="#079B3C" d="M1022.6,307.5l1.1-3.3h-1.9l-1.1,3.3h-1.5l1.1-3.3h-1.9l0.4-1.3h1.9l1.1-3.4h-1.9l0.4-1.3h2l1.1-3.3h1.5
				l-1.1,3.3h1.9l1.1-3.3h1.5l-1.1,3.3h1.9l-0.4,1.3h-2l-1.1,3.4h2l-0.4,1.3h-2l-1.1,3.3H1022.6z M1025.3,299.5h-1.9l-1.1,3.4h1.9
				L1025.3,299.5z"/>
			<path fill="#079B3C" d="M1032.8,306.2v4.8h-2v-12.6h2v1.2c0.7-0.9,1.7-1.5,2.9-1.5c2.4,0,4.1,1.8,4.1,4.8s-1.7,4.8-4.1,4.8
				C1034.6,307.7,1033.5,307.2,1032.8,306.2z M1037.7,302.9c0-1.8-1-3-2.6-3c-0.9,0-1.9,0.5-2.3,1.2v3.6c0.4,0.7,1.4,1.2,2.3,1.2
				C1036.7,306,1037.7,304.7,1037.7,302.9z"/>
			<path fill="#079B3C" d="M1041.5,296c0-0.7,0.6-1.2,1.2-1.2c0.7,0,1.2,0.5,1.2,1.2s-0.5,1.2-1.2,1.2
				C1042.1,297.3,1041.5,296.7,1041.5,296z M1041.8,307.5v-9.1h2v9.1H1041.8z"/>
			<path fill="#079B3C" d="M1048.7,307.5l-3.7-9.1h2.1l2.7,6.9l2.7-6.9h2.1l-3.7,9.1H1048.7z"/>
			<path fill="#079B3C" d="M1055.3,302.9c0-2.6,1.8-4.8,4.7-4.8c2.9,0,4.7,2.2,4.7,4.8c0,2.6-1.8,4.8-4.7,4.8
				C1057.1,307.7,1055.3,305.6,1055.3,302.9z M1062.6,302.9c0-1.6-0.9-3-2.7-3c-1.7,0-2.6,1.4-2.6,3c0,1.6,0.9,3,2.6,3
				C1061.7,306,1062.6,304.6,1062.6,302.9z"/>
			<path fill="#079B3C" d="M1067.1,305.4v-5.3h-1.5v-1.7h1.5v-2.5h2v2.5h1.9v1.7h-1.9v4.8c0,0.6,0.3,1.1,0.9,1.1
				c0.4,0,0.7-0.2,0.9-0.3l0.5,1.5c-0.4,0.3-0.9,0.6-1.9,0.6C1067.9,307.7,1067.1,306.9,1067.1,305.4z"/>
			<path fill="#079B3C" d="M1072,306.3l0.9-1.4c0.6,0.7,1.9,1.3,3.1,1.3s1.8-0.5,1.8-1.2c0-1.8-5.5-0.5-5.5-4c0-1.5,1.3-2.8,3.6-2.8
				c1.6,0,2.7,0.5,3.6,1.3l-0.8,1.4c-0.5-0.6-1.6-1.1-2.7-1.1c-1,0-1.7,0.5-1.7,1.1c0,1.6,5.5,0.4,5.5,4.1c0,1.6-1.3,2.8-3.8,2.8
				C1074.3,307.7,1072.9,307.3,1072,306.3z"/>
			<path d="M942.1,328.6v-1.1c-0.8,0.9-1.8,1.3-3.1,1.3c-1.6,0-3.2-1.1-3.2-3c0-2,1.6-3,3.2-3c1.3,0,2.3,0.4,3.1,1.3v-1.9
				c0-1.4-1.1-2.1-2.5-2.1c-1.1,0-2,0.4-2.9,1.3l-0.5-0.7c0.9-1,2-1.5,3.5-1.5c1.9,0,3.3,0.9,3.3,2.9v6.4H942.1z M942.1,326.8v-2
				c-0.6-0.8-1.7-1.3-2.8-1.3c-1.5,0-2.5,1-2.5,2.3c0,1.3,1,2.3,2.5,2.3C940.4,328,941.4,327.6,942.1,326.8z"/>
			<path d="M945.3,327.4l0.6-0.7c0.6,0.7,1.7,1.3,3,1.3c1.5,0,2.4-0.8,2.4-1.9c0-2.5-5.8-1.1-5.8-4.4c0-1.4,1.2-2.5,3.3-2.5
				c1.6,0,2.6,0.6,3.3,1.3l-0.5,0.7c-0.5-0.7-1.5-1.2-2.7-1.2c-1.4,0-2.3,0.7-2.3,1.7c0,2.3,5.8,0.9,5.8,4.4c0,1.5-1.1,2.7-3.4,2.7
				C947.4,328.8,946.2,328.4,945.3,327.4z"/>
			<path d="M965.5,328.6v-1.1c-0.8,0.9-1.8,1.3-3.1,1.3c-1.6,0-3.2-1.1-3.2-3c0-2,1.6-3,3.2-3c1.3,0,2.3,0.4,3.1,1.3v-1.9
				c0-1.4-1.1-2.1-2.5-2.1c-1.1,0-2,0.4-2.9,1.3l-0.5-0.7c0.9-1,2-1.5,3.5-1.5c1.9,0,3.3,0.9,3.3,2.9v6.4H965.5z M965.5,326.8v-2
				c-0.6-0.8-1.7-1.3-2.8-1.3c-1.5,0-2.5,1-2.5,2.3c0,1.3,1,2.3,2.5,2.3C963.9,328,964.9,327.6,965.5,326.8z"/>
			<path d="M974.5,328.6v-12.6h5.2c2.1,0,3.5,1.2,3.5,3.2c0,1.6-1.1,2.7-2.2,2.9c1.3,0.2,2.5,1.6,2.5,3.1c0,2.1-1.4,3.4-3.6,3.4
				H974.5z M982.1,319.3c0-1.3-0.9-2.3-2.5-2.3h-4v4.7h4C981.2,321.6,982.1,320.6,982.1,319.3z M982.3,325.1c0-1.3-0.9-2.5-2.7-2.5
				h-4.1v5h4.1C981.3,327.6,982.3,326.6,982.3,325.1z"/>
			<path d="M985.6,328.6v-0.9c4.3-3.5,7.2-5.9,7.2-8.4c0-1.8-1.5-2.6-2.9-2.6c-1.6,0-2.8,0.7-3.5,1.6l-0.7-0.7c0.9-1.2,2.4-2,4.2-2
				c1.9,0,4,1.1,4,3.6c0,2.8-2.9,5.3-6.6,8.3h6.6v1H985.6z"/>
			<path d="M997.2,328.6v-12.6h5.2c2.1,0,3.5,1.2,3.5,3.2c0,1.6-1.1,2.7-2.2,2.9c1.3,0.2,2.5,1.6,2.5,3.1c0,2.1-1.4,3.4-3.6,3.4
				H997.2z M1004.7,319.3c0-1.3-0.9-2.3-2.5-2.3h-4v4.7h4C1003.9,321.6,1004.7,320.6,1004.7,319.3z M1005,325.1
				c0-1.3-0.9-2.5-2.7-2.5h-4.1v5h4.1C1004,327.6,1005,326.6,1005,325.1z"/>
			<path d="M1014.7,327.1v5h-1v-12.6h1v1.4c0.6-0.9,1.8-1.7,3.2-1.7c2.4,0,4.1,1.9,4.1,4.8c0,2.9-1.6,4.8-4.1,4.8
				C1016.6,328.8,1015.4,328.1,1014.7,327.1z M1020.9,324c0-2.2-1.2-3.9-3.2-3.9c-1.3,0-2.5,0.8-3,1.6v4.5c0.5,0.9,1.7,1.7,3,1.7
				C1019.7,327.9,1020.9,326.2,1020.9,324z"/>
			<path d="M1024.4,328.6v-12.6h1v12.6H1024.4z"/>
			<path d="M1034.3,328.6v-1.1c-0.8,0.9-1.8,1.3-3.1,1.3c-1.6,0-3.2-1.1-3.2-3c0-2,1.6-3,3.2-3c1.3,0,2.3,0.4,3.1,1.3v-1.9
				c0-1.4-1.1-2.1-2.5-2.1c-1.1,0-2,0.4-2.9,1.3l-0.5-0.7c0.9-1,2-1.5,3.5-1.5c1.9,0,3.3,0.9,3.3,2.9v6.4H1034.3z M1034.3,326.8v-2
				c-0.6-0.8-1.7-1.3-2.8-1.3c-1.5,0-2.5,1-2.5,2.3c0,1.3,1,2.3,2.5,2.3C1032.6,328,1033.6,327.6,1034.3,326.8z"/>
			<path d="M1038.5,326.8v-6.5h-1.5v-0.9h1.5v-2.5h1v2.5h1.9v0.9h-1.9v6.4c0,0.7,0.3,1.2,0.9,1.2c0.4,0,0.8-0.2,1-0.4l0.4,0.8
				c-0.4,0.3-0.8,0.6-1.6,0.6C1039.1,328.8,1038.5,328.1,1038.5,326.8z"/>
			<path d="M1043.9,328.6v-8.3h-1.5v-0.9h1.5v-0.8c0-1.8,0.9-2.8,2.5-2.8c0.6,0,1.2,0.1,1.7,0.6l-0.5,0.7c-0.3-0.3-0.7-0.5-1.2-0.5
				c-1,0-1.6,0.7-1.6,2v0.8h1.9v0.9h-1.9v8.3H1043.9z"/>
			<path d="M1048,324c0-2.7,1.7-4.8,4.4-4.8c2.7,0,4.4,2.1,4.4,4.8s-1.7,4.8-4.4,4.8C1049.8,328.8,1048,326.7,1048,324z M1055.8,324
				c0-2-1.2-3.9-3.4-3.9c-2.1,0-3.3,1.9-3.3,3.9c0,2,1.2,3.9,3.3,3.9C1054.6,327.9,1055.8,326,1055.8,324z"/>
			<path d="M1059.4,328.6v-9.1h1v1.6c0.8-1,1.8-1.8,3.1-1.8v1.1c-0.2,0-0.3,0-0.5,0c-0.9,0-2.2,0.8-2.6,1.6v6.7H1059.4z"/>
			<path d="M1076.3,328.6v-6.4c0-1.3-0.5-2.1-1.8-2.1c-1,0-2.1,0.7-2.6,1.6v6.9h-1v-6.4c0-1.3-0.5-2.1-1.8-2.1c-1,0-2.1,0.7-2.6,1.6
				v6.9h-1v-9.1h1v1.4c0.4-0.6,1.6-1.6,3-1.6c1.4,0,2.2,0.8,2.4,1.7c0.5-0.9,1.7-1.7,3-1.7c1.7,0,2.5,0.9,2.5,2.8v6.6H1076.3z"/>
		</g>
	</g>
</g>
</svg>
