<?xml version="1.0" encoding="utf-8"?>
<svg version="1.1" id="Layer_1" xmlns="http://www.w3.org/2000/svg" xmlns:xlink="http://www.w3.org/1999/xlink" x="0px" y="0px"
	 width="52.842px" height="34.347px" viewBox="0 0 52.842 34.347" enable-background="new 0 0 52.842 34.347" xml:space="preserve">
<path fill="#098D45" d="M40.195,9.617c-0.729,0-1.443,0.063-2.137,0.181C36.324,4.131,30.953,0,24.595,0
	c-7.763,0-14.054,6.151-14.054,13.74c0,0.677,0.053,1.342,0.15,1.994c-0.373-0.043-0.749-0.072-1.134-0.072
	C4.28,15.662,0,19.846,0,25.005c0,5.159,4.28,9.342,9.558,9.342h30.638c6.986,0,12.646-5.536,12.646-12.365
	C52.842,15.154,47.182,9.617,40.195,9.617z"/>
</svg>
