<?xml version="1.0" encoding="utf-8"?>
<svg version="1.1" id="Layer_1" xmlns="http://www.w3.org/2000/svg" xmlns:xlink="http://www.w3.org/1999/xlink" x="0px" y="0px"
	 viewBox="0 0 608.2 353.3" enable-background="new 0 0 608.2 353.3" xml:space="preserve">
<g>
	<g>
		<path fill="#DBDADA" d="M536.1,342.7h-464c-8.4,0-15.3-6.9-15.3-15.3V15.3C56.8,6.9,63.7,0,72.1,0h464c8.4,0,15.3,6.9,15.3,15.3
			v312.1C551.4,335.8,544.5,342.7,536.1,342.7z"/>
		<path fill="#C7C6C6" d="M536.3,322.7H72c-6.7,0-12.1-5.5-12.1-12.1V15.3c0-6.7,5.5-12.1,12.1-12.1h464.3c6.7,0,12.1,5.5,12.1,12.1
			v295.3C548.4,317.3,542.9,322.7,536.3,322.7z"/>
		<rect x="74.8" y="23.8" fill="#EFEEEE" width="458.6" height="285.8"/>
		<polygon fill="#C7C6C6" points="492.1,323.2 304.7,323.2 117.2,323.2 115.8,331.3 304.7,331.3 493.6,331.3 		"/>
		<path fill="#DBDADA" d="M606.8,331.3H352.7c0,4.4-3.6,7.9-7.9,7.9h-81.4c-4.4,0-7.9-3.6-7.9-7.9H1.4c-0.8,0-1.4,0.6-1.4,1.4v10
			c0,0.8,0.6,1.4,1.4,1.4h605.5c0.8,0,1.4-0.6,1.4-1.4v-10C608.2,331.9,607.6,331.3,606.8,331.3z"/>
		<path fill="#EDEDED" d="M263.4,339.2h81.4c4.4,0,7.9-3.6,7.9-7.9h-97.2C255.5,335.7,259.1,339.2,263.4,339.2z"/>
		<path fill="#DBDADA" d="M304.7,344.1H1.4c0,0,4.7,3.4,16.8,6.6c5.8,1.6,14,2.4,22.4,2.6l264,0l264,0c8.5-0.2,16.6-1,22.4-2.6
			c12.1-3.3,16.8-6.6,16.8-6.6H304.7z"/>
		<circle fill="#EDEDED" cx="304.7" cy="13.3" r="3.6"/>
	</g>
</g>
</svg>
