<?xml version="1.0" encoding="utf-8"?>
<!-- Generator: Adobe Illustrator 18.0.0, SVG Export Plug-In . SVG Version: 6.00 Build 0)  -->
<!DOCTYPE svg PUBLIC "-//W3C//DTD SVG 1.1//EN" "http://www.w3.org/Graphics/SVG/1.1/DTD/svg11.dtd">
<svg version="1.1" id="Layer_1" xmlns="http://www.w3.org/2000/svg" xmlns:xlink="http://www.w3.org/1999/xlink" x="0px" y="0px"
	 viewBox="0 0 75 20" enable-background="new 0 0 75 20" xml:space="preserve">
<g>
	<path fill="#008D36" d="M61,10l1.5,1.5C62.8,11,63,10.5,63,10s-0.2-1.1-0.5-1.5L61,10z"/>
	<path fill="#008D36" d="M70.3,0.7l-1.4,1.4C70.9,4.2,72,7,72,10c0,3-1.1,5.8-3.1,7.9l1.4,1.4c2.4-2.5,3.8-5.8,3.8-9.3
		C74,6.5,72.7,3.2,70.3,0.7z"/>
	<path fill="#008D36" d="M68.4,2.6L66.9,4c1.5,1.6,2.3,3.7,2.3,5.9c0,2.2-0.8,4.3-2.3,5.9l1.4,1.4c1.9-2,2.9-4.6,2.9-7.4
		C71.3,7.2,70.2,4.6,68.4,2.6z"/>
	<path fill="#008D36" d="M66.4,4.5L64.9,6c1,1.1,1.5,2.5,1.5,3.9c0,1.5-0.5,2.9-1.5,3.9l1.5,1.5c1.3-1.5,2.1-3.4,2.1-5.5
		C68.5,7.9,67.8,6,66.4,4.5z"/>
	<path fill="#008D36" d="M64.4,6.5L63,8c0.5,0.6,0.7,1.2,0.7,2c0,0.7-0.3,1.4-0.7,2l1.5,1.5c0.9-0.9,1.3-2.2,1.3-3.5
		S65.3,7.5,64.4,6.5z"/>
</g>
<path fill="#008D36" d="M46,10l1.5,1.5C47.8,11,48,10.5,48,10s-0.2-1.1-0.5-1.5L46,10z"/>
<path fill="#008D36" d="M53.4,2.6L51.9,4c1.5,1.6,2.3,3.7,2.3,5.9c0,2.2-0.8,4.3-2.3,5.9l1.4,1.4c1.9-2,2.9-4.6,2.9-7.4
	C56.3,7.2,55.2,4.6,53.4,2.6z"/>
<path fill="#008D36" d="M51.4,4.5L49.9,6c1,1.1,1.5,2.5,1.5,3.9c0,1.5-0.5,2.9-1.5,3.9l1.5,1.5c1.3-1.5,2.1-3.4,2.1-5.5
	C53.5,7.9,52.8,6,51.4,4.5z"/>
<path fill="#008D36" d="M49.4,6.5L48,8c0.5,0.6,0.7,1.2,0.7,2c0,0.7-0.3,1.4-0.7,2l1.5,1.5c0.9-0.9,1.3-2.2,1.3-3.5
	S50.3,7.5,49.4,6.5z"/>
<path fill="#008D36" d="M31,10l1.5,1.5C32.8,11,33,10.5,33,10s-0.2-1.1-0.5-1.5L31,10z"/>
<path fill="#008D36" d="M36.4,4.5L34.9,6c1,1.1,1.5,2.5,1.5,3.9c0,1.5-0.5,2.9-1.5,3.9l1.5,1.5c1.3-1.5,2.1-3.4,2.1-5.5
	C38.5,7.9,37.8,6,36.4,4.5z"/>
<path fill="#008D36" d="M34.4,6.5L33,8c0.5,0.6,0.7,1.2,0.7,2c0,0.7-0.3,1.4-0.7,2l1.5,1.5c0.9-0.9,1.3-2.2,1.3-3.5
	S35.3,7.5,34.4,6.5z"/>
<path fill="#008D36" d="M16,10l1.5,1.5C17.8,11,18,10.5,18,10s-0.2-1.1-0.5-1.5L16,10z"/>
<path fill="#008D36" d="M19.4,6.5L18,8c0.5,0.6,0.7,1.2,0.7,2c0,0.7-0.3,1.4-0.7,2l1.5,1.5c0.9-0.9,1.3-2.2,1.3-3.5
	S20.3,7.5,19.4,6.5z"/>
<path fill="#008D36" d="M1,10l1.5,1.5C2.8,11,3,10.5,3,10S2.8,8.9,2.5,8.5L1,10z"/>
</svg>
