<?xml version="1.0" encoding="utf-8"?>
<!-- Generator: Adobe Illustrator 18.1.1, SVG Export Plug-In . SVG Version: 6.00 Build 0)  -->
<!DOCTYPE svg PUBLIC "-//W3C//DTD SVG 1.1//EN" "http://www.w3.org/Graphics/SVG/1.1/DTD/svg11.dtd">
<svg version="1.1" id="Layer_1" xmlns="http://www.w3.org/2000/svg" xmlns:xlink="http://www.w3.org/1999/xlink" x="0px" y="0px"
	 viewBox="0 0 70.7 72.4" enable-background="new 0 0 70.7 72.4" xml:space="preserve">
<path fill="#FEE13A" d="M65.1,55.6c-1.7-4.6-3.8-9.1-5.8-13.4l-4.5-10.5V15.9c0-0.6-0.4-0.9-0.6-1c-0.2-0.1-0.6-0.3-1.1,0l-8.6,6.6
	c0,0-0.4,0.3-1.1,0.8c-0.2,0.2-0.5,0.4-0.6,0.3c-0.2-0.1-0.4-0.5-0.4-0.5l-2-4c-0.2-0.4-0.5-0.4-0.7-0.5c-0.1,0-0.5,0-0.7,0.3
	l-3.6,7.5c0,0-0.2,0.4-0.4,0.4s-0.4-0.1-0.6-0.3c-0.6-0.6-1.3-1.3-2.2-2.3c-6.2-6.1-18-17.7-18.4-17.4c-0.4,0.4,12.9,18.6,15.6,22.3
	c-0.1,0.1-0.2,0.1-0.3,0.2c-0.3,0.2-2.5,2.5-2.5,2.5c-5.9,6.9-11.9,13.9-18.4,21.3c0.6,0.8,1.8,1.8,3,2.6l8.7-3.3c0,0-1.3,1.1-7,4.4
	c0.9,0.5,1.5,0.9,1.5,0.9c0.9,0.3,2,0.2,2.9,0c6.1-1.2,12.3-2.5,18.4-3.9c2.4,6.5,4.4,11.7,4.4,11.7C42.1,70.2,67.6,62.7,65.1,55.6z
	 M31.7,38.5c-1.3,0-2.3-1-2.3-2.3s1-2.3,2.3-2.3c1.3,0,2.3,1,2.3,2.3S33,38.5,31.7,38.5z"/>
</svg>
