<?xml version="1.0" encoding="utf-8"?>
<!-- Generator: Adobe Illustrator 18.1.1, SVG Export Plug-In . SVG Version: 6.00 Build 0)  -->
<!DOCTYPE svg PUBLIC "-//W3C//DTD SVG 1.1//EN" "http://www.w3.org/Graphics/SVG/1.1/DTD/svg11.dtd">
<svg version="1.1" id="Layer_1" xmlns="http://www.w3.org/2000/svg" xmlns:xlink="http://www.w3.org/1999/xlink" x="0px" y="0px"
	 viewBox="0 0 1920 1080" enable-background="new 0 0 1920 1080" xml:space="preserve">
<g>
	<path fill="#EF5B66" d="M1358.3,321.5c-21.1,0-41.7,1.9-61.8,5.2c-50.2-163.9-205.5-283.3-389.4-283.3
		c-224.5,0-406.4,177.9-406.4,397.3c0,19.6,1.5,38.8,4.3,57.7c-10.8-1.2-21.7-2.1-32.8-2.1c-152.6,0-276.4,121-276.4,270.2
		s123.7,270.2,276.4,270.2h886c202,0,365.7-160.1,365.7-357.6C1724,481.6,1560.3,321.5,1358.3,321.5z"/>
	<path fill="#E0383C" d="M1358.3,1080h-886c-176.3,0-319.7-140.7-319.7-313.5c0-168.1,135.5-305.6,305-313.2
		c-0.1-4.2-0.2-8.4-0.2-12.5C457.4,197.7,659.2,0,907.2,0c184.5,0,351.6,113.2,418.6,279.4c10.9-0.9,21.7-1.3,32.6-1.3
		c225.6,0,409.1,179.8,409.1,400.9C1767.4,900.1,1583.9,1080,1358.3,1080z M472.3,539.7c-128.5,0-233,101.8-233,226.8
		s104.5,226.8,233,226.8h886c177.7,0,322.3-140.9,322.3-314.2s-144.6-314.2-322.3-314.2c-18.1,0-36.4,1.6-54.6,4.6l-37.6,6.4
		l-11.2-36.4c-45.5-148.8-188.6-252.7-347.9-252.7c-200.2,0-363,158.8-363,354c0,16.9,1.3,34.1,3.9,51.2l8.4,56l-56.2-6.5
		C491,540.4,481.8,539.7,472.3,539.7z"/>
</g>
<g>
	<polygon fill="#FFFFFF" points="1101.8,839.6 955.1,762.4 808.4,839.6 836.4,676.2 717.7,560.5 881.8,536.7 955.1,388 
		1028.5,536.7 1192.5,560.5 1073.9,676.2 	"/>
</g>
</svg>
